<svg xmlns="http://www.w3.org/2000/svg" xmlns:xlink="http://www.w3.org/1999/xlink" version="1.1" width="256" height="256" viewBox="0 0 256 256" xml:space="preserve">

<defs>
</defs>
<g style="stroke: none; stroke-width: 0; stroke-dasharray: none; stroke-linecap: butt; stroke-linejoin: miter; stroke-miterlimit: 10; fill: none; fill-rule: nonzero; opacity: 1;" transform="translate(1.4065934065934016 1.4065934065934016) scale(2.81 2.81)" >
	<path d="M 28.786 43.774 c -3.881 0 -7.039 -3.158 -7.039 -7.039 s 3.158 -7.039 7.039 -7.039 c 3.881 0 7.039 3.158 7.039 7.039 S 32.667 43.774 28.786 43.774 z M 28.786 31.697 c -2.778 0 -5.039 2.26 -5.039 5.039 s 2.26 5.039 5.039 5.039 s 5.039 -2.26 5.039 -5.039 S 31.564 31.697 28.786 31.697 z" style="stroke: none; stroke-width: 1; stroke-dasharray: none; stroke-linecap: butt; stroke-linejoin: miter; stroke-miterlimit: 10; fill: rgb(0,0,0); fill-rule: nonzero; opacity: 1;" transform=" matrix(1 0 0 1 0 0) " stroke-linecap="round" />
	<path d="M 81.64 45.604 c -0.553 0 -1 0.447 -1 1 v 21.16 L 55.232 49.047 c -2.592 -1.912 -6.125 -1.978 -8.791 -0.162 L 32.14 58.632 c -2.083 1.419 -4.874 1.267 -6.79 -0.366 L 2 38.362 V 24.593 c 0 -2.771 2.254 -5.024 5.024 -5.024 h 49.255 c 0.553 0 1 -0.448 1 -1 s -0.447 -1 -1 -1 H 7.024 C 3.151 17.569 0 20.72 0 24.593 v 46.475 c 0 3.873 3.151 7.024 7.024 7.024 h 68.591 c 3.873 0 7.024 -3.151 7.024 -7.024 V 46.604 C 82.64 46.051 82.192 45.604 81.64 45.604 z M 75.615 76.093 H 7.024 C 4.254 76.093 2 73.839 2 71.068 V 40.991 l 22.052 18.796 c 2.601 2.219 6.389 2.421 9.214 0.497 l 14.301 -9.747 c 1.964 -1.337 4.568 -1.289 6.479 0.119 l 26.593 19.59 v 0.822 C 80.64 73.839 78.386 76.093 75.615 76.093 z" style="stroke: none; stroke-width: 1; stroke-dasharray: none; stroke-linecap: butt; stroke-linejoin: miter; stroke-miterlimit: 10; fill: rgb(0,0,0); fill-rule: nonzero; opacity: 1;" transform=" matrix(1 0 0 1 0 0) " stroke-linecap="round" />
	<path d="M 85.911 15.995 c -2.637 -2.636 -6.142 -4.088 -9.87 -4.088 s -7.233 1.452 -9.87 4.088 c -5.442 5.442 -5.442 14.298 0 19.741 c 2.637 2.636 6.142 4.088 9.87 4.088 s 7.233 -1.452 9.87 -4.088 C 88.548 33.099 90 29.594 90 25.865 C 90 22.137 88.548 18.632 85.911 15.995 z M 84.497 17.409 C 86.756 19.668 88 22.671 88 25.865 c 0 2.858 -1.003 5.559 -2.83 7.715 L 68.326 16.737 c 2.156 -1.828 4.856 -2.83 7.715 -2.83 C 79.235 13.907 82.238 15.15 84.497 17.409 z M 67.585 34.322 c -4.423 -4.424 -4.642 -11.476 -0.671 -16.17 l 16.842 16.842 c -2.156 1.828 -4.856 2.83 -7.715 2.83 C 72.847 37.824 69.844 36.581 67.585 34.322 z" style="stroke: none; stroke-width: 1; stroke-dasharray: none; stroke-linecap: butt; stroke-linejoin: miter; stroke-miterlimit: 10; fill: rgb(0,0,0); fill-rule: nonzero; opacity: 1;" transform=" matrix(1 0 0 1 0 0) " stroke-linecap="round" />
</g>
</svg>