<?xml version="1.0" encoding="utf-8"?>
<!-- Generator: Adobe Illustrator 24.1.2, SVG Export Plug-In . SVG Version: 6.00 Build 0)  -->
<svg version="1.1" id="Layer_1" xmlns="http://www.w3.org/2000/svg" xmlns:xlink="http://www.w3.org/1999/xlink" x="0px" y="0px"
	 viewBox="0 0 48 48" style="enable-background:new 0 0 48 48;" xml:space="preserve">
<style type="text/css">
	.st0{fill:#2051A3;}
	.st1{fill:#FFFFFF;}
</style>
<circle class="st0" cx="24.01" cy="24.01" r="23.99"/>
<g>
	<path class="st1" d="M19.77,25.24c-0.53-0.48-1.16-0.71-1.9-0.71l-4.86,0.02c-0.75,0-1.38,0.24-1.9,0.72
		c-0.53,0.48-0.79,1.08-0.78,1.78l0.01,2.89c0,0.71,0.27,1.3,0.8,1.78c0.52,0.47,1.16,0.7,1.91,0.7l4.86-0.02
		c0.75,0,1.38-0.24,1.9-0.72c0.53-0.48,0.8-1.07,0.79-1.79l-0.01-2.89C20.58,26.31,20.31,25.72,19.77,25.24z M17.9,30.56l-4.86,0.02
		c-0.51,0-0.77-0.22-0.77-0.65l-0.01-2.89c0-0.44,0.25-0.66,0.77-0.66l4.86-0.02c0.51,0,0.77,0.22,0.77,0.65l0.01,2.89
		C18.66,30.34,18.41,30.56,17.9,30.56z"/>
	<polygon class="st1" points="39.84,24.52 39.86,29.55 34.91,24.54 32.84,24.55 32.88,32.39 34.84,32.39 34.81,27.1 39.87,32.4 
		41.82,32.4 41.82,24.51 	"/>
	<path class="st1" d="M24.89,26.49h6.14h0.26l-0.02-1.94l-6.5-0.01c-0.73,0-1.35,0.24-1.86,0.72c-0.52,0.48-0.77,1.08-0.77,1.78
		l0.01,2.88c0,0.71,0.26,1.3,0.78,1.78c0.51,0.47,1.13,0.7,1.87,0.7l5.34-0.02h1.15v-1.99h-1.14h-5.27c-0.44,0-0.79-0.36-0.79-0.79
		v-2.31C24.09,26.84,24.45,26.49,24.89,26.49z"/>
	<path class="st1" d="M33.8,17.74c0.34-0.6,0.07-1.05-0.43-1.46c-0.83-0.69-1.54-1.5-2.19-2.37c-1.5-2-3.54-2.96-6.03-3.08
		c-2.67-0.13-5.14,0.57-7.48,1.79c-0.34,0.18-0.67,0.22-1.04,0.19c-1.78-0.15-3.47,0.2-5.09,0.93c-0.25,0.11-0.5,0.27-0.71,0.45
		c-0.23,0.2-0.48,0.45-0.35,0.79c0.12,0.32,0.45,0.31,0.73,0.31c0.65-0.01,1.28,0.07,1.91,0.19c0.21,0.04,0.52,0.01,0.58,0.28
		c0.05,0.22-0.2,0.35-0.34,0.48c-2.81,2.51-4.57,5.65-5.48,9.29c-0.15,0.61-0.48,0.97-1.03,1.24c-0.65,0.32-1.23,0.74-1.61,1.7
		c0.61-0.74,1.14-1.17,1.83-1.38c0.7-0.22,1.08-0.68,1.32-1.38c0.69-2,1.55-3.91,2.85-5.61c1.15-1.5,2.55-2.75,3.99-3.95
		c0.85-0.71,0.91-0.94-0.15-1.35c-0.49-0.19-1.32-0.37-0.52-0.53c0.85-0.06,1.68-0.1,2.51,0.03c0.41,0.06,0.77,0.02,1.11-0.2
		c1.43-0.93,3.05-1.42,4.71-1.62c3.98-0.47,6.18,0.61,8.04,3.79c-1.29-0.24-2.44-0.18-3.58-0.03c-1.89,0.25-3.72,0.62-4.9,2.36
		c-0.45,0.66-2.35,3-2.72,2.83c-0.35-0.16,0.16-0.78,0.23-1.46c0.24-0.91-0.13-1.08-1.07-0.79c-2.27,0.69-4.28,1.86-6.15,3.31
		c-0.13,0.1-0.32,0.16-0.28,0.44c1.6-0.91,3.12-1.93,4.88-2.45c0.54-0.16,1.26-0.75,1.6-0.32c0.34,0.43-0.22,1.13-0.52,1.67
		c-0.15,0.27-0.38,0.53-0.11,0.84c0.28,0.31,0.61,0.15,0.92,0.02c1.55-0.62,2.77-1.66,3.8-2.93c0.88-1.08,1.9-1.87,3.33-2.01
		c2-0.19,4-0.36,5.94,0.37C32.88,18.33,33.45,18.35,33.8,17.74z"/>
</g>
</svg>
