<svg width="214" height="213" viewBox="0 0 214 213" fill="none" xmlns="http://www.w3.org/2000/svg">
<rect width="212.906" height="212.906" rx="106.453" fill="url('#paint0_linear_531_420')"></rect>
<path d="M165.73 147.219L121.509 142.349H105.163H105.052H88.7063L44.4847 147.219C25.9564 149.29 11.9062 165.355 11.9062 184.555V212.823H105.052H105.163H198.309V184.555C198.253 165.355 184.259 149.29 165.73 147.219Z" fill="#191346"></path>
<path d="M81.4297 143.356L105.108 152.313L86.0758 161.941L81.4297 143.356Z" fill="#E6E6ED"></path>
<path d="M128.731 143.356L105.108 152.313L124.085 161.941L128.731 143.356Z" fill="#E6E6ED"></path>
<path d="M105.107 152.313L86.0752 161.941L98.7819 212.824H105.051H105.163H111.433L124.083 161.941L105.107 152.313Z" fill="#E6E6ED"></path>
<path d="M132.425 130.93L130.13 137.759L128.73 143.356L105.108 152.313L81.4858 143.356L80.0864 137.759L77.7354 130.706C84.5645 138.486 94.3604 142.405 105.22 142.405C115.855 142.405 125.595 138.598 132.425 130.93Z" fill="#96513A"></path>
<path d="M98.7818 212.823H61.4453L37.3193 180.189L62.8447 162.388L38.215 140.277L70.3456 118.223L70.7374 118.279C72.4167 123.205 74.7678 127.347 77.7905 130.705L80.1415 137.759L98.7818 212.823Z" fill="#686899"></path>
<path d="M172.839 180.189L148.713 212.823H111.377L130.073 137.758L132.368 130.929C135.447 127.459 137.91 123.26 139.589 118.223L139.813 118.167L171.944 140.221L147.37 162.388L172.839 180.189Z" fill="#686899"></path>
<path d="M143.843 88.9468L141.38 111.114C137.797 132.049 122.796 142.405 105.107 142.405C87.3624 142.405 72.4166 132.049 68.8341 111.114L66.3711 89.1148C77.6224 92.1375 90.8329 94.3766 104.995 94.3766C119.213 94.3766 132.536 92.0815 143.843 88.9468Z" fill="#B76C4E"></path>
<path d="M143.843 88.9468L142.667 99.5824C131.696 102.549 118.821 104.62 105.107 104.62C91.3927 104.62 78.518 102.549 67.5466 99.6384L66.3711 89.1148C77.6224 92.1375 90.8329 94.3766 104.995 94.3766C119.213 94.3766 132.536 92.0815 143.843 88.9468Z" fill="#B76C4E"></path>
<path d="M81.4297 143.356L105.108 152.313L86.0758 161.941L81.4297 143.356Z" fill="#E6E6ED"></path>
<path d="M128.731 143.356L105.108 152.313L124.085 161.941L128.731 143.356Z" fill="#E6E6ED"></path>
<path d="M148.77 212.823L172.84 180.189L147.37 162.388L164.387 147.107L150.225 162.892L176.03 180.86L155.711 212.823H148.77Z" fill="#111128"></path>
<path d="M178.773 72.3217C178.773 75.6803 145.802 94.3765 105.051 94.3765C64.3004 94.3765 31.3301 76.1281 31.3301 72.3217C31.3301 70.0826 44.7085 61.7421 64.9161 55.9765C64.2444 58.2716 63.6846 60.3427 63.2368 62.022C63.1808 62.134 63.1808 62.1899 63.1808 62.3019C63.0129 62.9736 62.845 63.5893 62.677 64.1491C62.677 64.2051 62.6211 64.2611 62.6211 64.317C62.5651 64.485 62.5091 64.7089 62.5091 64.8208C62.4531 65.1007 62.3972 65.3246 62.3412 65.4926V65.5485C62.2292 65.8844 62.2292 66.0523 62.1733 66.1083C75.7196 72.9934 103.82 72.2657 105.107 72.2098C106.395 72.2657 134.495 72.9375 148.042 66.1083C148.042 66.1083 147.93 65.7724 147.818 65.1567C147.482 63.8133 146.754 61.2383 145.858 57.9917C145.747 57.6558 145.635 57.32 145.579 56.9281C145.467 56.5923 145.355 56.2004 145.243 55.8646C165.394 61.6302 178.773 69.9147 178.773 72.3217Z" fill="#191346"></path>
<path d="M143.843 88.9468L141.38 111.114C138.693 126.787 129.625 136.527 117.814 140.389C139.589 132.945 134.607 97.1754 134.607 97.1754C89.0976 102.773 68.4422 90.7941 66.483 90.0104L66.3711 89.0588C77.6224 92.0815 90.8329 94.3206 104.995 94.3206C119.213 94.3766 132.536 92.0815 143.843 88.9468Z" fill="#96513A"></path>
<path d="M142.164 98.0711C141.66 97.0635 140.54 96.5037 139.421 96.5597C135.278 96.8955 121.116 97.6792 112.328 98.127C107.514 98.4069 102.644 98.4069 97.83 98.127C89.0416 97.6792 74.8795 96.8955 70.7373 96.5597C69.6177 96.4477 68.4982 97.0075 67.9944 98.0711C67.3787 99.4145 67.9944 100.982 69.2819 101.542C71.5769 102.605 73.0323 104.956 73.2002 107.531C73.3122 109.434 73.4241 111.002 73.4241 111.002C73.76 115.984 78.0702 119.678 83.0521 119.286L90.7769 118.894C95.9268 118.67 100.069 114.528 100.293 109.378L100.405 107.587C100.461 105.964 101.301 104.732 102.476 103.949C104.043 102.941 106.059 102.941 107.626 103.949C108.857 104.732 109.641 105.964 109.697 107.587L109.809 109.378C110.033 114.528 114.175 118.67 119.325 118.894L127.05 119.286C132.032 119.734 136.342 115.984 136.678 111.002C136.678 111.002 136.79 109.434 136.902 107.531C137.07 105.012 138.525 102.605 140.82 101.542C142.22 100.982 142.779 99.4145 142.164 98.0711Z" fill="#191346"></path>
<path d="M105.724 103.221C105.052 103.333 104.436 103.557 103.876 103.893C102.645 104.676 101.861 105.908 101.805 107.531L101.693 109.322C101.469 114.472 97.3271 118.615 92.1773 118.839L84.4525 119.23C83.9487 119.286 83.4449 119.286 82.9971 119.23H83.053L90.7778 118.839C95.9277 118.615 100.07 114.472 100.294 109.322L100.406 107.531C100.462 105.908 101.301 104.676 102.477 103.893C103.429 103.277 104.604 103.053 105.724 103.221Z" fill="#96513A"></path>
<path d="M132.481 130.93L130.186 137.703C130.13 137.703 130.13 137.759 130.13 137.759C100.462 155.391 79.5266 133.672 78.2951 132.385L77.7354 130.706C84.5645 138.486 94.3604 142.405 105.22 142.405C115.911 142.405 125.595 138.654 132.425 131.041C132.425 130.986 132.425 130.986 132.481 130.93Z" fill="#7D392B"></path>
<path d="M155.934 129.194C141.548 119.286 131.025 137.143 130.185 137.758C130.129 137.758 130.129 137.814 130.129 137.814L132.368 131.041V130.985C135.447 127.515 137.91 123.316 139.645 118.279L139.869 118.223L155.934 129.194Z" fill="#52537B"></path>
<path d="M54.3369 129.194C68.7229 119.286 79.2466 137.143 80.0862 137.758C80.1422 137.758 80.1422 137.814 80.1422 137.814L77.9031 131.041V130.985C74.8244 127.515 72.3614 123.316 70.6261 118.279L70.4022 118.223L54.3369 129.194Z" fill="#52537B"></path>
<path d="M61.4453 212.823L37.3193 180.189L57.6949 212.823H61.4453Z" fill="#111128"></path>
<path d="M45.7725 147.107L62.8454 162.388L60.6623 163.9L45.7725 147.107Z" fill="#111128"></path>
<path d="M98.7818 212.823L80.0856 137.758L77.7345 130.705L77.0068 129.978L95.3672 212.823H98.7818Z" fill="#52537B"></path>
<path d="M111.433 212.823L130.129 137.758L132.424 130.705L133.208 129.978L114.791 212.823H111.433Z" fill="#52537B"></path>
<path d="M105.107 152.313L96.8789 156.455L100.965 161.941H105.107H109.25L113.336 156.455L105.107 152.313Z" fill="#191346"></path>
<path d="M109.249 161.94H105.107H100.965L96.0947 202.188L98.7816 212.823H105.107H111.432L114.063 202.188L109.249 161.94Z" fill="#191346"></path>
<path d="M96.8789 156.511L105.107 152.313L97.4946 157.295L96.8789 156.511Z" fill="#111128"></path>
<path d="M113.336 156.511L112.72 157.294L105.107 152.312L113.336 156.511Z" fill="#111128"></path>
<path d="M97.4944 157.294L86.6909 164.292L86.0752 161.94L96.8787 156.511L97.4944 157.294Z" fill="#BEBECC"></path>
<path d="M124.14 161.941L123.524 164.292L112.721 157.294L113.336 156.511L124.14 161.941Z" fill="#BEBECC"></path>
<path d="M109.474 163.956H100.741L100.965 161.94H109.25L109.474 163.956Z" fill="#111128"></path>
<path d="M115.184 157.406L110.314 161.941L115.743 195.527L114.064 202.188L109.25 161.941L113.336 156.511L115.184 157.406Z" fill="#BEBECC"></path>
<path d="M87.2507 161.325L96.8787 195.75L96.095 202.188L86.0752 161.941L87.2507 161.325Z" fill="#BEBECC"></path>
<path d="M96.8784 195.75L102.084 212.823H98.7816L96.0947 202.188L96.8784 195.75Z" fill="#111128"></path>
<path d="M126.882 136.471L126.379 142.685L105.107 152.313L128.73 143.356L130.129 137.759L126.882 136.471Z" fill="#7D392B"></path>
<path d="M179.78 177.95H173.119V185.451H179.78V177.95Z" fill="#DEE7F4"></path>
<path d="M184.371 212.823H167.689V188.585C167.689 186.85 169.089 185.395 170.88 185.395H181.236C182.971 185.395 184.427 186.794 184.427 188.585V212.823H184.371Z" fill="#2A4A78"></path>
<path d="M179.781 177.95H176.03V185.451H179.781V177.95Z" fill="#BEBECC"></path>
<path d="M184.371 188.585V212.823H176.03V185.395H181.18C182.971 185.395 184.371 186.85 184.371 188.585Z" fill="#1E396A"></path>
<path opacity="0.8" d="M176.03 172.352C193.651 172.352 207.937 158.067 207.937 140.445C207.937 122.824 193.651 108.539 176.03 108.539C158.408 108.539 144.123 122.824 144.123 140.445C144.123 158.067 158.408 172.352 176.03 172.352Z" fill="#BFE6F1"></path>
<path opacity="0.5" d="M207.937 140.445C207.937 158.078 193.663 172.352 176.03 172.352C175.47 172.352 174.855 172.352 174.295 172.296C191.088 171.4 204.466 157.462 204.466 140.445C204.466 123.428 191.144 109.49 174.295 108.595C174.855 108.595 175.47 108.539 176.03 108.539C193.663 108.539 207.937 122.813 207.937 140.445Z" fill="#DEF2FB"></path>
<path d="M176.03 102.549C155.094 102.549 138.189 119.51 138.189 140.389C138.189 160.317 153.583 176.662 173.175 178.118C174.127 178.174 175.078 178.23 176.086 178.23C177.373 178.23 178.605 178.174 179.836 178.062C198.98 176.159 213.926 160.037 213.926 140.389C213.87 119.51 196.965 102.549 176.03 102.549ZM176.03 172.296C158.397 172.296 144.123 158.022 144.123 140.389C144.123 122.757 158.397 108.483 176.03 108.483C193.662 108.483 207.936 122.757 207.936 140.389C207.936 158.022 193.662 172.296 176.03 172.296Z" fill="#2A4A78"></path>
<path d="M176.03 102.549V108.539C193.663 108.539 207.937 122.813 207.937 140.445C207.937 158.078 193.663 172.352 176.03 172.352V178.342C177.318 178.342 178.549 178.286 179.781 178.174C198.925 176.27 213.871 160.149 213.871 140.501C213.871 119.51 196.966 102.549 176.03 102.549Z" fill="#1E396A"></path>
<path d="M193.215 156.175L191.536 154.496L188.289 151.249C186.946 152.649 185.378 153.712 183.531 154.496C181.684 155.279 179.501 155.671 177.038 155.671C174.911 155.671 172.952 155.279 171.216 154.552C169.425 153.824 167.914 152.76 166.626 151.417C166.346 151.137 166.122 150.857 165.898 150.577C167.858 156.847 172.056 162.109 177.542 165.523C180.564 165.467 183.307 165.075 185.77 164.348C186.386 164.124 187.058 163.956 187.617 163.676C188.401 163.34 189.185 162.948 189.968 162.556C192.04 161.437 193.943 160.149 195.678 158.526L193.215 156.175Z" fill="#191346"></path>
<path d="M171.272 121.301C172.168 121.413 173.063 121.525 173.903 121.749C176.254 122.253 178.325 123.093 179.78 123.764C180.9 124.268 181.628 124.716 181.964 124.94C182.131 125.052 182.355 125.164 182.523 125.276C183.699 126.004 184.65 126.787 185.154 127.179C185.77 127.627 186.218 128.019 186.554 128.355C187.113 128.858 187.561 129.306 187.897 129.642C188.233 129.306 188.569 128.97 188.905 128.578L190.528 126.955L192.319 125.108L194.11 123.317L195.174 122.197C192.935 120.014 190.248 118.335 187.281 117.047C186.274 116.655 185.266 116.32 184.203 116.04C182.859 115.704 181.46 115.48 180.004 115.312C178.997 115.2 177.989 115.2 176.926 115.2C173.287 115.2 169.929 115.816 166.794 117.103C163.659 118.391 160.972 120.126 158.677 122.421C158.341 122.757 158.061 123.093 157.726 123.429C160.972 121.973 164.555 121.19 168.305 121.19C169.369 121.134 170.32 121.19 171.272 121.301Z" fill="#191346"></path>
<path d="M163.211 148.898C162.819 146.995 162.707 145.147 162.707 145.147C162.651 143.356 162.763 141.901 162.987 140.781C162.259 142.517 161.756 144.028 161.476 145.147C160.636 148.282 160.58 150.857 160.58 152.089C160.58 155.223 161.084 158.19 162.091 160.989C163.603 162.052 165.226 162.892 166.961 163.62C169.033 164.459 171.216 165.019 173.567 165.299C171.216 163.508 165.058 157.966 163.211 148.898Z" fill="#191346"></path>
<path d="M164.779 134.624C165.114 134.176 166.794 132.273 169.425 130.258C170.6 129.362 171.72 128.69 172.559 128.187C170.04 128.243 165.058 128.69 159.741 131.769C155.486 134.232 152.799 137.367 151.456 139.27C151.456 139.606 151.456 139.998 151.456 140.334C151.456 142.125 151.624 143.86 151.96 145.539C152.24 146.883 152.632 148.226 153.079 149.514C153.191 149.794 153.303 150.018 153.359 150.297C154.143 152.145 155.095 153.824 156.214 155.391C156.886 156.287 157.613 157.294 158.789 158.358C159.293 158.806 159.741 159.142 160.076 159.422C159.741 158.47 159.349 157.127 159.069 155.559C158.733 153.32 158.789 151.585 158.845 150.409C158.901 149.29 159.013 147.051 159.741 144.364C160.188 142.629 161.476 138.598 164.779 134.624Z" fill="#191346"></path>
<path d="M173.511 125.892C173.959 125.892 174.351 125.892 174.407 125.892C176.87 126.004 178.717 126.451 179.501 126.675C181.796 127.291 183.643 128.131 185.042 128.914C183.587 127.851 181.18 126.172 178.381 125.108C177.542 124.772 176.702 124.492 176.59 124.492C174.575 123.876 173.007 123.653 172.056 123.485C170.768 123.317 169.817 123.261 169.425 123.205C169.089 123.205 168.753 123.205 168.361 123.205C165.003 123.205 162.036 124.044 162.036 124.044C159.069 124.884 156.774 126.283 155.319 127.403C154.647 128.131 153.919 129.138 153.304 130.37C152.072 132.721 151.68 134.904 151.568 136.359C152.968 134.512 155.151 132.105 158.453 130.034C159.293 129.53 161.868 127.963 165.563 126.955C165.563 126.899 169.313 125.892 173.511 125.892Z" fill="#191346"></path>
<path d="M193.215 156.287L191.536 154.608L188.289 151.361C186.946 152.76 185.379 153.824 183.531 154.608C181.684 155.391 179.501 155.783 177.038 155.783C174.911 155.783 172.952 155.391 171.161 154.663C169.369 153.936 167.858 152.872 166.57 151.529C166.291 151.249 166.067 150.969 165.843 150.689C167.802 156.959 172 162.22 177.486 165.635C180.509 165.579 183.252 165.187 185.715 164.459C186.33 164.236 187.002 164.068 187.562 163.788C188.345 163.452 189.129 163.06 189.913 162.668C191.984 161.549 193.887 160.261 195.622 158.638L193.215 156.287Z" fill="#191346"></path>
<path d="M163.211 149.01C162.819 147.107 162.707 145.26 162.707 145.26C162.651 143.468 162.763 142.013 162.987 140.893C162.259 142.629 161.756 144.14 161.476 145.26C160.636 148.394 160.58 150.969 160.58 152.201C160.58 155.335 161.084 158.302 162.091 161.101C163.603 162.165 165.226 163.004 166.961 163.732C169.033 164.572 171.216 165.131 173.567 165.411C171.216 163.564 165.058 158.078 163.211 149.01Z" fill="#191346"></path>
<path d="M164.779 134.736C165.114 134.288 166.794 132.385 169.425 130.37C170.6 129.474 171.72 128.802 172.559 128.299C170.04 128.354 165.058 128.802 159.741 131.881C155.486 134.344 152.799 137.479 151.456 139.382C151.456 139.718 151.456 140.11 151.456 140.445C151.456 142.237 151.624 143.972 151.96 145.651C152.24 146.995 152.632 148.338 153.079 149.626C153.191 149.906 153.303 150.129 153.359 150.409C154.143 152.257 155.095 153.936 156.214 155.503C156.886 156.399 157.613 157.406 158.789 158.47C159.293 158.918 159.741 159.254 160.076 159.534C159.741 158.582 159.349 157.238 159.069 155.671C158.733 153.432 158.789 151.697 158.845 150.521C158.901 149.402 159.013 147.163 159.741 144.476C160.188 142.685 161.476 138.654 164.779 134.736Z" fill="#191346"></path>
<path d="M173.511 126.004C173.959 126.004 174.351 126.004 174.407 126.004C176.87 126.116 178.717 126.563 179.501 126.787C181.796 127.403 183.643 128.243 185.042 129.026C183.587 127.963 181.18 126.284 178.381 125.22C177.542 124.884 176.702 124.604 176.59 124.604C174.575 123.988 173.007 123.765 172.056 123.597C170.768 123.429 169.817 123.373 169.425 123.317C169.089 123.317 168.753 123.317 168.361 123.317C165.003 123.317 162.036 124.156 162.036 124.156C159.069 124.996 156.774 126.395 155.319 127.515C154.647 128.243 153.919 129.25 153.304 130.482C152.072 132.833 151.68 135.016 151.568 136.471C152.968 134.624 155.151 132.217 158.453 130.146C159.293 129.642 161.868 128.075 165.563 127.067C165.619 126.955 169.313 125.948 173.511 126.004Z" fill="#191346"></path>
<path d="M171.272 121.358C172.168 121.47 173.064 121.581 173.903 121.805C176.254 122.309 178.325 123.149 179.781 123.821C180.9 124.324 181.628 124.772 181.964 124.996C182.132 125.108 182.356 125.22 182.524 125.332C183.699 126.06 184.651 126.843 185.154 127.235C185.77 127.683 186.218 128.075 186.554 128.411C187.114 128.914 187.561 129.362 187.897 129.698C188.233 129.362 188.569 129.026 188.905 128.635L190.528 127.011L192.32 125.164L194.111 123.373L195.174 122.253C192.935 120.07 190.248 118.391 187.226 117.103C186.218 116.712 185.21 116.376 184.147 116.096C182.803 115.76 181.404 115.536 179.949 115.368C178.941 115.256 177.934 115.256 176.87 115.256C173.231 115.256 169.817 115.872 166.738 117.159C163.603 118.447 160.917 120.182 158.622 122.477C158.286 122.813 158.006 123.149 157.67 123.485C160.917 122.029 164.499 121.246 168.25 121.246C169.369 121.246 170.377 121.302 171.272 121.358Z" fill="#191346"></path>
<g opacity="0.2">
<path d="M193.271 156.175L191.592 154.496L188.345 151.249C187.002 152.649 185.434 153.712 183.587 154.496C181.74 155.279 179.557 155.671 177.094 155.671C174.967 155.671 173.007 155.279 171.216 154.552C169.425 153.824 167.914 152.76 166.626 151.417C166.346 151.137 166.122 150.857 165.898 150.577C167.858 156.847 172.056 162.109 177.542 165.523C180.564 165.467 183.307 165.075 185.77 164.348C186.386 164.124 187.058 163.956 187.617 163.676C188.401 163.34 189.185 162.948 189.968 162.556C192.04 161.437 193.943 160.149 195.678 158.526L193.271 156.175Z" fill="#191346"></path>
<path d="M163.267 148.842C162.875 146.939 162.763 145.092 162.763 145.092C162.707 143.301 162.819 141.845 163.043 140.726C162.315 142.461 161.811 143.972 161.531 145.092C160.692 148.227 160.636 150.801 160.636 152.033C160.636 155.168 161.14 158.134 162.147 160.933C163.658 161.997 165.282 162.836 167.017 163.564C169.088 164.404 171.271 164.964 173.622 165.243C171.215 163.452 165.114 157.966 163.267 148.842Z" fill="#191346"></path>
<path d="M164.779 134.568C165.114 134.12 166.794 132.217 169.425 130.202C170.6 129.306 171.72 128.634 172.559 128.131C170.04 128.187 165.058 128.634 159.741 131.713C155.486 134.176 152.799 137.311 151.456 139.214C151.456 139.55 151.456 139.942 151.456 140.278C151.456 142.069 151.624 143.804 151.96 145.483C152.24 146.827 152.632 148.17 153.079 149.458C153.191 149.738 153.303 149.962 153.359 150.241C154.143 152.089 155.095 153.768 156.214 155.335C156.886 156.231 157.613 157.239 158.789 158.302C159.293 158.75 159.741 159.086 160.076 159.366C159.741 158.414 159.349 157.071 159.069 155.503C158.733 153.264 158.789 151.529 158.845 150.353C158.901 149.234 159.013 146.995 159.741 144.308C160.188 142.573 161.476 138.542 164.779 134.568Z" fill="#191346"></path>
<path d="M173.51 125.836C173.958 125.836 174.35 125.836 174.406 125.836C176.869 125.948 178.716 126.396 179.5 126.619C181.795 127.235 183.642 128.075 185.041 128.859C183.586 127.795 181.179 126.116 178.38 125.052C177.541 124.716 176.701 124.436 176.589 124.436C174.574 123.821 173.006 123.597 172.055 123.429C170.767 123.261 169.816 123.205 169.424 123.149C169.088 123.149 168.752 123.149 168.36 123.149C165.002 123.149 162.035 123.989 162.035 123.989C159.068 124.828 156.773 126.228 155.318 127.347C154.646 128.075 153.918 129.082 153.303 130.314C152.071 132.665 151.679 134.848 151.567 136.303C152.967 134.456 155.15 132.049 158.453 129.978C159.292 129.474 161.867 127.907 165.562 126.899C165.618 126.843 169.312 125.836 173.51 125.836Z" fill="#191346"></path>
</g>
<g opacity="0.5">
<path d="M154.368 140.446C154.48 133.336 157.782 126.843 163.604 122.701C165.787 121.134 163.66 117.495 161.477 119.062C154.424 124.1 150.337 131.713 150.17 140.39C150.114 143.132 154.312 143.132 154.368 140.446Z" fill="#DEF2FB"></path>
</g>
<path d="M148.041 66.2203C148.041 66.2203 140.149 35.3212 133.655 25.4133C127.722 16.3451 118.822 27.2605 105.163 27.3165C91.505 27.3165 82.6047 16.401 76.6712 25.4133C70.1779 35.2652 62.2852 66.2203 62.2852 66.2203C75.8315 73.1055 103.932 72.3778 105.219 72.3218C106.395 72.3778 134.495 73.0495 148.041 66.2203Z" fill="#191346"></path>
<path d="M148.041 66.2204C134.495 73.1056 106.394 72.3779 105.107 72.3219C103.82 72.3779 75.7192 73.0496 62.1729 66.2204C62.1729 66.2204 63.2924 61.8542 65.0277 55.9207C79.3017 61.4624 103.931 60.8467 105.107 60.7907C106.338 60.8467 130.912 61.4624 145.186 55.9207C146.922 61.8542 148.041 66.2204 148.041 66.2204Z" fill="#686899"></path>
<path d="M178.773 72.3218C178.773 72.3778 178.773 72.3778 178.773 72.4338C178.773 72.4897 178.773 72.4897 178.717 72.5457C178.661 72.7136 178.549 72.9375 178.381 73.1055C178.325 73.1615 178.325 73.2174 178.269 73.2174C177.989 73.5533 177.597 73.9451 177.037 74.337C176.981 74.3929 176.925 74.4489 176.813 74.5049C176.086 75.0647 175.19 75.7364 174.127 76.4081C173.847 76.576 173.623 76.744 173.343 76.9119C173.231 76.9679 173.063 77.0798 172.895 77.1918C172.615 77.3597 172.279 77.5276 171.999 77.6956C171.216 78.1434 170.32 78.6472 169.369 79.095C168.921 79.3189 168.473 79.5428 168.025 79.7667C167.745 79.8787 167.521 80.0466 167.241 80.1585C167.073 80.2705 166.85 80.3265 166.626 80.4384C166.234 80.6064 165.786 80.8303 165.394 80.9982C165.17 81.1101 164.946 81.1661 164.778 81.2781C163.267 81.9498 161.7 82.6775 159.964 83.3492C159.293 83.6291 158.565 83.909 157.837 84.1889C157.781 84.1889 157.725 84.2448 157.669 84.2448C157.166 84.4128 156.718 84.6367 156.214 84.8046C155.934 84.9166 155.71 85.0285 155.43 85.0845C154.871 85.2524 154.367 85.4763 153.807 85.6443C152.296 86.204 150.728 86.7078 149.105 87.2116C148.993 87.2676 148.825 87.2676 148.713 87.3236C148.097 87.4915 147.538 87.6594 146.922 87.8833C150.336 86.7638 181.907 76.0722 171.328 72.1539C160.3 68.0676 139.477 69.1871 138.917 69.1871C138.917 69.1871 137.91 64.4851 136.566 58.1597C136.23 56.6483 135.894 55.025 135.559 53.4017C138.861 54.1294 142.052 54.913 145.075 55.7527C146.418 56.1445 147.762 56.5364 149.105 56.9282C149.553 57.0402 149.945 57.2081 150.392 57.32C150.952 57.488 151.456 57.6559 152.016 57.8238C152.408 57.9358 152.799 58.1037 153.191 58.2157C153.527 58.3276 153.863 58.4396 154.199 58.5515C154.423 58.6635 154.703 58.7195 154.927 58.8314C157.445 59.727 159.797 60.6786 161.98 61.5743C162.315 61.7422 162.651 61.8542 162.987 62.0221C163.155 62.0781 163.323 62.19 163.547 62.246C164.107 62.4699 164.611 62.6938 165.114 62.9737C165.282 63.0297 165.45 63.1416 165.618 63.1976C165.786 63.2536 165.954 63.3655 166.122 63.4215C166.29 63.4775 166.458 63.5894 166.626 63.6454C167.465 64.0372 168.193 64.4291 168.977 64.8209C169.425 65.0448 169.872 65.2687 170.264 65.4926C170.544 65.6606 170.824 65.7725 171.048 65.9405C171.272 66.0524 171.552 66.2203 171.776 66.3323C171.887 66.4442 172.055 66.5002 172.167 66.5562C172.279 66.6122 172.391 66.7241 172.503 66.7801C173.455 67.3399 174.294 67.8996 175.078 68.4034C175.19 68.5154 175.358 68.5714 175.47 68.6833C175.526 68.6833 175.582 68.7393 175.582 68.7953C175.694 68.8512 175.75 68.9072 175.806 68.9632C176.086 69.1311 176.31 69.2991 176.478 69.523C176.646 69.6349 176.813 69.8029 176.981 69.9148C177.317 70.1947 177.597 70.4746 177.821 70.6985C177.877 70.7545 177.933 70.8104 177.989 70.8664C178.325 71.2023 178.493 71.5381 178.549 71.818C178.549 71.874 178.549 71.874 178.549 71.93C178.773 72.2658 178.773 72.2658 178.773 72.3218Z" fill="#111128"></path>
<path d="M148.042 66.2203C147.034 66.724 145.915 67.2278 144.683 67.6756C144.291 67.8436 143.899 67.9555 143.508 68.1235C142.108 68.6273 140.597 69.0191 139.029 69.4109C139.029 69.4109 138.022 64.7089 136.678 58.3835C136.343 56.8721 136.007 55.2488 135.671 53.6255C133.32 42.766 130.409 29.8354 129.401 27.3724C127.666 23.0062 124.14 22.3905 124.14 22.3905C124.308 22.3345 124.476 22.2785 124.587 22.2785C124.699 22.2225 124.867 22.2225 124.979 22.1666C125.035 22.1666 125.091 22.1666 125.091 22.1666C125.315 22.1106 125.539 22.0546 125.707 22.0546C125.987 21.9986 126.267 21.9427 126.603 21.9427C126.715 21.9427 126.827 21.9427 126.938 21.8867C129.513 21.7188 131.752 22.5584 133.656 25.4692C133.712 25.5811 133.768 25.6371 133.824 25.7491C133.88 25.861 133.936 25.973 133.992 26.029C134.887 27.4844 135.783 29.3316 136.734 31.4027C136.958 31.8505 137.126 32.3543 137.35 32.8581C137.462 33.082 137.574 33.3619 137.686 33.5858C138.526 35.601 139.365 37.8401 140.149 40.0791C140.261 40.359 140.317 40.5829 140.429 40.8628C140.653 41.4785 140.821 42.0383 141.045 42.654C141.269 43.2138 141.436 43.7736 141.604 44.3893C142.164 46.1246 142.724 47.8599 143.228 49.5392C143.396 50.099 143.564 50.6587 143.732 51.2185C143.899 51.7783 144.067 52.338 144.235 52.8418C144.571 53.9054 144.851 54.9689 145.131 55.9205C145.355 56.6482 145.579 57.3759 145.747 58.0476C145.859 58.4955 146.027 58.9433 146.139 59.3911C146.139 59.503 146.194 59.615 146.25 59.727C146.922 62.078 147.426 63.9252 147.706 65.0447C147.706 65.1007 147.762 65.2127 147.762 65.2686C147.818 65.3806 147.818 65.5485 147.874 65.6605C147.986 65.9963 148.042 66.2203 148.042 66.2203Z" fill="#111128"></path>
<path d="M147.985 66.2202C146.977 66.724 145.858 67.2278 144.682 67.6756C144.291 67.8436 143.899 67.9555 143.507 68.1234C142.107 68.6272 140.596 69.0191 139.029 69.4109C139.029 69.4109 138.021 64.7089 136.678 58.3835C139.7 57.7678 142.611 56.9841 145.186 55.9765C145.41 56.7042 145.634 57.4319 145.802 58.1036C145.914 58.5514 146.082 58.9992 146.194 59.4471C146.194 59.559 146.25 59.671 146.306 59.7829C146.977 62.1339 147.425 63.9812 147.761 65.1007C147.761 65.1567 147.817 65.2686 147.817 65.3246C147.873 65.4366 147.873 65.6045 147.929 65.7165C147.985 65.9963 147.985 66.2202 147.985 66.2202Z" fill="#52537B"></path>
<defs>
<linearGradient id="paint0_linear_531_420" x1="106.453" y1="0" x2="106.453" y2="237.408" gradientUnits="userSpaceOnUse">
<stop stop-color="#313149"></stop>
<stop offset="1" stop-color="#313149" stop-opacity="0.5"></stop>
</linearGradient>
</defs>
</svg>
