<svg width="215" height="214" viewBox="0 0 215 214" fill="none" xmlns="http://www.w3.org/2000/svg">
<rect width="212.906" height="212.906" rx="106.453" fill="url('#paint0_linear_531_508')"></rect>
<path d="M69.9045 145.105L46.4503 147.904C35.2549 149.247 27.81 160.107 30.6088 171.022L41.4683 213.173H75.2223L60.6683 189.942L66.4899 181.546L56.9739 178.075L69.9045 145.105Z" fill="#2C2C2D"></path>
<path d="M83.5066 138.892C83.5066 138.892 77.3492 139.395 71.5836 140.851L56.9736 178.075L66.4897 181.546L60.6681 189.942L75.1661 213.173H91.2874L78.1328 144.153L84.0104 140.851L83.5066 138.892Z" fill="#58585A"></path>
<path d="M106.793 161.338V213.117H91.3433L80.092 154.285L78.1328 144.153L84.0104 140.851L104.554 156.972C105.226 157.476 105.785 158.148 106.177 158.931C106.569 159.659 106.737 160.499 106.793 161.338Z" fill="#E7E6EE"></path>
<path d="M83.7866 139.955L76.0059 142.53L87.0333 213.173H91.2875L78.133 144.153L84.0105 140.795L83.7866 139.955Z" fill="#444444"></path>
<path d="M69.5688 145.161L54.623 179.027L65.4825 183.057L66.4901 181.546L56.9741 178.019L69.9047 145.105L69.5688 145.161Z" fill="#1E1E1E"></path>
<path d="M65.9854 181.322L66.4892 181.546L60.6677 189.942L75.1656 213.173H71.5831L59.3242 190.502L65.9854 181.322Z" fill="#1E1E1E"></path>
<path d="M143.681 145.105L167.135 147.904C178.331 149.247 185.776 160.107 182.977 171.022L172.117 213.173H138.363L152.861 189.942L147.04 181.546L156.556 178.075L143.681 145.105Z" fill="#2C2C2D"></path>
<path d="M135.453 95.6775C127.112 97.1889 117.428 98.0845 107.129 98.0845H106.793H106.457C96.1013 98.0845 86.4174 97.1889 78.1328 95.6775C74.5503 95.0058 71.1917 94.2221 68.1689 93.3265L68.7847 97.9725L69.4564 103.066L70.2961 109.672L70.52 111.407C71.9194 119.636 75.1101 126.241 79.5322 131.223C80.2599 132.006 80.9876 132.79 81.7713 133.462C81.9952 133.63 82.1631 133.798 82.387 133.966C88.9363 139.731 97.5007 142.642 106.793 142.642H106.905H107.017C116.309 142.642 124.873 139.731 131.423 133.966C131.647 133.798 131.814 133.63 132.038 133.462C132.822 132.734 133.55 132.006 134.277 131.223C138.7 126.241 141.89 119.636 143.29 111.407L143.514 109.672L144.353 103.066L145.025 97.9725L145.641 93.3265C142.394 94.2221 139.091 95.0058 135.453 95.6775Z" fill="#F6C781"></path>
<path d="M160.363 126.745L160.139 128.032C159.244 133.294 154.71 137.156 149.392 137.324L130.304 137.828L130.752 135.981L131.255 134.078C131.423 133.91 131.647 133.742 131.871 133.574C132.655 132.846 133.382 132.118 134.11 131.335C138.532 126.353 141.723 119.748 143.122 111.519L143.346 109.784L143.402 109.336L143.626 107.601L144.186 103.179L144.466 100.939L144.858 98.0286L145.473 93.3826C145.641 93.3266 145.809 93.2706 145.977 93.2146C146.145 93.1587 146.313 93.1027 146.425 93.0467C147.601 92.7109 148.72 92.319 149.784 91.9272C150.063 91.8152 150.343 91.7033 150.567 91.6473C150.903 91.5353 151.183 91.4234 151.519 91.3114C151.743 91.1995 151.967 91.1435 152.135 91.0316L152.247 95.4537L152.359 98.6444L153.086 122.938C153.142 125.513 155.381 127.416 157.956 127.137L160.363 126.745Z" fill="#634027"></path>
<path d="M130.08 135.029C129.856 135.197 129.688 135.365 129.464 135.533C129.24 135.701 129.016 135.869 128.848 135.981C128.624 136.149 128.401 136.317 128.233 136.429C127.785 136.708 127.337 137.044 126.889 137.268C126.665 137.38 126.441 137.548 126.217 137.66C126.05 137.772 125.882 137.828 125.714 137.94C125.658 137.996 125.546 138.052 125.49 138.052C125.042 138.276 124.594 138.5 124.146 138.724C123.698 138.948 123.195 139.171 122.691 139.395C122.467 139.507 122.187 139.619 121.963 139.731C121.739 139.843 121.459 139.955 121.236 140.011C121.012 140.123 120.732 140.179 120.508 140.291C120.284 140.403 120.004 140.459 119.78 140.571C119.5 140.627 119.276 140.739 118.996 140.795C117.205 141.355 115.414 141.802 113.511 142.082C112.447 142.25 111.328 142.362 110.264 142.474C109.704 142.53 109.145 142.53 108.585 142.586C108.193 142.586 107.745 142.586 107.353 142.586C107.185 142.586 107.017 142.586 106.905 142.586H106.794H106.682C106.402 142.586 106.122 142.586 105.786 142.586C105.562 142.586 105.282 142.586 105.058 142.586C104.946 142.586 104.89 142.586 104.778 142.586C104.554 142.586 104.331 142.586 104.107 142.53C103.883 142.53 103.659 142.474 103.379 142.474C103.267 142.474 103.211 142.474 103.099 142.474C102.931 142.474 102.763 142.474 102.595 142.418C94.8705 141.69 87.7614 138.892 82.2197 133.966L82.4996 135.085L83.955 140.795L104.498 156.916C105.17 157.42 105.73 158.092 106.122 158.875C106.514 159.659 106.738 160.499 106.738 160.834C106.738 160.443 106.961 159.603 107.353 158.875C107.745 158.148 108.305 157.476 108.977 156.916L129.52 140.795L129.968 139.06L131.255 134.022C130.919 134.357 130.472 134.693 130.08 135.029Z" fill="#D39D67"></path>
<path d="M130.024 138.892C130.024 138.892 136.181 139.395 141.947 140.851L156.557 178.075L147.041 181.546L152.862 189.942L138.364 213.173H122.243L135.398 144.153L129.52 140.795L130.024 138.892Z" fill="#58585A"></path>
<path d="M106.793 161.338V213.117H122.243L133.494 154.285L135.453 144.153L129.52 140.795L108.976 156.916C108.304 157.42 107.745 158.092 107.353 158.875C106.961 159.659 106.793 160.499 106.793 161.338Z" fill="#E7E6EE"></path>
<path d="M129.744 139.955L137.525 142.53L126.497 213.173H122.243L135.398 144.153L129.52 140.795L129.744 139.955Z" fill="#444444"></path>
<path d="M143.962 145.161L158.907 179.027L148.048 183.057L147.04 181.546L156.556 178.019L143.682 145.105L143.962 145.161Z" fill="#1E1E1E"></path>
<path d="M147.543 181.322L147.04 181.546L152.861 189.942L138.363 213.173H141.946L154.205 190.502L147.543 181.322Z" fill="#1E1E1E"></path>
<path d="M129.519 140.795L108.976 156.916C108.304 157.42 107.744 158.092 107.353 158.875C106.961 159.603 106.737 160.443 106.737 161.338C106.737 160.499 106.513 159.659 106.121 158.875C105.729 158.148 105.17 157.476 104.498 156.916L84.0104 140.795L78.1328 144.097L80.092 154.229L91.3433 213.061H93.5824L82.6669 159.827C83.3946 161.282 84.2343 162.738 85.1299 164.193C85.9136 165.481 86.8092 166.768 87.7048 167.944L89.2162 169.679L89.9439 167.552C90.5037 165.649 91.7911 163.969 92.7427 162.234C94.1981 159.715 96.4372 157.42 99.236 157.42C100.747 157.42 101.811 157.756 103.714 159.491L106.793 162.682L109.872 159.491C111.775 157.756 112.838 157.42 114.35 157.42C117.093 157.42 119.388 159.715 120.843 162.234C121.851 163.969 123.082 165.649 123.642 167.552L124.37 169.679L125.881 167.944C126.777 166.712 127.672 165.481 128.456 164.193C129.352 162.738 130.191 161.282 130.919 159.827L120.003 213.173H122.242L133.494 154.341L135.453 144.209L129.519 140.795Z" fill="#BCBCC8"></path>
<path d="M108.416 159.491L106.793 161.338L105.114 159.491H104.666V213.173H106.793H108.864V159.491H108.416Z" fill="#BCBCC8"></path>
<path d="M207.887 125.009H193.893C190.758 125.009 188.184 127.584 188.184 130.719V137.436H155.325V213.173H214.381V137.436V131.559C214.381 127.976 211.47 125.009 207.887 125.009Z" fill="#8193C5"></path>
<path d="M196.859 183.393L195.572 182.106L193.053 179.587C192.045 180.65 190.814 181.49 189.415 182.106C188.015 182.721 186.336 183.001 184.433 183.001C182.809 183.001 181.298 182.721 179.954 182.162C178.611 181.602 177.436 180.818 176.428 179.755C176.204 179.531 176.036 179.307 175.868 179.083C177.38 183.897 180.626 187.927 184.824 190.558C187.119 190.558 189.247 190.222 191.15 189.663C191.654 189.495 192.101 189.327 192.605 189.159C193.221 188.879 193.837 188.599 194.396 188.319C196.02 187.479 197.475 186.472 198.763 185.24L196.859 183.393Z" fill="#E7E6EE"></path>
<path d="M180.011 156.58C180.683 156.636 181.355 156.748 182.026 156.916C183.818 157.308 185.385 157.924 186.561 158.484C187.4 158.875 188.016 159.211 188.24 159.379C188.408 159.491 188.52 159.547 188.688 159.659C189.583 160.219 190.311 160.835 190.703 161.114C191.207 161.506 191.487 161.786 191.766 162.01C192.214 162.402 192.55 162.738 192.774 163.018C193.054 162.738 193.278 162.514 193.558 162.234L194.789 160.947L196.189 159.547L197.588 158.148L198.428 157.308C196.692 155.629 194.677 154.341 192.326 153.39C191.598 153.054 190.759 152.83 189.975 152.606C188.968 152.326 187.904 152.158 186.728 152.046C185.945 151.99 185.161 151.934 184.377 151.934C181.579 151.934 179.004 152.438 176.597 153.39C174.19 154.341 172.119 155.741 170.327 157.476C170.103 157.7 169.824 157.98 169.6 158.204C172.119 157.084 174.861 156.468 177.772 156.468C178.556 156.468 179.284 156.524 180.011 156.58Z" fill="#E7E6EE"></path>
<path d="M173.853 177.795C173.573 176.34 173.462 174.941 173.462 174.941C173.406 173.597 173.517 172.422 173.629 171.582C173.07 172.869 172.678 174.045 172.454 174.941C171.838 177.348 171.782 179.363 171.782 180.258C171.782 182.665 172.174 184.96 172.958 187.088C174.133 187.871 175.365 188.543 176.708 189.103C178.276 189.774 180.011 190.166 181.746 190.39C179.955 188.991 175.253 184.737 173.853 177.795Z" fill="#E7E6EE"></path>
<path d="M175.029 166.824C175.309 166.488 176.54 164.977 178.611 163.465C179.507 162.794 180.347 162.234 181.018 161.898C179.115 161.954 175.253 162.29 171.167 164.641C167.864 166.544 165.849 168.895 164.785 170.406C164.785 170.686 164.785 170.966 164.785 171.19C164.785 172.59 164.897 173.877 165.177 175.164C165.401 176.228 165.681 177.236 166.073 178.187C166.129 178.411 166.241 178.579 166.297 178.803C166.912 180.202 167.64 181.49 168.48 182.721C168.983 183.449 169.543 184.177 170.439 185.016C170.831 185.352 171.166 185.632 171.39 185.8C171.111 185.072 170.831 184.065 170.607 182.833C170.327 181.098 170.383 179.811 170.439 178.859C170.495 177.963 170.551 176.284 171.111 174.213C171.502 172.925 172.51 169.847 175.029 166.824Z" fill="#E7E6EE"></path>
<path d="M181.746 160.107C182.082 160.107 182.418 160.107 182.418 160.107C184.321 160.163 185.721 160.554 186.337 160.666C188.072 161.114 189.527 161.786 190.591 162.402C189.471 161.562 187.624 160.331 185.441 159.491C184.769 159.211 184.153 159.043 184.097 159.043C182.586 158.595 181.355 158.371 180.627 158.315C179.619 158.203 178.948 158.147 178.612 158.147C178.332 158.147 178.052 158.147 177.828 158.147C175.253 158.147 172.958 158.763 172.958 158.763C170.663 159.435 168.928 160.498 167.808 161.338C167.304 161.898 166.745 162.682 166.241 163.633C165.289 165.424 165.009 167.104 164.897 168.223C165.961 166.824 167.64 164.921 170.159 163.353C170.831 162.961 172.79 161.73 175.645 160.946C175.645 160.89 178.5 160.107 181.746 160.107Z" fill="#E7E6EE"></path>
<path d="M196.859 183.449L195.572 182.162L193.053 179.643C192.045 180.706 190.814 181.546 189.415 182.162C188.015 182.777 186.336 183.057 184.433 183.057C182.809 183.057 181.298 182.777 179.954 182.218C178.611 181.658 177.436 180.874 176.428 179.811C176.204 179.587 176.036 179.363 175.868 179.139C177.38 183.953 180.626 187.983 184.824 190.614C187.119 190.614 189.247 190.278 191.15 189.718C191.654 189.551 192.101 189.383 192.605 189.215C193.221 188.935 193.837 188.655 194.396 188.375C196.02 187.535 197.475 186.528 198.763 185.296L196.859 183.449Z" fill="#E7E6EE"></path>
<path d="M173.853 177.851C173.573 176.396 173.462 174.997 173.462 174.997C173.406 173.653 173.517 172.478 173.629 171.638C173.07 172.926 172.678 174.101 172.454 174.997C171.838 177.404 171.782 179.419 171.782 180.37C171.782 182.777 172.174 185.072 172.958 187.2C174.133 187.983 175.365 188.655 176.708 189.215C178.276 189.886 180.011 190.278 181.746 190.502C179.955 189.047 175.253 184.849 173.853 177.851Z" fill="#E7E6EE"></path>
<path d="M175.029 166.88C175.309 166.544 176.54 165.033 178.611 163.521C179.507 162.85 180.347 162.29 181.018 161.954C179.115 162.01 175.253 162.346 171.167 164.697C167.864 166.6 165.849 168.951 164.785 170.463C164.785 170.742 164.785 171.022 164.785 171.246C164.785 172.646 164.897 173.989 165.177 175.221C165.401 176.284 165.681 177.292 166.073 178.243C166.129 178.467 166.241 178.635 166.297 178.859C166.912 180.258 167.64 181.546 168.48 182.777C168.983 183.505 169.543 184.233 170.439 185.072C170.831 185.408 171.167 185.688 171.446 185.912C171.167 185.184 170.887 184.177 170.663 182.945C170.383 181.21 170.439 179.923 170.495 178.971C170.551 178.075 170.607 176.396 171.167 174.325C171.502 173.037 172.51 169.903 175.029 166.88Z" fill="#E7E6EE"></path>
<path d="M181.746 160.163C182.082 160.163 182.418 160.163 182.418 160.163C184.321 160.219 185.721 160.611 186.337 160.723C188.072 161.17 189.527 161.842 190.591 162.458C189.471 161.618 187.624 160.387 185.441 159.547C184.769 159.267 184.153 159.099 184.097 159.099C182.586 158.651 181.355 158.427 180.627 158.371C179.619 158.26 178.948 158.204 178.612 158.204C178.332 158.204 178.052 158.204 177.828 158.204C175.253 158.204 172.958 158.819 172.958 158.819C170.663 159.491 168.928 160.555 167.808 161.394C167.304 161.954 166.745 162.738 166.241 163.689C165.289 165.481 165.009 167.16 164.897 168.279C165.961 166.88 167.64 164.977 170.159 163.409C170.831 163.018 172.79 161.786 175.645 161.002C175.645 160.946 178.5 160.163 181.746 160.163Z" fill="#E7E6EE"></path>
<path d="M180.011 156.636C180.683 156.692 181.355 156.804 182.026 156.972C183.818 157.364 185.385 157.98 186.561 158.539C187.4 158.931 188.016 159.267 188.24 159.435C188.408 159.547 188.52 159.603 188.688 159.715C189.583 160.275 190.311 160.89 190.703 161.17C191.207 161.562 191.487 161.842 191.766 162.066C192.214 162.458 192.55 162.794 192.774 163.074C193.054 162.794 193.278 162.57 193.558 162.29L194.789 161.002L196.189 159.603L197.588 158.204L198.428 157.364C196.692 155.685 194.677 154.397 192.326 153.446C191.598 153.11 190.759 152.886 189.975 152.662C188.968 152.382 187.904 152.214 186.728 152.102C185.945 152.046 185.161 151.99 184.377 151.99C181.579 151.99 179.004 152.494 176.597 153.446C174.19 154.397 172.119 155.797 170.327 157.532C170.103 157.756 169.824 158.036 169.6 158.26C172.119 157.14 174.861 156.524 177.772 156.524C178.556 156.524 179.284 156.58 180.011 156.636Z" fill="#E7E6EE"></path>
<g opacity="0.2">
<path d="M196.916 183.337L195.629 182.05L193.11 179.531C192.102 180.594 190.871 181.434 189.471 182.05C188.072 182.665 186.392 182.945 184.489 182.945C182.866 182.945 181.355 182.665 180.011 182.106C178.668 181.546 177.492 180.762 176.485 179.699C176.261 179.475 176.093 179.251 175.925 179.027C177.436 183.841 180.683 187.871 184.881 190.502C187.176 190.502 189.303 190.166 191.206 189.607C191.71 189.439 192.158 189.271 192.662 189.103C193.278 188.823 193.893 188.543 194.453 188.263C196.076 187.423 197.532 186.416 198.819 185.184L196.916 183.337Z" fill="#E7E6EE"></path>
<path d="M173.853 177.74C173.573 176.284 173.462 174.885 173.462 174.885C173.406 173.541 173.517 172.366 173.629 171.526C173.07 172.814 172.678 173.989 172.454 174.885C171.838 177.292 171.782 179.307 171.782 180.259C171.782 182.666 172.174 184.961 172.958 187.088C174.133 187.871 175.365 188.543 176.708 189.103C178.276 189.775 180.011 190.166 181.746 190.39C180.011 188.935 175.253 184.737 173.853 177.74Z" fill="#E7E6EE"></path>
<path d="M175.029 166.768C175.309 166.432 176.54 164.921 178.611 163.409C179.507 162.738 180.347 162.178 181.018 161.842C179.115 161.898 175.253 162.234 171.167 164.585C167.864 166.488 165.849 168.839 164.785 170.351C164.785 170.63 164.785 170.91 164.785 171.134C164.785 172.534 164.897 173.877 165.177 175.109C165.401 176.172 165.681 177.18 166.073 178.131C166.129 178.355 166.241 178.523 166.297 178.747C166.912 180.146 167.64 181.434 168.48 182.665C168.983 183.393 169.543 184.121 170.439 184.96C170.831 185.296 171.167 185.576 171.446 185.8C171.167 185.072 170.887 184.065 170.663 182.833C170.383 181.098 170.439 179.811 170.495 178.859C170.551 177.963 170.607 176.284 171.167 174.213C171.502 172.925 172.51 169.791 175.029 166.768Z" fill="#E7E6EE"></path>
<path d="M181.746 160.107C182.082 160.107 182.418 160.107 182.418 160.107C184.321 160.163 185.721 160.555 186.337 160.667C188.072 161.114 189.527 161.786 190.591 162.402C189.471 161.562 187.624 160.331 185.441 159.491C184.769 159.211 184.153 159.043 184.097 159.043C182.586 158.595 181.355 158.371 180.627 158.316C179.619 158.204 178.948 158.148 178.612 158.148C178.332 158.148 178.052 158.148 177.828 158.148C175.253 158.148 172.958 158.763 172.958 158.763C170.663 159.435 168.928 160.499 167.808 161.338C167.304 161.898 166.745 162.682 166.241 163.633C165.289 165.425 165.009 167.104 164.897 168.223C165.961 166.824 167.64 164.921 170.159 163.353C170.831 162.962 172.79 161.73 175.645 160.946C175.645 160.834 178.5 160.051 181.746 160.107Z" fill="#E7E6EE"></path>
</g>
<path d="M207.048 126.409H204.529H203.017H193.893C192.214 126.409 190.926 127.752 190.926 129.376C190.926 131.055 192.27 132.342 193.893 132.342H200.051V137.38H155.325V138.836H203.073H204.361H207.048C210.014 138.836 212.421 136.429 212.421 133.462V131.727C212.421 128.816 210.014 126.409 207.048 126.409Z" fill="#5365A7"></path>
<path d="M208.727 208.807H160.419V143.482H208.727V208.807ZM161.538 207.687H207.607V144.601H161.538V207.687Z" fill="#E7E6EE"></path>
<path d="M161.371 151.207H160.699V143.762H168.536V144.041C168.536 148.016 165.289 151.207 161.371 151.207ZM161.259 150.647H161.371C164.897 150.647 167.808 147.848 167.976 144.321H161.315V150.647H161.259Z" fill="#E7E6EE"></path>
<path d="M208.447 208.527H160.699V196.604H208.447V208.527ZM161.259 207.967H207.888V197.164H161.259V207.967Z" fill="#E7E6EE"></path>
<path d="M161.371 204.105H160.699V196.66H168.536V196.94C168.536 200.858 165.289 204.105 161.371 204.105ZM161.259 203.545H161.371C164.897 203.545 167.808 200.746 167.976 197.219H161.315V203.545H161.259Z" fill="#E7E6EE"></path>
<path d="M208.447 163.297H201.282V143.762H208.447V163.297ZM201.842 162.738H207.887V144.321H201.842V162.738Z" fill="#E7E6EE"></path>
<path d="M208.447 197.22H206.04V196.66H208.167V196.828H208.447V197.22ZM203.801 197.22H201.282V196.492H201.842V196.66H203.801V197.22ZM208.447 194.589H207.887V192.35H208.447V194.589ZM201.842 194.253H201.282V192.014H201.842V194.253ZM208.447 190.11H207.887V187.871H208.447V190.11ZM201.842 189.775H201.282V187.536H201.842V189.775ZM208.447 185.632H207.887V183.393H208.447V185.632ZM201.842 185.296H201.282V183.057H201.842V185.296ZM208.447 181.154H207.887V178.915H208.447V181.154ZM201.842 180.818H201.282V178.579H201.842V180.818ZM208.447 176.676H207.887V174.437H208.447V176.676ZM201.842 176.34H201.282V174.101H201.842V176.34ZM208.447 172.198H207.887V169.959H208.447V172.198ZM201.842 171.862H201.282V169.623H201.842V171.862ZM208.447 167.72H207.887V165.481H208.447V167.72ZM201.842 167.384H201.282V165.145H201.842V167.384ZM208.167 163.298H206.152V162.738H208.447V163.242H208.167V163.298ZM203.913 163.298H201.674V162.738H203.913V163.298Z" fill="#E7E6EE"></path>
<path d="M208.448 208.527H207.272V207.967H207.888V206.903H208.448V208.527ZM205.033 208.527H202.794V207.967H205.033V208.527ZM200.555 208.527H198.316V207.967H200.555V208.527ZM196.077 208.527H193.838V207.967H196.077V208.527ZM191.599 208.527H189.36V207.967H191.599V208.527ZM187.121 208.527H184.602V206.12H185.161V207.967H187.121V208.527ZM208.448 204.72H207.888V202.481H208.448V204.72ZM185.161 203.881H184.602V201.642H185.161V203.881ZM208.448 200.242H207.888V198.003H208.448V200.242ZM185.161 199.403H184.602V197.163H185.161V199.403ZM206.992 197.219H204.753V196.66H206.992V197.219ZM202.514 197.219H200.275V196.66H202.514V197.219ZM198.036 197.219H195.797V196.66H198.036V197.219ZM193.558 197.219H191.319V196.66H193.558V197.219ZM189.08 197.219H186.841V196.66H189.08V197.219Z" fill="#E7E6EE"></path>
<path d="M143.29 109.616L143.066 111.407C140.379 127.081 131.311 136.82 119.5 140.683C135.565 135.141 137.077 114.206 136.741 103.626C137.58 105.138 138.7 106.425 140.155 107.433L143.29 109.616Z" fill="#D39D67"></path>
<path d="M150.008 134.525C147.377 134.581 145.194 132.51 145.25 129.879L145.529 103.122V100.659C148.048 100.044 150.399 99.372 152.415 98.5883L152.303 95.3976L152.191 90.9755C151.967 91.0314 151.799 91.1434 151.575 91.1994C151.239 91.3113 150.959 91.4233 150.623 91.5352C150.343 91.6472 150.119 91.7591 149.84 91.8151C148.776 92.207 147.656 92.5988 146.481 92.9346C146.313 92.9906 146.145 93.0466 146.033 93.1026C145.865 93.1586 145.697 93.2145 145.529 93.2705C143.458 93.8863 141.275 94.446 138.924 94.9498C138.756 95.0058 138.588 95.0058 138.42 95.0618C138.364 95.0618 138.252 95.1177 138.196 95.1177C137.805 95.2297 137.413 95.2857 137.021 95.3417H136.965C136.517 95.4536 136.069 95.5096 135.566 95.6215V98.4204C135.566 98.5323 135.566 98.6443 135.566 98.7562C135.566 98.8682 135.566 98.9801 135.566 99.0921V99.1481C135.566 99.26 135.566 99.316 135.566 99.428C135.566 99.5399 135.566 99.5959 135.566 99.7078C135.566 99.8198 135.622 99.9877 135.622 100.1C135.677 100.492 135.733 100.883 135.845 101.219C135.901 101.387 135.957 101.611 136.013 101.779C136.069 101.947 136.125 102.171 136.181 102.339C136.965 104.41 138.364 106.201 140.212 107.489L143.346 109.672L143.122 111.407C141.723 119.636 138.532 126.241 134.11 131.223C133.215 132.23 132.319 133.126 131.311 134.022L130.808 135.925L130.304 137.772L149.392 137.268C154.71 137.156 159.188 133.238 160.139 127.976L160.363 126.689C158.908 131.223 154.822 134.413 150.008 134.525Z" fill="#412A1C"></path>
<path d="M136.181 102.339C127.449 103.514 117.261 103.906 106.346 103.29H106.01H105.674C95.5982 102.731 86.1381 101.331 78.0215 99.3721C78.0775 99.0922 78.0775 98.7563 78.0775 98.4764V95.6776C86.418 97.189 96.102 98.0846 106.402 98.0846H107.129C117.485 98.0846 127.169 97.189 135.454 95.6776V98.4764C135.454 99.7639 135.733 101.107 136.181 102.339Z" fill="#D39D67"></path>
<path d="M106.793 161.339L106.85 161.282L106.793 161.339Z" fill="#D8D7E2"></path>
<path d="M131.311 134.022C131.087 134.19 130.919 134.357 130.695 134.525C130.471 134.693 130.303 134.861 130.079 135.029C129.855 135.197 129.687 135.365 129.463 135.533C129.24 135.701 129.016 135.869 128.848 135.981C128.624 136.149 128.4 136.317 128.232 136.429C127.784 136.708 127.336 137.044 126.888 137.268C126.665 137.38 126.441 137.548 126.217 137.66C126.049 137.772 125.881 137.884 125.713 137.94C125.657 137.996 125.545 138.052 125.489 138.052C125.041 138.276 124.593 138.5 124.146 138.724C123.698 138.948 123.194 139.171 122.69 139.395C122.466 139.507 122.186 139.619 121.963 139.731C121.739 139.843 121.459 139.955 121.235 140.011C121.011 140.123 120.731 140.179 120.507 140.291C120.283 140.403 120.003 140.459 119.779 140.571C119.5 140.683 119.276 140.739 118.996 140.795C118.772 140.851 118.548 140.907 118.324 141.019C116.981 141.411 115.581 141.746 114.182 141.97C113.958 142.026 113.734 142.026 113.454 142.082C112.894 142.138 112.391 142.25 111.831 142.306C111.271 142.362 110.767 142.418 110.207 142.474C109.648 142.53 109.088 142.53 108.528 142.586C108.304 142.586 108.024 142.586 107.8 142.586C107.465 142.586 107.129 142.586 106.793 142.586H106.737C106.401 142.586 106.065 142.586 105.729 142.586C105.505 142.586 105.225 142.586 105.002 142.586C104.89 142.586 104.834 142.586 104.722 142.586C104.498 142.586 104.274 142.586 104.05 142.53C103.826 142.53 103.602 142.474 103.322 142.474C103.21 142.474 103.154 142.474 103.042 142.474C102.874 142.474 102.707 142.474 102.539 142.418C94.8138 141.69 87.7048 138.892 82.1631 133.966L82.443 135.085C86.5293 138.5 95.0377 144.265 106.681 144.881C112.167 145.161 118.38 144.265 125.153 141.355L106.681 156.468L85.4097 141.914L104.498 156.916C105.17 157.42 105.729 158.092 106.121 158.875C106.513 159.659 106.737 160.499 106.737 161.338C106.737 160.499 106.961 159.659 107.353 158.875C107.744 158.148 108.304 157.476 108.976 156.916L129.519 140.795L129.967 139.06L131.311 134.022Z" fill="#BA804A"></path>
<path d="M86.4735 144.209L82.835 141.467L84.0105 140.795L85.4099 141.914V141.97L86.4735 144.209Z" fill="#D8D7E2"></path>
<path d="M153.534 68.8088C153.422 68.9208 153.31 69.0327 153.198 69.1447C151.463 70.6561 148.72 72.0555 145.082 73.287C140.604 74.7983 134.782 76.0298 128.065 76.8695C126.609 77.0374 125.042 77.2053 123.475 77.3733C122.467 77.4852 121.46 77.5412 120.396 77.6531C116.086 77.989 111.496 78.1569 106.794 78.1569C102.092 78.1569 97.5015 77.989 93.1913 77.6531C92.1277 77.5972 91.1201 77.4852 90.1126 77.3733C88.5452 77.2053 87.0338 77.0374 85.5225 76.8695C73.0396 75.3021 63.5796 72.3354 59.9971 68.8088L69.4012 44.7948C69.4012 44.7948 73.9353 39.7569 84.6828 35.9505C86.1942 35.3907 87.8175 34.8869 89.6088 34.4391C91.9598 33.8234 94.5907 33.2636 97.4455 32.8158C100.3 32.368 103.379 32.0321 106.738 31.9202C113.455 32.256 119.108 33.2076 123.867 34.4951C125.658 34.9429 127.281 35.5027 128.792 36.0065C139.54 39.8129 144.074 44.8508 144.074 44.8508L153.534 68.8088Z" fill="#DC9834"></path>
<path d="M161.763 84.7621C159.972 86.9452 156.893 88.9604 152.863 90.6957C142.619 95.1738 125.938 98.0846 107.13 98.0846H106.402C83.8432 98.0846 64.3633 93.8863 55.2951 87.8409C53.8397 86.8333 52.6642 85.8257 51.7686 84.7621L53.4479 74.9102L54.0076 71.5516C56.5826 74.4624 61.7324 77.0374 68.7855 79.0525C78.5814 81.8513 92.0158 83.5866 106.738 83.5866C121.46 83.5866 134.894 81.8513 144.69 79.0525C146.033 78.6607 147.321 78.2688 148.496 77.821C153.59 76.0298 157.397 73.9027 159.468 71.5516L161.763 84.7621Z" fill="#DC9834"></path>
<path d="M85.3545 40.9324C77.6857 44.403 74.3271 48.0415 74.3271 48.0415L66.7143 72.6712C63.5236 71.4957 61.1726 70.0403 59.9971 68.8088L69.4012 44.7948C69.4012 44.7948 73.9353 39.7569 84.6828 35.9505L85.3545 40.9324Z" fill="#F2D27D"></path>
<path d="M144.746 79.0525C134.95 81.8513 121.572 83.5866 106.794 83.5866C92.0158 83.5866 78.6374 81.8513 68.8415 79.0525C61.7884 77.0374 56.5826 74.4624 54.0076 71.5516L51.7686 84.7621C51.9925 84.986 52.2164 85.2659 52.4403 85.4898C52.4963 85.5458 52.4963 85.5458 52.5522 85.6018C52.7761 85.8257 53.056 86.1056 53.3359 86.3295L53.3919 86.3855C53.5038 86.4414 53.5598 86.5534 53.6718 86.6094C53.6158 86.5534 53.6158 86.5534 53.5598 86.4974C54.1196 86.9452 54.6793 87.393 55.3511 87.8409L57.1423 78.2129C60.0531 79.7802 63.6356 81.0117 68.2257 82.1312C78.6934 84.7062 92.4077 85.7697 106.794 85.21C121.18 84.6502 134.726 82.4111 144.97 79.0525C145.306 78.9406 145.642 78.8286 145.977 78.7167C145.53 78.7726 145.138 78.9406 144.746 79.0525Z" fill="#F2D27D"></path>
<path d="M161.763 84.7622L159.524 71.5517C158.181 70.6001 156.166 69.6485 153.535 68.8088L144.131 44.7948C144.131 44.7948 139.597 39.7569 128.849 35.9505L128.233 40.9324C136.238 45.2986 138.813 48.8811 138.813 48.8811L145.082 73.287C140.548 74.7983 134.783 76.0298 128.065 76.8695C121.684 77.7091 114.463 78.1569 106.85 78.1569C99.2374 78.1569 92.0164 77.7091 85.635 76.8695C73.1522 75.3021 63.6921 72.3354 60.1096 68.8088C57.4787 69.6485 55.4636 70.5441 54.1201 71.5517C56.695 74.4625 61.8449 77.0374 68.898 79.0526C78.6939 81.8514 92.0723 83.5867 106.85 83.5867C121.628 83.5867 135.006 81.8514 144.802 79.0526C146.538 78.5488 148.161 77.989 149.672 77.4293C149.337 77.5412 148.945 77.7091 148.609 77.8211L151.072 79.0526L152.919 90.6957C156.893 88.9605 159.972 86.9453 161.763 84.7622ZM145.978 73.0071C145.81 73.0631 145.586 73.119 145.362 73.231C145.53 73.119 145.754 73.0631 145.978 73.0071ZM147.209 72.5033C147.153 72.5033 147.097 72.5593 147.041 72.5593C147.097 72.5593 147.153 72.5593 147.209 72.5033ZM149.728 77.3733C150.064 77.2613 150.4 77.1494 150.68 76.9814C150.344 77.1494 150.008 77.2613 149.728 77.3733ZM151.855 76.5336C152.863 76.0858 153.759 75.638 154.598 75.1902C153.815 75.638 152.863 76.0858 151.855 76.5336ZM158.909 72.1674C158.741 72.2794 158.629 72.4473 158.461 72.5593C158.629 72.4473 158.797 72.2794 158.909 72.1674ZM158.349 72.6712C158.181 72.7832 158.013 72.9511 157.845 73.0631C158.013 72.9511 158.181 72.8392 158.349 72.6712ZM157.733 73.175C157.285 73.5109 156.837 73.8467 156.334 74.1826C156.893 73.8467 157.341 73.5109 157.733 73.175ZM155.494 74.6864C155.27 74.7983 155.046 74.9663 154.822 75.0782C155.046 74.9663 155.27 74.8543 155.494 74.6864Z" fill="#AF711C"></path>
<path d="M106.794 27.722C100.469 27.722 94.5356 28.8975 89.3857 31.0246L93.472 81.4596H106.794H120.117L124.203 31.0246C118.997 28.8975 113.064 27.722 106.794 27.722Z" fill="#DC9834"></path>
<path d="M124.203 31.0246V31.0806C120.397 30.073 116.255 29.5132 111.944 29.5132C105.619 29.5132 99.6855 30.6888 94.5356 32.8159L98.454 81.4596H93.472L89.3857 31.0246C94.5356 28.9535 100.469 27.722 106.794 27.722C113.12 27.722 118.997 28.8975 124.203 31.0246Z" fill="#F2D27D"></path>
<path d="M123.083 80.4518L123.475 77.4291L128.849 36.0063C127.338 35.4465 125.658 34.9428 123.923 34.4949L120.396 77.709L120.228 80.004C115.638 81.1236 111.048 81.4594 106.794 81.4594C102.54 81.4594 97.9498 81.1236 93.3597 80.004L93.1917 77.709L89.6652 34.439C87.874 34.8868 86.2506 35.4465 84.7393 35.9503L90.113 77.3731L90.5049 80.3959L90.7288 80.5078L89.3853 80.9556L91.5124 82.1311L106.794 83.6425L122.076 82.1311L124.203 80.9556L122.859 80.5078L123.083 80.4518Z" fill="#AF711C"></path>
<path d="M82.7234 135.925L82.2196 134.022C81.9957 133.854 81.8277 133.686 81.6038 133.518C80.8202 132.79 80.0925 132.062 79.3648 131.279C74.9426 126.297 71.7519 119.692 70.3525 111.463L70.1286 109.728L73.2633 107.545C75.7823 105.809 77.4056 103.122 77.8534 100.156C77.9653 99.5959 77.9653 99.0361 77.9653 98.4763V95.6775C74.3828 95.0058 71.0242 94.2221 68.0015 93.3265C65.5385 92.5988 63.2994 91.8151 61.2843 90.9755L61.1723 95.3976L60.3887 122.882C60.3327 125.457 58.0936 127.36 55.5747 127.08L53.2236 126.801L53.4475 128.088C54.3432 133.35 58.8773 137.212 64.1951 137.38L83.2831 137.884L82.7234 135.925Z" fill="#634027"></path>
<path d="M82.7234 135.925L82.2196 134.022C81.212 133.126 80.3164 132.231 79.4207 131.223C74.9986 126.241 71.8079 119.636 70.4085 111.407L70.1846 109.672L73.3193 107.489C76.0621 105.586 77.7414 102.619 78.0213 99.3162V99.2603C78.0213 98.9804 78.0773 98.7005 78.0773 98.4206V95.6218C77.4616 95.5098 76.8458 95.3979 76.2301 95.2859C75.5024 95.118 74.8307 95.006 74.103 94.8381C74.103 94.8381 74.103 94.8381 74.047 94.8381C73.6551 94.7261 73.2073 94.6702 72.8155 94.5582C71.1362 94.1664 69.5688 93.7745 68.0015 93.3267C67.7216 93.2707 67.4417 93.1588 67.1618 93.1028H67.1059C66.826 92.9909 66.4901 92.9349 66.2102 92.8229C65.5945 92.655 65.0347 92.4311 64.475 92.2632C64.1951 92.1512 63.9152 92.0952 63.6353 91.9833C63.3554 91.8713 63.0755 91.7594 62.8516 91.7034C62.5717 91.5914 62.3478 91.4795 62.068 91.4235C61.7881 91.3116 61.5642 91.1996 61.2843 91.0876L61.2283 93.7745C65.0347 95.6218 69.7368 97.3011 75.1105 98.7005C74.9426 102.115 73.2073 105.25 70.4645 107.209L69.3449 103.179L69.6248 129.544C69.6808 132.398 67.3298 134.694 64.475 134.638H63.5793C58.7653 134.526 54.679 131.335 53.2236 126.857L53.4475 128.144C54.3432 133.406 58.8773 137.268 64.1951 137.436L83.2831 137.94L82.7234 135.925Z" fill="#412A1C"></path>
<path d="M106.793 161.338L105.673 160.107L104.946 159.267C104.722 159.043 104.498 158.819 104.274 158.651L104.218 158.595C103.882 158.26 103.49 157.98 103.154 157.756C94.7579 151.654 88.4885 166.208 88.4885 166.208C82.499 157.196 79.2523 147.736 78.3567 144.937V144.881C78.1888 144.377 78.1328 144.097 78.1328 144.097L82.8908 141.411L84.0104 140.795L104.554 156.916C105.226 157.42 105.785 158.092 106.177 158.875C106.569 159.659 106.737 160.499 106.793 161.338Z" fill="#E7E6EE"></path>
<path d="M106.793 161.338L105.673 160.107C105.394 159.211 104.89 158.427 104.106 157.812L82.835 141.466L83.9545 140.851L104.498 156.972C105.17 157.476 105.729 158.148 106.121 158.931C106.569 159.659 106.737 160.499 106.793 161.338Z" fill="#D8D7E2"></path>
<path d="M106.793 161.338L107.913 160.107L108.64 159.267C108.864 159.043 109.088 158.819 109.312 158.651L109.368 158.595C109.704 158.26 110.096 157.98 110.431 157.756C118.828 151.654 125.097 166.208 125.097 166.208C131.087 157.196 134.334 147.736 135.229 144.937V144.881C135.397 144.377 135.453 144.097 135.453 144.097L130.695 141.411L129.576 140.795L109.032 156.916C108.36 157.42 107.801 158.092 107.409 158.875C106.961 159.659 106.793 160.499 106.793 161.338Z" fill="#E7E6EE"></path>
<path d="M106.793 161.338L107.913 160.107C108.192 159.211 108.696 158.427 109.48 157.812L130.751 141.466L129.631 140.851L109.088 156.972C108.416 157.476 107.857 158.148 107.465 158.931C106.961 159.659 106.793 160.499 106.793 161.338Z" fill="#D8D7E2"></path>
<defs>
<linearGradient id="paint0_linear_531_508" x1="106.453" y1="0" x2="106.453" y2="237.408" gradientUnits="userSpaceOnUse">
<stop stop-color="#313149"></stop>
<stop offset="1" stop-color="#313149" stop-opacity="0.5"></stop>
</linearGradient>
</defs>
</svg>
