<svg width="213" height="214" viewBox="0 0 213 214" fill="none" xmlns="http://www.w3.org/2000/svg">
<rect width="212.906" height="212.906" rx="106.453" fill="url('#paint0_linear_531_297')"></rect>
<path d="M167.03 147.106L122.62 142.215H106.205H106.093H89.678L45.268 147.106C26.6608 149.186 12.5508 165.32 12.5508 184.602V212.99H106.093H106.205H199.747V184.602C199.691 165.32 185.637 149.186 167.03 147.106Z" fill="#1A1C1D"></path>
<path d="M82.3691 143.227L106.148 152.222L87.035 161.891L82.3691 143.227Z" fill="#E6E6ED"></path>
<path d="M133.581 130.747L131.277 137.606L129.871 143.227L106.148 152.222L82.4256 143.227L81.0202 137.606L78.6592 130.523C85.5174 138.336 95.3551 142.271 106.261 142.271C116.942 142.215 126.723 138.449 133.581 130.747Z" fill="#D39D67"></path>
<path d="M145.107 97.5801L142.633 110.847C139.035 131.871 123.97 142.271 106.206 142.271C88.3854 142.271 73.3759 131.871 69.7782 110.847L67.3047 97.7488C78.6039 100.784 91.8707 103.033 106.093 103.033C120.372 103.033 133.751 100.728 145.107 97.5801Z" fill="#F6C781"></path>
<path d="M79.4448 132.94L106.147 152.221L83.8858 163.464L77.7021 139.011L79.4448 132.94Z" fill="#E6E6ED"></path>
<path d="M145.105 97.5801L142.632 110.847C139.933 126.587 130.827 136.369 118.965 140.247C140.833 132.771 135.83 105.844 135.83 105.844C90.4641 112.252 69.6645 101.122 67.6407 100.278L67.5283 99.3228C82.8189 101.515 91.8133 102.977 106.036 102.977C120.427 103.033 133.806 100.728 145.105 97.5801Z" fill="#D39D67"></path>
<path d="M133.582 130.747L131.277 137.549C131.221 137.549 131.221 137.606 131.221 137.606C101.427 155.313 80.4024 133.502 79.1657 132.209L78.6035 130.523C85.4618 138.336 95.2994 142.271 106.205 142.271C116.942 142.271 126.668 138.505 133.526 130.86C133.526 130.804 133.526 130.804 133.582 130.747Z" fill="#BA804A"></path>
<path d="M128.016 136.313L127.51 142.552L106.148 152.221L129.871 143.227L131.277 137.606L128.016 136.313Z" fill="#BA804A"></path>
<path d="M77.704 139.011L76.0176 143.733L80.2899 149.298L77.704 139.011Z" fill="#BEBECC"></path>
<path d="M132.85 132.94L106.147 152.221L128.409 163.464L134.536 139.011L132.85 132.94Z" fill="#E6E6ED"></path>
<path d="M134.538 139.011L136.225 143.733L131.952 149.298L134.538 139.011Z" fill="#BEBECC"></path>
<path d="M106.149 152.221L87.0362 161.834L83.8881 163.408L80.3466 149.242L76.0742 143.677C79.3909 162.902 85.2373 181.622 93.5009 199.33L99.8532 212.934H106.149H106.262H112.558L125.319 161.778L106.149 152.221Z" fill="#E6E6ED"></path>
<path d="M74.7255 136.313L69.4975 138.674C68.0359 139.348 66.9116 140.585 66.4619 142.159L60.1096 163.465L67.1927 166.613L52.5205 169.761L82.3708 212.99H99.7413L93.389 199.33C85.1253 181.622 79.2789 162.959 75.9622 143.733L74.7255 136.313Z" fill="#393C41"></path>
<path d="M74.7236 136.313L79.1084 134.008L77.703 139.011L76.0166 143.733L74.7236 136.313Z" fill="#2B2D30"></path>
<path d="M136.224 143.733L131.952 149.298L128.411 163.464L125.263 161.89L106.149 152.278L87.0362 161.89L83.8881 163.464L80.3466 149.298L76.0742 143.733C79.3909 162.958 85.2373 181.678 93.5009 199.386L99.8532 212.99V213.046H106.149H106.262H112.558V212.99L118.91 199.386C127.061 181.678 132.908 162.958 136.224 143.733Z" fill="#E6E6ED"></path>
<path d="M107.835 161.103H104.631V212.99H107.835V161.103Z" fill="#BEBECC"></path>
<path d="M106.148 181.959C108.88 181.959 111.095 179.744 111.095 177.012C111.095 174.28 108.88 172.065 106.148 172.065C103.416 172.065 101.201 174.28 101.201 177.012C101.201 179.744 103.416 181.959 106.148 181.959Z" fill="#1A1C1D"></path>
<path d="M106.148 204.052C108.88 204.052 111.095 201.837 111.095 199.105C111.095 196.373 108.88 194.158 106.148 194.158C103.416 194.158 101.201 196.373 101.201 199.105C101.201 201.837 103.416 204.052 106.148 204.052Z" fill="#1A1C1D"></path>
<path d="M137.518 136.313L142.746 138.674C144.207 139.348 145.332 140.585 145.781 142.159L152.134 163.465L145.051 166.613L159.723 169.761L129.872 212.99H112.502L118.854 199.33C127.118 181.622 132.964 162.959 136.281 143.733L137.518 136.313Z" fill="#393C41"></path>
<path d="M137.518 136.313L133.133 134.008L134.538 139.011L136.225 143.733L137.518 136.313Z" fill="#2B2D30"></path>
<path d="M74.7236 136.313L79.1084 134.008L78.4338 136.425L75.0609 138.168L74.7236 136.313Z" fill="#393C41"></path>
<path d="M137.518 136.313L133.133 134.008L133.807 136.425L137.18 138.168L137.518 136.313Z" fill="#393C41"></path>
<path d="M78.1543 146.544L83.2137 167.906L106.149 154.92V152.221L83.8882 163.465L80.2905 149.298L78.1543 146.544Z" fill="#BEBECC"></path>
<path d="M89.1152 145.307V168.187L86.5293 169.761V143.677L89.1152 145.307Z" fill="#CE202D"></path>
<path d="M125.937 143.677L111.152 152.84V153.458L125.937 145.588V143.677Z" fill="#F0576A"></path>
<path d="M85.7988 162.509V172.066L101.202 161.891V162.453H106.149V161.104H101.258V160.598L86.5296 169.761V162.116L85.7988 162.509Z" fill="#BEBECC"></path>
<path d="M78.1542 146.544L76.9736 141.035L77.7044 139.011L80.2903 149.298L78.1542 146.544Z" fill="#AAAAB5"></path>
<path d="M76.2982 142.946L76.8042 145.419C80.5144 163.464 86.4732 180.947 94.512 197.474L102.045 212.99H99.74L93.3876 199.386C85.124 181.678 79.2776 163.015 75.9609 143.733L76.2982 142.946Z" fill="#BEBECC"></path>
<path d="M75.0617 138.168L76.0174 143.733C79.3341 162.959 85.1805 181.678 93.4441 199.33L99.7964 212.99H97.0981L92.2074 202.141C83.494 182.803 77.7038 162.284 74.8369 141.203L74.4434 138.393L75.0617 138.168Z" fill="#2B2D30"></path>
<path d="M52.5771 169.76L82.3712 212.99H77.7053L52.5771 169.76Z" fill="#101212"></path>
<path d="M65.0545 144.97L58.1963 164.139L64.3237 167.231L66.9659 166.669L60.1076 163.465L65.6729 144.857L65.0545 144.97Z" fill="#101212"></path>
<path d="M96.3672 145.194L106.092 150.535L118.516 141.091L119.64 142.496L106.149 152.221L96.3672 145.194Z" fill="#BA804A"></path>
<path d="M134.087 146.544L129.084 167.906L106.148 154.92V152.221L128.41 163.465L131.951 149.298L134.087 146.544Z" fill="#BEBECC"></path>
<path d="M126.612 162.509V172.066L111.209 161.891V162.453H106.262V161.104H111.152V160.598L125.937 169.761V162.116L126.612 162.509Z" fill="#BEBECC"></path>
<path d="M134.088 146.544L135.269 141.034L134.538 139.011L131.952 149.298L134.088 146.544Z" fill="#AAAAB5"></path>
<path d="M135.943 142.946L135.437 145.419C131.727 163.464 125.768 180.947 117.729 197.474L110.196 212.99H112.501L118.853 199.386C127.117 181.678 132.963 163.015 136.28 143.733L135.943 142.946Z" fill="#BEBECC"></path>
<path d="M137.18 138.168L136.224 143.733C132.908 162.958 127.061 181.678 118.798 199.33L112.445 212.99H115.144L120.034 202.14C128.748 182.802 134.538 162.284 137.405 141.203L137.798 138.392L137.18 138.168Z" fill="#2B2D30"></path>
<path d="M159.722 169.761L129.872 212.99H134.538L159.722 169.761Z" fill="#101212"></path>
<path d="M147.187 144.97L154.045 164.139L147.918 167.231L145.275 166.669L152.134 163.465L146.568 144.857L147.187 144.97Z" fill="#101212"></path>
<path d="M86.5293 143.677V156.719V169.761L101.258 160.597V156.719V152.84L86.5293 143.677Z" fill="#CE202D"></path>
<path d="M125.881 143.677V156.719V169.761L111.152 160.597V156.719V152.84L125.881 143.677Z" fill="#CE202D"></path>
<path d="M101.259 152.39V156.719V161.103H111.153V156.719V152.39H101.259Z" fill="#CE202D"></path>
<path d="M101.257 152.84V160.598L99.7959 161.553L100.302 152.221L101.257 152.84Z" fill="#A41D2D"></path>
<path d="M87.8785 144.52L86.5293 166.781V143.677L87.8785 144.52Z" fill="#F0576A"></path>
<path d="M86.5293 166.781L99.9647 158.517L99.7961 161.553L86.5293 169.76V166.781Z" fill="#A41D2D"></path>
<path d="M86.5293 143.677L101.258 152.84H100.302L86.5293 145.588V143.677Z" fill="#F0576A"></path>
<path d="M102.327 152.39H101.259V161.103H102.327V152.39Z" fill="#F0576A"></path>
<path d="M124.532 144.52L125.938 166.781V143.677L124.532 144.52Z" fill="#F0576A"></path>
<path d="M125.937 166.781L110.983 157.618L111.152 160.597L125.937 169.761V166.781Z" fill="#A41D2D"></path>
<path d="M111.096 152.39H101.259V153.289H111.096V152.39Z" fill="#F0576A"></path>
<path d="M109.903 161.104H111.14V153.29H109.903V161.104Z" fill="#A41D2D"></path>
<path d="M101.317 161.088H111.154V160.188H101.317V161.088Z" fill="#A41D2D"></path>
<path d="M171.695 85.7191C171.245 76.7809 142.238 69.5854 106.485 69.5854C70.7322 69.5854 41.7251 76.7809 41.2754 85.7191V88.4175C41.2754 97.4119 70.4511 104.72 106.485 104.72C142.519 104.72 171.695 97.4119 171.695 88.4175V85.7191Z" fill="#393C41"></path>
<path d="M171.527 87.1805C171.414 87.6302 171.19 88.0237 170.965 88.4173C166.13 96.2312 139.091 102.246 106.542 102.246C73.9373 102.246 46.954 96.2312 42.1195 88.4173C41.8384 88.0237 41.6697 87.574 41.5573 87.1805C41.4449 86.787 41.3887 86.3373 41.3887 85.9438V88.4735C41.3887 97.4679 70.5644 104.776 106.598 104.776C142.632 104.776 171.808 97.4679 171.808 88.4735V85.9438C171.695 86.3373 171.639 86.787 171.527 87.1805Z" fill="#1A1C1D"></path>
<path d="M152.188 20.1718H60.8379L66.0659 83.5826H146.397L152.188 20.1718Z" fill="#1A1C1D"></path>
<path d="M106.26 91.8464C128.459 91.8464 146.454 88.0712 146.454 83.4142C146.454 78.7571 128.459 74.9819 106.26 74.9819C84.0618 74.9819 66.0664 78.7571 66.0664 83.4142C66.0664 88.0712 84.0618 91.8464 106.26 91.8464Z" fill="#1A1C1D"></path>
<path d="M106.485 31.3026C131.695 31.3026 152.131 26.3193 152.131 20.172C152.131 14.0247 131.695 9.04138 106.485 9.04138C81.2746 9.04138 60.8379 14.0247 60.8379 20.172C60.8379 26.3193 81.2746 31.3026 106.485 31.3026Z" fill="#393C41"></path>
<path d="M139.484 78.6357C131.951 80.7719 119.921 82.1211 106.317 82.1211C92.713 82.1211 80.5705 80.7719 73.0939 78.6357C68.3718 77.2865 65.4486 75.7125 65.1113 73.9136L66.1232 83.5264C66.5729 88.1361 84.3931 91.7901 106.261 91.7901C128.185 91.7901 146.005 88.1361 146.398 83.5264C146.398 83.5264 146.398 83.5264 146.398 83.4702L147.467 73.9136C147.129 75.7125 144.206 77.3428 139.484 78.6357Z" fill="#CE202D"></path>
<path d="M152.132 20.5092L146.398 83.5265L134.424 79.76L134.087 28.9415C144.655 27.0302 151.626 23.9946 152.132 20.5092Z" fill="#101212"></path>
<path d="M147.466 73.97L146.398 83.5266C146.398 83.5266 146.398 83.5266 146.398 83.5828C146.173 85.8314 141.676 87.9114 134.536 89.373L134.48 83.5828L134.424 79.8164C136.279 79.4791 137.965 79.0856 139.483 78.6359C144.205 77.3429 147.128 75.7127 147.466 73.97Z" fill="#A41D2D"></path>
<path d="M171.696 85.7189V85.8876C171.696 86.3373 171.64 86.7308 171.527 87.1243C171.415 87.574 171.19 87.9675 170.965 88.361C170.234 89.5415 168.997 90.6658 167.367 91.7339C160.846 86.1686 135.83 89.148 134.594 89.2605C135.043 89.148 135.549 89.0356 135.999 88.9794C136.449 88.867 136.899 88.7545 137.292 88.6421C137.686 88.5297 138.079 88.4172 138.473 88.3048C138.641 88.2486 138.866 88.1924 139.035 88.1362C139.203 88.0799 139.428 88.0237 139.597 87.9675C139.766 87.9113 139.934 87.8551 140.103 87.7989C140.271 87.7427 140.44 87.6864 140.609 87.6302C141.283 87.4054 141.902 87.1805 142.464 86.8994C142.576 86.8432 142.745 86.787 142.857 86.7308C143.251 86.5621 143.644 86.3373 143.982 86.1686C144.094 86.1124 144.207 86.0562 144.319 86C144.656 85.7751 144.994 85.5503 145.275 85.3254C145.331 85.2692 145.443 85.213 145.499 85.1568C145.556 85.1005 145.612 85.0443 145.724 84.9881C145.781 84.9319 145.837 84.8757 145.893 84.7632C145.949 84.6508 146.005 84.6508 146.062 84.5384C146.118 84.4822 146.174 84.426 146.174 84.3135C146.287 84.1449 146.343 84.0325 146.399 83.8638C146.399 83.8076 146.455 83.7514 146.455 83.6952C146.455 83.6389 146.511 83.5827 146.511 83.4703C146.511 83.4703 146.511 83.4703 146.511 83.4141L147.579 73.8575L147.636 73.1829C162.083 76.2185 171.471 80.7158 171.696 85.7189Z" fill="#2B2D30"></path>
<path d="M171.697 85.9438V88.4735C171.697 90.5534 170.123 92.521 167.312 94.3761V91.8464C168.943 90.7783 170.179 89.654 170.91 88.4735C171.191 88.08 171.36 87.6302 171.472 87.2367C171.641 86.787 171.697 86.3373 171.697 85.9438Z" fill="#101212"></path>
<path d="M179.51 144.689V212.99H174.395L175.744 144.689H179.51Z" fill="#393C41"></path>
<path d="M184.569 212.99H179.51V144.689H183.22L184.569 212.99Z" fill="#2B2D30"></path>
<path d="M179.51 126.025V144.689H175.743L176.137 126.025H179.51Z" fill="#E6E6ED"></path>
<path d="M183.22 144.689H179.51V126.025H182.883L183.22 144.689Z" fill="#BEBECC"></path>
<path d="M106.148 132.94C111.209 132.94 115.312 131.48 115.312 129.679C115.312 127.879 111.209 126.419 106.148 126.419C101.088 126.419 96.9854 127.879 96.9854 129.679C96.9854 131.48 101.088 132.94 106.148 132.94Z" fill="#D39D67"></path>
<path d="M100.582 118.83C98.8956 118.83 97.3216 119.504 96.1973 120.572C95.1854 121.528 94.5108 122.821 94.286 124.283C92.6557 126.081 90.1261 127.206 87.2591 127.206C82.3684 127.206 78.3771 123.777 78.2646 119.561C78.2646 119.673 78.2646 119.785 78.2646 119.954C78.2646 126.812 85.9099 132.321 95.3541 132.321C97.8275 132.321 100.245 131.928 102.381 131.253C102.493 131.197 102.662 131.141 102.774 131.141C105.192 130.241 106.878 127.937 106.878 125.238C106.934 121.697 104.067 118.83 100.582 118.83Z" fill="#1A1C1D"></path>
<path d="M111.77 118.83C113.456 118.83 115.03 119.504 116.154 120.572C117.166 121.528 117.841 122.821 118.066 124.283C119.696 126.081 122.226 127.206 125.093 127.206C129.983 127.206 133.975 123.777 134.087 119.561C134.087 119.673 134.087 119.785 134.087 119.954C134.087 126.812 126.442 132.321 116.998 132.321C114.524 132.321 112.107 131.928 109.971 131.253C109.858 131.197 109.69 131.141 109.577 131.141C107.16 130.241 105.473 127.937 105.473 125.238C105.417 121.697 108.284 118.83 111.77 118.83Z" fill="#1A1C1D"></path>
<path d="M189.965 106.125V106.237C184.456 106.8 180.127 111.128 179.565 116.637H179.453C178.89 111.184 174.562 106.8 169.053 106.237V106.125C174.506 105.563 178.834 101.234 179.396 95.7814H179.509C180.127 101.234 184.512 105.619 189.965 106.125Z" fill="#F5CA3D"></path>
<path d="M205.536 125.463V125.576C201.714 125.969 198.622 129.005 198.228 132.827H198.116C197.723 129.005 194.687 125.969 190.864 125.576V125.463C194.687 125.07 197.723 122.034 198.116 118.211H198.228C198.622 122.034 201.714 125.07 205.536 125.463Z" fill="#F5CA3D"></path>
<path d="M168.042 130.298V130.354C165.512 130.579 163.488 132.602 163.263 135.132H163.207C162.926 132.602 160.958 130.635 158.429 130.354V130.298C160.958 130.017 162.926 128.049 163.207 125.519H163.263C163.488 128.049 165.512 130.017 168.042 130.298Z" fill="#F5CA3D"></path>
<path d="M103.507 177.012C103.507 176.9 103.507 176.788 103.507 176.675C103.507 176.619 103.507 176.619 103.507 176.563C103.507 176.675 103.507 176.675 103.507 176.619C103.507 176.563 103.507 176.507 103.507 176.507C103.507 176.394 103.563 176.282 103.563 176.225C103.563 176.169 103.619 176.113 103.619 176.057C103.619 176.057 103.619 176.057 103.619 176.001C103.619 175.944 103.619 175.944 103.619 176.057C103.675 176.001 103.731 175.832 103.731 175.776C103.788 175.663 103.844 175.607 103.9 175.495C103.956 175.438 103.956 175.438 104.012 175.382C104.069 175.326 104.012 175.382 103.956 175.438L104.012 175.382C104.069 175.326 104.125 175.214 104.237 175.157C104.294 175.101 104.406 174.989 104.462 174.933C104.518 174.933 104.575 174.82 104.462 174.933C104.462 174.933 104.575 174.876 104.631 174.82C104.743 174.764 104.799 174.708 104.912 174.651C104.968 174.595 105.137 174.595 105.193 174.539C105.081 174.595 105.081 174.595 105.137 174.595H105.193C105.249 174.595 105.305 174.539 105.362 174.539C105.474 174.483 105.586 174.483 105.643 174.483C105.699 174.483 105.755 174.483 105.755 174.483C105.586 174.483 105.924 174.483 105.755 174.483C105.868 174.483 105.98 174.483 106.092 174.483C106.486 174.483 106.823 174.146 106.767 173.808C106.767 173.415 106.486 173.077 106.092 173.134C105.024 173.134 103.956 173.583 103.225 174.314C102.495 175.045 102.045 176.113 102.045 177.181C102.045 177.575 102.382 177.912 102.72 177.856C103.169 177.687 103.507 177.406 103.507 177.012Z" fill="#393C41"></path>
<path d="M97.3239 124.058C97.3239 123.945 97.3239 123.833 97.3239 123.72C97.3239 123.664 97.3239 123.664 97.3239 123.608C97.3239 123.72 97.3239 123.72 97.3239 123.664C97.3239 123.608 97.3239 123.552 97.3239 123.552C97.3239 123.439 97.3801 123.327 97.3801 123.271C97.3801 123.214 97.4363 123.158 97.4363 123.102C97.4363 123.102 97.4363 123.102 97.4363 123.046C97.4363 122.99 97.4363 122.99 97.4363 123.102C97.4925 123.046 97.5488 122.877 97.5488 122.821C97.605 122.709 97.6612 122.652 97.7174 122.54C97.7736 122.484 97.7736 122.484 97.8298 122.427C97.8861 122.371 97.8298 122.427 97.7736 122.484L97.8298 122.427C97.8861 122.371 97.9423 122.259 98.0547 122.203C98.1109 122.146 98.2233 122.034 98.2796 121.978C98.3358 121.978 98.392 121.865 98.2796 121.978C98.2796 121.978 98.392 121.921 98.4482 121.865C98.5606 121.809 98.6169 121.753 98.7293 121.697C98.7855 121.64 98.9541 121.64 99.0104 121.584C98.8979 121.64 98.8979 121.64 98.9541 121.64H99.0104C99.0666 121.64 99.1228 121.584 99.179 121.584C99.2914 121.528 99.4039 121.528 99.4601 121.528C99.5163 121.528 99.5725 121.528 99.5725 121.528C99.4039 121.528 99.7412 121.528 99.5725 121.528C99.6849 121.528 99.7974 121.528 99.9098 121.528C100.303 121.528 100.641 121.191 100.584 120.853C100.584 120.46 100.303 120.123 99.9098 120.179C98.8417 120.179 97.7736 120.629 97.0428 121.359C96.312 122.09 95.8623 123.158 95.8623 124.226C95.8623 124.62 96.1996 124.957 96.5369 124.901C96.9866 124.788 97.3239 124.451 97.3239 124.058Z" fill="#393C41"></path>
<path d="M103.507 199.105C103.507 198.993 103.507 198.88 103.507 198.768C103.507 198.712 103.507 198.712 103.507 198.655C103.507 198.768 103.507 198.768 103.507 198.712C103.507 198.655 103.507 198.599 103.507 198.599C103.507 198.487 103.563 198.374 103.563 198.318C103.563 198.262 103.619 198.206 103.619 198.149C103.619 198.149 103.619 198.149 103.619 198.093C103.619 198.037 103.619 198.037 103.619 198.149C103.675 198.093 103.731 197.925 103.731 197.868C103.788 197.756 103.844 197.7 103.9 197.587C103.956 197.531 103.956 197.531 104.012 197.475C104.069 197.419 104.012 197.475 103.956 197.531L104.012 197.475C104.069 197.419 104.125 197.306 104.237 197.25C104.294 197.194 104.406 197.081 104.462 197.025C104.518 197.025 104.575 196.913 104.462 197.025C104.462 197.025 104.575 196.969 104.631 196.913C104.743 196.856 104.799 196.8 104.912 196.744C104.968 196.688 105.137 196.688 105.193 196.632C105.081 196.688 105.081 196.688 105.137 196.688H105.193C105.249 196.688 105.305 196.632 105.362 196.632C105.474 196.575 105.586 196.575 105.643 196.575C105.699 196.575 105.755 196.575 105.755 196.575C105.586 196.575 105.924 196.575 105.755 196.575C105.868 196.575 105.98 196.575 106.092 196.575C106.486 196.575 106.823 196.238 106.767 195.901C106.767 195.507 106.486 195.17 106.092 195.226C105.024 195.226 103.956 195.676 103.225 196.407C102.495 197.138 102.045 198.206 102.045 199.274C102.045 199.667 102.382 200.005 102.72 199.948C103.169 199.78 103.507 199.499 103.507 199.105Z" fill="#393C41"></path>
<path d="M121.384 70.2036L119.978 68.7982L117.28 66.0999C116.156 67.2242 114.863 68.1236 113.345 68.7982C111.827 69.4166 110.028 69.7539 108.004 69.7539C106.262 69.7539 104.632 69.4728 103.17 68.8544C101.708 68.2361 100.472 67.3928 99.4035 66.2685C99.1787 66.0437 99.01 65.8188 98.7852 65.5377C100.415 70.7095 103.845 75.0381 108.342 77.8488C110.815 77.8488 113.064 77.5116 115.088 76.8932C115.593 76.7245 116.156 76.5559 116.605 76.331C117.28 76.05 117.898 75.7689 118.517 75.4316C120.259 74.5322 121.777 73.4078 123.239 72.1149L121.384 70.2036Z" fill="#5B5E60"></path>
<path d="M103.34 41.4776C104.07 41.5339 104.801 41.7025 105.532 41.8149C107.443 42.2084 109.13 42.9392 110.366 43.5014C111.266 43.9511 111.884 44.2884 112.165 44.457C112.334 44.5695 112.446 44.6257 112.615 44.7381C113.571 45.3565 114.358 45.9749 114.807 46.3122C115.313 46.7057 115.651 46.9867 115.932 47.2678C116.382 47.6613 116.775 48.0548 117 48.3359C117.281 48.0548 117.562 47.7737 117.787 47.4927L119.136 46.1435L120.654 44.6257L122.115 43.1079L123.015 42.2084C121.16 40.4096 118.967 39.0042 116.494 37.9923C115.707 37.655 114.807 37.3739 113.964 37.1491C112.896 36.868 111.716 36.6994 110.535 36.5307C109.748 36.4745 108.905 36.4183 108.005 36.4183C105.026 36.4183 102.215 36.9242 99.6856 37.9923C97.0997 39.0604 94.9073 40.4658 92.996 42.3771C92.7149 42.6582 92.4901 42.883 92.209 43.1641C94.8511 41.9836 97.8305 41.309 100.922 41.309C101.766 41.3652 102.553 41.3652 103.34 41.4776Z" fill="#5B5E60"></path>
<path d="M96.7055 64.1886C96.3682 62.6145 96.312 61.0967 96.312 61.0967C96.2558 59.6351 96.3682 58.3984 96.5369 57.499C95.9185 58.9043 95.525 60.1411 95.3001 61.0967C94.6256 63.6826 94.5693 65.8188 94.5693 66.8307C94.5693 69.4166 95.0191 71.8901 95.8061 74.1949C97.0428 75.0381 98.392 75.7689 99.7974 76.331C101.484 77.0056 103.339 77.5116 105.25 77.7364C103.283 76.2186 98.2233 71.6652 96.7055 64.1886Z" fill="#5B5E60"></path>
<path d="M97.942 52.4396C98.2231 52.1023 99.5722 50.472 101.765 48.8418C102.72 48.111 103.62 47.5488 104.351 47.1553C102.327 47.2115 98.1669 47.6051 93.7821 50.0785C90.2405 52.1023 88.1043 54.6882 86.9238 56.2622C86.9238 56.5433 86.9238 56.8243 86.9238 57.1054C86.9238 58.567 87.0363 60.0286 87.3173 61.3778C87.5422 62.5021 87.8795 63.5702 88.273 64.6383C88.3292 64.8631 88.4416 65.088 88.4979 65.2566C89.1162 66.7744 89.9032 68.1798 90.8589 69.4166C91.421 70.1473 91.9832 70.9906 92.9951 71.89C93.3886 72.2835 93.7821 72.5646 94.0632 72.7332C93.7821 71.9462 93.4448 70.8781 93.2761 69.5852C92.9951 67.7301 93.0513 66.3247 93.0513 65.3691C93.1075 64.4134 93.1637 62.6145 93.7821 60.4221C94.1756 59.0167 95.2437 55.7 97.942 52.4396Z" fill="#5B5E60"></path>
<path d="M105.136 45.3003C105.53 45.3003 105.867 45.3003 105.867 45.3003C107.891 45.4127 109.409 45.75 110.083 45.9187C111.938 46.4246 113.512 47.0992 114.637 47.7738C113.456 46.8743 111.432 45.5252 109.128 44.6257C108.397 44.3446 107.722 44.1198 107.666 44.1198C106.036 43.6138 104.743 43.4452 103.9 43.3328C102.832 43.1641 102.044 43.1641 101.763 43.1079C101.482 43.1079 101.201 43.1079 100.92 43.1079C98.1656 43.1079 95.7484 43.7825 95.7484 43.7825C93.2749 44.5133 91.4198 45.6376 90.2393 46.537C89.6771 47.1554 89.115 47.9424 88.5528 48.9543C87.541 50.8656 87.2037 52.6645 87.1475 53.845C88.2718 52.3272 90.0707 50.3035 92.8252 48.617C93.4998 48.1673 95.636 46.8743 98.6716 46.0873C98.6154 46.0873 101.707 45.2441 105.136 45.3003Z" fill="#5B5E60"></path>
<path d="M121.384 70.2597L119.978 68.8543L117.28 66.156C116.156 67.2803 114.863 68.1797 113.345 68.8543C111.827 69.4727 110.028 69.81 108.004 69.81C106.262 69.81 104.632 69.5289 103.17 68.9105C101.708 68.2921 100.472 67.4489 99.4035 66.3246C99.1787 66.0997 99.01 65.8749 98.7852 65.5938C100.415 70.7656 103.845 75.0942 108.342 77.9049C110.815 77.9049 113.064 77.5676 115.088 76.8931C115.593 76.7244 116.156 76.5558 116.605 76.3309C117.28 76.0498 117.898 75.7688 118.517 75.4315C120.259 74.532 121.777 73.4077 123.239 72.1148L121.384 70.2597Z" fill="#5B5E60"></path>
<path d="M96.7055 64.2449C96.3682 62.6709 96.312 61.1531 96.312 61.1531C96.2558 59.6915 96.3682 58.4547 96.5369 57.5553C95.9185 58.9607 95.525 60.1974 95.3001 61.1531C94.6256 63.739 94.5693 65.8751 94.5693 66.887C94.5693 69.4729 95.0191 71.9464 95.8061 74.2512C97.0428 75.0944 98.392 75.8252 99.7974 76.3874C101.484 77.062 103.339 77.5679 105.25 77.7928C103.283 76.275 98.2233 71.7215 96.7055 64.2449Z" fill="#5B5E60"></path>
<path d="M97.942 52.4957C98.2231 52.1584 99.5722 50.5281 101.765 48.8979C102.72 48.1671 103.62 47.6049 104.351 47.2114C102.327 47.2676 98.1669 47.6611 93.7821 50.1346C90.2405 52.1584 88.1043 54.7443 86.9238 56.3183C86.9238 56.5994 86.9238 56.8804 86.9238 57.1615C86.9238 58.6231 87.0363 60.0847 87.3173 61.4339C87.5422 62.5582 87.8795 63.6263 88.273 64.6943C88.3292 64.9192 88.4416 65.1441 88.4979 65.3127C89.1162 66.8305 89.9032 68.2359 90.8589 69.4726C91.421 70.2034 91.9832 71.0467 92.9951 71.9461C93.3886 72.3396 93.7821 72.6207 94.0632 72.8456C93.7821 72.0585 93.4448 70.9905 93.2761 69.6975C92.9951 67.8424 93.0513 66.437 93.0513 65.4814C93.1075 64.5257 93.1637 62.7268 93.7821 60.5344C94.1756 59.0728 95.2437 55.7561 97.942 52.4957Z" fill="#5B5E60"></path>
<path d="M105.136 45.3566C105.53 45.3566 105.867 45.3566 105.867 45.3566C107.891 45.469 109.409 45.8063 110.083 45.9749C111.938 46.4809 113.512 47.1555 114.637 47.83C113.456 46.9306 111.432 45.5814 109.128 44.682C108.397 44.4009 107.722 44.1761 107.666 44.1761C106.036 43.6701 104.743 43.5015 103.9 43.389C102.832 43.2204 102.044 43.2204 101.763 43.1642C101.482 43.1642 101.201 43.1642 100.92 43.1642C98.1656 43.1642 95.7484 43.8388 95.7484 43.8388C93.2749 44.5696 91.4198 45.6939 90.2393 46.5933C89.6771 47.2117 89.115 47.9987 88.5528 49.0106C87.541 50.9219 87.2037 52.7208 87.1475 53.9013C88.2718 52.3835 90.0707 50.3597 92.8252 48.6733C93.4998 48.2236 95.636 46.9306 98.6716 46.1436C98.6154 46.1436 101.707 45.3004 105.136 45.3566Z" fill="#5B5E60"></path>
<path d="M103.338 41.5339C104.068 41.5901 104.799 41.7588 105.53 41.8712C107.441 42.2647 109.128 42.9955 110.364 43.5577C111.264 44.0074 111.882 44.3447 112.163 44.5133C112.332 44.6258 112.444 44.682 112.613 44.7944C113.569 45.4128 114.356 46.0311 114.805 46.3684C115.311 46.7619 115.649 47.043 115.93 47.3241C116.379 47.7176 116.773 48.1111 117.054 48.3922C117.335 48.1111 117.616 47.83 117.897 47.5489L119.246 46.1998L120.764 44.682L122.226 43.1642L123.125 42.2647C121.27 40.4658 119.078 39.0604 116.604 38.0486C115.817 37.7113 114.918 37.4302 114.075 37.2053C113.007 36.9243 111.826 36.7556 110.645 36.587C109.858 36.5308 109.015 36.4745 108.116 36.4745C105.136 36.4745 102.326 36.9805 99.796 38.0486C97.2101 39.1167 95.0177 40.522 93.1064 42.4334C92.8253 42.7144 92.6004 42.9393 92.3193 43.2204C94.9614 42.0399 97.9409 41.3653 101.033 41.3653C101.763 41.4215 102.551 41.4777 103.338 41.5339Z" fill="#5B5E60"></path>
<g opacity="0.2">
<path d="M121.385 70.1472L119.979 68.7419L117.281 66.0435C116.157 67.1678 114.864 68.0673 113.346 68.7419C111.828 69.3602 110.029 69.6975 108.005 69.6975C106.263 69.6975 104.633 69.4164 103.171 68.7981C101.709 68.1797 100.473 67.3365 99.4045 66.2122C99.1796 65.9873 99.011 65.7625 98.7861 65.4814C100.416 70.6532 103.845 74.9818 108.343 77.7925C110.816 77.7925 113.065 77.4552 115.089 76.7806C115.594 76.612 116.157 76.4433 116.606 76.2185C117.281 75.9374 117.899 75.6563 118.518 75.319C120.26 74.4196 121.778 73.2953 123.24 72.0023L121.385 70.1472Z" fill="#5B5E60"></path>
<path d="M96.7055 64.1883C96.3682 62.6143 96.312 61.0965 96.312 61.0965C96.2558 59.6349 96.3682 58.3982 96.5369 57.4987C95.9185 58.9041 95.525 60.1408 95.3001 61.0965C94.6256 63.6824 94.5693 65.8186 94.5693 66.8304C94.5693 69.4163 95.0191 71.8898 95.8061 74.1946C97.0428 75.0379 98.392 75.7687 99.7974 76.3308C101.484 77.0054 103.339 77.5113 105.25 77.7362C103.283 76.1622 98.2233 71.6649 96.7055 64.1883Z" fill="#5B5E60"></path>
<path d="M97.9987 52.3832C98.2797 52.0459 99.6289 50.4157 101.821 48.7855C102.777 48.0547 103.676 47.4925 104.407 47.099C102.383 47.1552 98.2235 47.5487 93.8387 50.0222C90.2972 52.0459 88.161 54.6318 86.9805 56.2059C86.9805 56.4869 86.9805 56.768 86.9805 57.0491C86.9805 58.5107 87.0929 59.9723 87.374 61.3214C87.5988 62.4457 87.9361 63.5138 88.3296 64.5819C88.3859 64.8068 88.4983 65.0316 88.5545 65.2003C89.1729 66.7181 89.9599 68.1235 90.9155 69.3602C91.4777 70.091 92.0398 70.9342 93.0517 71.8337C93.4452 72.2272 93.8387 72.5083 94.1198 72.7331C93.8387 71.9461 93.5014 70.878 93.3328 69.5851C93.0517 67.73 93.1079 66.3246 93.1079 65.3689C93.1641 64.4133 93.2204 62.6144 93.8387 60.422C94.176 58.9604 95.2441 55.6437 97.9987 52.3832Z" fill="#5B5E60"></path>
<path d="M105.195 45.2439C105.588 45.2439 105.926 45.2439 105.926 45.2439C107.949 45.3563 109.467 45.6936 110.142 45.8623C111.997 46.3682 113.571 47.0428 114.695 47.7174C113.515 46.8179 111.491 45.4688 109.186 44.5693C108.455 44.2882 107.781 44.0634 107.725 44.0634C106.094 43.5574 104.801 43.3888 103.958 43.2764C102.89 43.1077 102.103 43.1077 101.822 43.0515C101.541 43.0515 101.26 43.0515 100.979 43.0515C98.2242 43.0515 95.807 43.7261 95.807 43.7261C93.3335 44.4569 91.4784 45.5812 90.2979 46.4806C89.7357 47.099 89.1736 47.886 88.6114 48.8979C87.5996 50.8092 87.2623 52.6081 87.2061 53.7886C88.3304 52.2708 90.1292 50.2471 92.8838 48.5606C93.5584 48.1109 95.6945 46.8179 98.7302 46.0309C98.674 46.0309 101.71 45.1877 105.195 45.2439Z" fill="#5B5E60"></path>
</g>
<defs>
<linearGradient id="paint0_linear_531_297" x1="106.453" y1="0" x2="106.453" y2="237.408" gradientUnits="userSpaceOnUse">
<stop stop-color="#313149"></stop>
<stop offset="1" stop-color="#313149" stop-opacity="0.5"></stop>
</linearGradient>
</defs>
</svg>
