<svg width="216" height="214" viewBox="0 0 216 214" fill="none" xmlns="http://www.w3.org/2000/svg">
<rect width="212.906" height="212.906" rx="106.453" fill="url('#paint0_linear_531_585')"></rect>
<path d="M122.312 74.7982C122.256 75.0225 122.424 74.5178 122.312 74.7982V74.7982Z" fill="#31313B"></path>
<path d="M120.577 43.1153C115.819 38.1333 106.639 38.3572 106.639 38.3572C105.911 38.3572 105.183 38.3572 104.456 38.3572C104.232 38.3572 104.008 38.3572 103.784 38.3572C103.28 38.3572 102.776 38.4132 102.328 38.4132C102.049 38.4132 101.825 38.4692 101.545 38.4692C101.097 38.4692 100.705 38.5252 100.257 38.5252C99.9774 38.5252 99.6975 38.5811 99.4736 38.5811C99.0817 38.6371 98.6899 38.6371 98.2981 38.6931C98.0182 38.6931 97.7383 38.7491 97.5144 38.805C97.1226 38.861 96.7867 38.861 96.3949 38.917C96.115 38.973 95.8911 38.973 95.6112 39.029C95.2753 39.0849 94.8835 39.1409 94.5476 39.1969C94.2677 39.2529 94.0438 39.2529 93.764 39.3088C93.4281 39.3648 93.0922 39.4208 92.7564 39.4768C92.5325 39.5327 92.2526 39.5887 92.0287 39.6447C91.6928 39.7007 91.3569 39.7567 91.0771 39.8686C90.8532 39.9246 90.6293 39.9806 90.4053 40.0365C90.0695 40.0925 89.7896 40.2045 89.4537 40.2604C89.2298 40.3164 89.0059 40.3724 88.782 40.4284C88.4462 40.5403 88.1663 40.5963 87.8864 40.7083C87.6625 40.7642 87.4946 40.8202 87.2706 40.8762C86.9348 40.9881 86.6549 41.1001 86.375 41.1561C86.2071 41.212 85.9832 41.268 85.8153 41.38C85.4794 41.4919 85.1995 41.6039 84.9196 41.7158C84.7517 41.7718 84.5838 41.8278 84.4158 41.9397C84.08 42.0517 83.8001 42.2196 83.4642 42.3316C83.2963 42.3876 83.1844 42.4435 83.0164 42.4995C82.6806 42.6674 82.2887 42.8354 81.9529 43.0033C81.8969 43.0593 81.7849 43.0593 81.673 43.1153C80.8333 43.5631 79.9937 44.0109 79.21 44.5147C79.154 44.5707 79.098 44.5707 79.0421 44.6266C78.7062 44.8505 78.3703 45.0744 78.0905 45.2424C77.9785 45.2983 77.8666 45.4103 77.7546 45.4663C77.4747 45.6342 77.2508 45.8581 76.9709 46.026C76.859 46.138 76.747 46.194 76.6351 46.3059C76.4112 46.4739 76.1873 46.6978 75.9074 46.8657C75.7954 46.9777 75.6835 47.0896 75.5715 47.2016C75.3476 47.3695 75.1237 47.5934 74.8998 47.7613C74.7878 47.8733 74.6759 47.9852 74.5639 48.0972C74.34 48.2651 74.1721 48.489 73.9482 48.7129C73.8362 48.8249 73.7243 48.9368 73.6123 49.0488C73.4444 49.2727 73.2205 49.4406 73.0526 49.6645C72.9406 49.7765 72.8287 49.8884 72.7167 50.0004C72.5488 50.2243 72.3249 50.4482 72.1569 50.6721C72.045 50.7841 71.933 50.896 71.8771 51.008C71.7091 51.2319 71.5412 51.4558 71.3173 51.6797C71.2053 51.7916 71.1494 51.9036 71.0374 52.0156C70.8695 52.2395 70.7015 52.5193 70.5336 52.7433C70.4776 52.8552 70.3657 52.9672 70.3097 53.0791C70.1418 53.359 69.9738 53.6389 69.8059 53.8628C69.7499 53.9747 69.694 54.0867 69.582 54.1986C69.4141 54.4785 69.1902 54.8144 69.0222 55.0943C68.9663 55.1503 68.9103 55.2622 68.8543 55.3182C68.6304 55.654 68.4625 56.0459 68.2386 56.3817C68.2386 56.4377 68.1826 56.4377 68.1826 56.4937C67.7348 57.3333 67.3429 58.173 66.9511 59.0686C66.5593 59.9643 66.1674 60.8599 65.8316 61.8115C64.2082 65.9538 63.1447 70.264 62.473 74.6302L58.3307 101.611L52.4531 140.347C52.4531 140.347 58.1068 142.25 66.2794 143.929L84.08 141.634L82.1208 133.965C81.1132 133.126 80.2176 132.174 79.322 131.167C74.8998 126.185 71.7091 119.579 70.3097 111.351L70.0858 109.616L68.2386 95.2296L68.8543 93.4383C70.3657 89.2961 74.2281 86.4412 78.6502 86.2733L106.639 85.2098L107.87 85.1538C113.524 85.1538 118.506 82.0751 121.081 77.485C121.193 77.2611 121.304 77.0372 121.416 76.8132C121.92 75.8057 122.312 74.7421 122.536 73.6785C126.846 56.4937 124.327 47.0336 120.577 43.1153Z" fill="#31313B"></path>
<path d="M160.824 140.347C160.824 140.347 155.17 142.25 146.998 143.929L129.197 141.634L131.156 133.965C132.164 133.126 133.059 132.174 133.955 131.166C138.377 126.184 141.568 119.579 142.967 111.351L143.191 109.615L145.038 95.2294L144.423 93.4381C142.911 89.2958 139.049 86.441 134.627 86.2731L128.245 86.0492C124.271 86.0492 121.024 82.8025 121.024 78.8282C121.024 78.3804 121.08 77.8766 121.136 77.4288C121.248 77.2608 121.36 77.0369 121.472 76.813C121.976 75.8054 122.368 74.7419 122.592 73.6783C126.23 58.9564 124.943 49.8882 122.088 45.1302C122.536 44.8503 122.984 44.5704 123.431 44.3465C125.503 43.283 127.966 42.8911 130.484 43.3389C132.108 43.6188 133.619 44.2346 134.851 45.1302C140.84 49.1605 144.703 54.9261 147.445 62.0352C149.069 66.1774 150.132 70.4876 150.804 74.8538L151.98 82.4107L154.946 101.891L160.824 140.347Z" fill="#31313B"></path>
<path d="M155.002 101.891C154.834 101.947 154.666 101.947 154.498 101.947C153.266 101.947 152.147 101.163 151.699 99.9314L148.34 90.6393C146.661 86.497 142.295 83.0824 137.313 82.9145L130.204 82.6906C128.189 82.6906 126.453 81.4591 125.726 79.7238C125.39 78.9401 125.334 78.0445 125.446 77.1489C126.006 73.2865 129.084 54.0305 123.431 44.3465C125.502 43.283 127.965 42.8911 130.484 43.3389C132.107 43.6188 133.618 44.2346 134.85 45.1302C140.839 49.1605 144.702 54.9261 147.445 62.0352C149.068 66.1774 150.132 70.4876 150.803 74.8538L151.979 82.4107L155.002 101.891Z" fill="#434350"></path>
<path d="M122.032 70.3758C121.752 71.4394 121.416 72.5589 120.912 73.5105C120.8 73.7344 120.688 73.9583 120.576 74.1822C117.945 78.7723 113.019 81.2913 107.366 81.2913L106.134 81.3472H105.798L75.9627 82.3548C70.9808 82.5227 66.6146 86.4971 64.9353 90.6394L61.8006 99.4277L61.6327 99.9875C61.1289 101.331 59.7295 102.171 58.3301 101.947L62.4164 74.9099C63.0881 70.5437 64.1517 66.1775 65.775 62.0912C66.1668 61.1396 66.5027 60.244 66.8945 59.3484C72.8281 46.1379 83.5196 38.3571 106.638 38.3571C106.638 38.3571 112.404 38.2452 117.162 40.5962C118.449 41.2119 119.625 42.0516 120.632 43.0592C122.032 44.5145 123.319 46.8096 124.047 50.0003C124.607 55.0941 124.159 61.7554 122.032 70.3758Z" fill="#434350"></path>
<path d="M155.002 101.891C154.834 101.946 154.666 101.946 154.498 101.946C153.267 101.946 152.147 101.163 151.699 99.9313L148.341 90.6392C148.061 90.0235 147.781 89.4077 147.389 88.792L146.382 78.996L145.598 71.3832C145.15 66.961 144.31 62.5949 142.911 58.3966C141.4 53.9185 139.44 49.9441 136.81 46.5295C141.736 50.4479 145.038 55.7097 147.501 62.0351C149.124 66.1774 150.188 70.4876 150.86 74.8538L152.035 82.4106L155.002 101.891Z" fill="#31313B"></path>
<path d="M124.942 59.9642C126.902 62.5951 130.316 64.8902 133.675 65.0021C134.962 65.0581 136.194 65.0021 137.369 65.5059C138.881 66.1217 140.168 67.2972 140.896 68.7526C141.456 69.8161 143.023 68.8645 142.463 67.8569C140.896 64.8342 137.817 63.2109 134.514 63.2109C133.115 63.2109 131.828 62.987 130.54 62.3153C129.029 61.5316 127.517 60.468 126.454 59.0686C125.782 58.117 124.215 59.0126 124.942 59.9642Z" fill="#31313B"></path>
<path d="M124.551 54.9262C123.879 56.6615 123.375 58.5087 122.144 59.8522C120.577 61.5875 118.505 62.2592 116.21 62.2592C112.236 62.2592 108.318 62.2592 104.343 62.2592C103 62.2592 101.712 62.2592 100.369 62.2592C99.1934 62.2592 99.1934 64.0504 100.369 64.0504C103.839 64.0504 107.31 64.0504 110.781 64.0504C112.572 64.0504 114.363 64.0504 116.154 64.0504C118.561 64.0504 120.856 63.4347 122.704 61.8114C124.663 60.1321 125.335 57.7251 126.286 55.43C126.734 54.3105 124.943 53.8627 124.551 54.9262Z" fill="#31313B"></path>
<path d="M77.2505 71.2713C77.3065 67.3529 80.3852 64.1063 84.3596 64.0503C86.3748 64.0503 88.3339 64.0503 90.3491 64.0503C91.5246 64.0503 91.5246 62.259 90.3491 62.259C88.5019 62.259 86.6546 62.259 84.8074 62.259C81.8406 62.259 79.1538 63.3786 77.3065 65.7856C76.075 67.3529 75.4593 69.3121 75.4593 71.2713C75.4033 72.4468 77.1946 72.4468 77.2505 71.2713Z" fill="#31313B"></path>
<path d="M68.8546 213.116H41.314L30.4545 170.966C27.6557 160.05 35.1006 149.191 46.296 147.848L65.9998 145.497L59.6184 192.181L72.549 192.069L64.4324 204.552L68.8546 213.116Z" fill="#BFCCDD"></path>
<path d="M82.1205 143.593L99.9771 213.116H68.854L64.4878 204.552L72.6045 192.069L59.6738 192.181L66.2231 143.929L84.0797 141.634L84.5275 143.313L82.1205 143.593Z" fill="#DBE9F7"></path>
<path d="M67.1191 94.7818L78.7623 99.8757L103.168 100.547V111.911C103.168 114.038 101.377 115.773 99.2498 115.717L81.6731 115.269C79.7139 115.213 78.0906 113.646 77.9786 111.687L77.4748 103.962L67.567 98.4203L67.1191 94.7818Z" fill="#2E2C2F"></path>
<path d="M101.713 103.178V111.911C101.713 113.198 100.65 114.262 99.3622 114.206L97.9627 114.15L96.0595 114.094H95.9476L94.2683 114.038H93.4846H92.3651H91.5814L81.7295 113.814C80.554 113.758 79.5464 112.862 79.4904 111.631L79.3785 109.952L79.2665 108.048L79.1546 106.201L78.9307 102.619L82.6251 102.675L84.5283 102.731L97.6829 103.01L101.713 103.178Z" fill="#71B2C8"></path>
<path d="M97.5706 103.122V108.72C97.5706 109.616 96.7869 110.399 95.8913 110.399L79.2662 110.063L78.8184 102.786L97.5706 103.122Z" fill="#8BC4D7"></path>
<path d="M65.2725 145.608L56.876 195.26L70.7582 194.924L72.6054 192.069L59.6748 192.181L66.0002 145.497L65.2725 145.608Z" fill="#A5ADB8"></path>
<path d="M65.1604 205.84L63.3691 207.911L65.3283 213.117H68.8549L65.1604 205.84Z" fill="#A5ADB8"></path>
<path d="M66 145.496C66 145.496 71.4857 144.377 79.7703 146.504L95.1639 213.116H99.9219L82.1213 143.593L84.5283 143.313L84.0805 141.634L66.2799 143.929L66 145.496Z" fill="#BBCDDC"></path>
<path d="M84.4717 102.842L79.1539 108.104L79.042 106.257L82.5126 102.786H82.5685L84.4717 102.842Z" fill="#BFE2E9"></path>
<path d="M101.713 104.69V106.649L94.2118 114.15L93.4281 114.094H92.3086L101.713 104.69Z" fill="#BFE2E9"></path>
<path d="M96.0029 114.15L101.713 108.496V110.455L97.9621 114.206L96.0029 114.15Z" fill="#BFE2E9"></path>
<path d="M144.423 213.116H171.964L182.823 170.966C185.622 160.05 178.177 149.191 166.982 147.848L147.278 145.497L153.659 192.181L140.729 192.069L148.845 204.552L144.423 213.116Z" fill="#BFCCDD"></path>
<path d="M131.156 143.593L113.3 213.116H144.423L148.789 204.552L140.672 192.069L153.603 192.181L146.998 143.929L129.197 141.634L128.749 143.313L131.156 143.593Z" fill="#DBE9F7"></path>
<path d="M106.639 164.809H87.5508L99.9776 213.116H106.583H106.639H113.3L125.671 164.809H106.639Z" fill="#CC7468"></path>
<path d="M148.006 145.608L156.346 195.26L142.52 194.924L140.673 192.069L153.603 192.181L147.222 145.497L148.006 145.608Z" fill="#A5ADB8"></path>
<path d="M148.117 205.84L149.909 207.911L147.893 213.117H144.423L148.117 205.84Z" fill="#A5ADB8"></path>
<path d="M147.222 145.496C147.222 145.496 141.736 144.377 133.451 146.504L118.058 213.116H113.3L131.156 143.593L128.749 143.313L129.197 141.634L146.998 143.929L147.222 145.496Z" fill="#BBCDDC"></path>
<path d="M151.645 105.753C151.253 109.448 147.95 112.079 144.256 111.631C143.808 111.575 143.416 111.519 142.968 111.351L142.912 111.911C141.513 120.139 138.378 126.185 133.956 131.167C133.34 131.838 132.725 132.51 132.053 133.126C131.885 133.294 131.773 133.406 131.605 133.574C131.325 133.854 131.045 134.077 130.709 134.357C130.541 134.525 130.373 134.637 130.206 134.805C129.926 135.029 129.59 135.309 129.31 135.533C129.086 135.701 128.862 135.869 128.638 136.037C125.839 138.052 122.761 139.619 119.458 140.683C119.458 140.683 119.458 140.683 119.402 140.683C115.428 141.97 111.117 142.642 106.695 142.642H106.471C98.2988 142.642 90.686 140.403 84.5285 135.981C84.3046 135.813 84.0807 135.645 83.8568 135.477C83.521 135.253 83.2411 134.973 82.9052 134.749C82.7373 134.637 82.5694 134.469 82.4014 134.301C82.1215 134.077 81.8417 133.798 81.5058 133.518C81.3379 133.406 81.2259 133.238 81.058 133.07C80.3863 132.454 79.7705 131.782 79.1548 131.111C74.7326 126.129 71.6539 120.139 70.1985 111.855L70.1425 111.295C69.7507 111.407 69.3029 111.519 68.8551 111.575C65.2166 111.967 61.858 109.336 61.4661 105.697C61.4661 105.473 61.4102 105.193 61.4102 104.97C61.4102 101.611 63.9291 98.7002 67.3437 98.3083C67.7355 98.2524 68.0714 98.2524 68.4072 98.2524L68.0154 95.1177L68.6312 93.3264C70.1425 89.1841 74.0049 86.3293 78.4271 86.1614L106.415 85.0978H106.471L107.703 85.0419C113.357 85.0419 118.338 81.9631 120.913 77.3731C120.913 77.3731 120.913 77.3171 120.969 77.3171C120.857 77.7649 120.857 78.2127 120.857 78.7165C120.857 82.6908 124.104 85.9375 128.078 85.9375H128.582L134.516 86.1614C135.187 86.2174 135.859 86.2734 136.531 86.4413C140.057 87.225 143.08 89.7999 144.312 93.3264L144.927 95.1177L144.536 98.2524C144.871 98.2524 145.263 98.2524 145.599 98.3083C149.406 98.7562 152.036 102.115 151.645 105.753Z" fill="#F2C6B8"></path>
<path d="M70.3095 111.351C69.9177 111.463 69.4699 111.575 69.0221 111.631C65.3836 112.023 62.025 109.392 61.6331 105.753C61.6331 105.529 61.5771 105.249 61.5771 105.025C62.3608 108.216 65.4395 110.399 68.7981 110.007C69.246 109.951 69.6378 109.895 70.0856 109.727L70.3095 111.351Z" fill="#E6A498"></path>
<path d="M207.348 134H202.768H157.36C148.87 134 142 140.882 142 149.386V212.944H202.768V146.253H215V141.665C215 137.413 211.593 134 207.348 134Z" fill="#EDE8DA"></path>
<path d="M207.962 135.846C204.053 135.846 200.925 139.035 200.925 142.896V146.253V212.944H202.824V146.253H215.056V142.896C215 138.979 211.816 135.846 207.962 135.846Z" fill="#C1B7A1"></path>
<path d="M193.329 183.627L191.542 181.836L188.023 178.312C186.571 179.766 184.895 180.941 182.884 181.78C180.93 182.62 178.584 183.067 175.903 183.067C173.613 183.067 171.546 182.676 169.647 181.892C167.748 181.109 166.128 179.99 164.732 178.535C164.453 178.256 164.174 177.92 163.95 177.64C166.073 184.354 170.541 190.005 176.405 193.698C179.645 193.642 182.549 193.25 185.23 192.411C185.9 192.187 186.571 191.963 187.241 191.683C188.135 191.348 188.972 190.956 189.754 190.508C191.988 189.334 193.999 187.879 195.898 186.2L193.329 183.627Z" fill="#C1B7A1"></path>
<path d="M169.815 146.141C170.765 146.253 171.714 146.421 172.664 146.588C175.177 147.148 177.356 148.043 178.975 148.77C180.148 149.33 180.986 149.833 181.321 150.001C181.545 150.113 181.712 150.225 181.935 150.337C183.22 151.12 184.225 151.96 184.784 152.351C185.454 152.855 185.901 153.246 186.292 153.582C186.851 154.086 187.353 154.589 187.744 154.981C188.079 154.589 188.47 154.253 188.805 153.862L190.537 152.071L192.492 150.113L194.391 148.155L195.564 146.98C193.162 144.63 190.313 142.84 187.074 141.497C186.013 141.049 184.896 140.714 183.779 140.434C182.326 140.098 180.874 139.819 179.255 139.651C178.193 139.539 177.076 139.483 175.959 139.483C172.049 139.483 168.419 140.154 165.124 141.553C161.773 142.896 158.868 144.798 156.411 147.26C156.076 147.596 155.74 147.931 155.405 148.323C158.868 146.756 162.722 145.917 166.743 145.917C167.749 145.973 168.81 146.029 169.815 146.141Z" fill="#C1B7A1"></path>
<path d="M161.158 175.794C160.711 173.724 160.655 171.766 160.655 171.766C160.599 169.863 160.711 168.297 160.934 167.066C160.153 168.912 159.65 170.535 159.315 171.766C158.421 175.178 158.365 177.92 158.365 179.207C158.365 182.564 158.924 185.753 159.985 188.774C161.605 189.893 163.336 190.844 165.179 191.571C167.413 192.467 169.759 193.082 172.217 193.362C169.703 191.404 163.169 185.529 161.158 175.794Z" fill="#C1B7A1"></path>
<path d="M162.834 160.464C163.225 160.016 164.956 157.946 167.804 155.764C169.089 154.813 170.262 154.086 171.156 153.582C168.475 153.638 163.113 154.142 157.416 157.443C152.836 160.072 149.987 163.429 148.535 165.499C148.535 165.891 148.535 166.283 148.535 166.618C148.535 168.52 148.703 170.423 149.094 172.213C149.373 173.668 149.82 175.067 150.322 176.465C150.434 176.745 150.546 177.025 150.658 177.304C151.495 179.263 152.501 181.109 153.729 182.732C154.456 183.739 155.182 184.746 156.466 185.921C157.025 186.424 157.472 186.816 157.807 187.04C157.416 186.033 157.025 184.578 156.746 182.899C156.355 180.494 156.41 178.647 156.466 177.36C156.522 176.13 156.634 173.78 157.416 170.926C157.918 169.024 159.315 164.716 162.834 160.464Z" fill="#C1B7A1"></path>
<path d="M172.217 151.12C172.72 151.12 173.111 151.12 173.167 151.12C175.792 151.232 177.802 151.736 178.64 151.96C181.098 152.575 183.053 153.526 184.561 154.365C182.997 153.19 180.372 151.456 177.411 150.281C176.518 149.945 175.624 149.666 175.512 149.61C173.39 148.938 171.714 148.714 170.653 148.547C169.257 148.379 168.252 148.267 167.861 148.267C167.47 148.267 167.134 148.267 166.743 148.267C163.169 148.267 159.985 149.162 159.985 149.162C156.802 150.057 154.344 151.568 152.78 152.743C152.054 153.526 151.272 154.589 150.602 155.932C149.261 158.45 148.87 160.799 148.759 162.31C150.211 160.352 152.613 157.722 156.131 155.484C157.025 154.925 159.818 153.246 163.727 152.127C163.727 152.183 167.693 151.064 172.217 151.12Z" fill="#C1B7A1"></path>
<path d="M193.329 183.683L191.542 181.892L188.023 178.367C186.571 179.822 184.895 180.997 182.884 181.836C180.93 182.676 178.584 183.123 175.903 183.123C173.613 183.123 171.546 182.732 169.647 181.948C167.748 181.165 166.128 180.046 164.732 178.591C164.453 178.312 164.174 177.976 163.95 177.696C166.073 184.41 170.541 190.061 176.405 193.753C179.645 193.698 182.549 193.306 185.23 192.467C185.9 192.243 186.571 192.019 187.241 191.739C188.135 191.404 188.972 191.012 189.754 190.564C191.988 189.389 193.999 187.935 195.898 186.256L193.329 183.683Z" fill="#C1B7A1"></path>
<path d="M161.158 175.85C160.711 173.78 160.655 171.821 160.655 171.821C160.599 169.919 160.711 168.297 160.934 167.122C160.153 168.968 159.65 170.591 159.315 171.821C158.421 175.234 158.365 177.976 158.365 179.319C158.365 182.676 158.924 185.865 159.985 188.886C161.605 190.005 163.336 190.956 165.179 191.683C167.413 192.579 169.759 193.194 172.217 193.474C169.759 191.516 163.169 185.641 161.158 175.85Z" fill="#C1B7A1"></path>
<path d="M162.834 160.52C163.225 160.072 164.956 158.002 167.804 155.82C169.089 154.869 170.262 154.142 171.156 153.582C168.475 153.638 163.113 154.142 157.416 157.443C152.836 160.072 149.987 163.429 148.535 165.499C148.535 165.891 148.535 166.283 148.535 166.618C148.535 168.52 148.703 170.423 149.094 172.213C149.373 173.668 149.82 175.067 150.322 176.465C150.434 176.745 150.546 177.025 150.658 177.304C151.495 179.263 152.501 181.109 153.729 182.732C154.456 183.739 155.182 184.746 156.466 185.921C157.025 186.424 157.472 186.816 157.863 187.04C157.472 186.033 157.081 184.578 156.801 182.899C156.41 180.494 156.466 178.647 156.522 177.36C156.578 176.13 156.69 173.78 157.472 170.87C157.918 169.136 159.315 164.772 162.834 160.52Z" fill="#C1B7A1"></path>
<path d="M172.217 151.176C172.72 151.176 173.111 151.176 173.167 151.176C175.792 151.288 177.802 151.792 178.64 152.016C181.098 152.631 183.053 153.582 184.561 154.421C182.997 153.246 180.372 151.512 177.411 150.337C176.518 150.001 175.624 149.722 175.512 149.666C173.39 148.994 171.714 148.77 170.653 148.603C169.257 148.435 168.252 148.323 167.861 148.323C167.47 148.323 167.134 148.323 166.743 148.323C163.169 148.323 159.985 149.218 159.985 149.218C156.802 150.113 154.344 151.624 152.78 152.799C152.054 153.582 151.272 154.645 150.602 155.988C149.261 158.506 148.87 160.855 148.759 162.366C150.211 160.408 152.613 157.778 156.131 155.54C157.025 154.981 159.818 153.302 163.727 152.183C163.727 152.239 167.693 151.12 172.217 151.176Z" fill="#C1B7A1"></path>
<path d="M169.816 146.253C170.765 146.365 171.715 146.533 172.664 146.7C175.177 147.26 177.356 148.155 178.975 148.882C180.148 149.442 180.986 149.945 181.321 150.113C181.545 150.225 181.712 150.337 181.88 150.449C183.164 151.232 184.17 152.071 184.728 152.463C185.399 152.967 185.845 153.358 186.236 153.694C186.795 154.198 187.298 154.701 187.689 155.093C188.024 154.701 188.415 154.365 188.75 153.974L190.481 152.239L192.436 150.281L194.335 148.323L195.508 147.148C193.106 144.798 190.258 143.008 187.018 141.665C185.957 141.217 184.84 140.882 183.723 140.602C182.271 140.266 180.819 139.987 179.199 139.819C178.138 139.707 177.021 139.651 175.904 139.651C171.994 139.651 168.363 140.322 165.068 141.721C161.773 143.12 158.813 144.966 156.355 147.428C156.02 147.763 155.685 148.099 155.35 148.491C158.813 146.924 162.666 146.085 166.688 146.085C167.805 146.085 168.81 146.141 169.816 146.253Z" fill="#C1B7A1"></path>
<g opacity="0.2">
<path d="M193.329 183.571L191.542 181.78L188.023 178.256C186.571 179.71 184.895 180.885 182.884 181.725C180.93 182.564 178.584 183.011 175.903 183.011C173.613 183.011 171.546 182.62 169.647 181.836C167.748 181.053 166.128 179.934 164.732 178.479C164.453 178.2 164.174 177.864 163.95 177.584C166.073 184.298 170.541 189.949 176.405 193.642C179.645 193.586 182.549 193.194 185.23 192.355C185.9 192.131 186.571 191.907 187.241 191.627C188.135 191.292 188.972 190.9 189.754 190.453C191.988 189.278 193.999 187.823 195.898 186.144L193.329 183.571Z" fill="#C1B7A1"></path>
<path d="M161.214 175.738C160.767 173.668 160.711 171.71 160.711 171.71C160.655 169.807 160.767 168.185 160.99 167.01C160.208 168.856 159.706 170.479 159.37 171.71C158.477 175.123 158.421 177.864 158.421 179.207C158.421 182.564 158.979 185.753 160.041 188.774C161.66 189.893 163.392 190.844 165.235 191.572C167.469 192.467 169.815 193.082 172.272 193.362C169.759 191.404 163.168 185.473 161.214 175.738Z" fill="#C1B7A1"></path>
<path d="M162.834 160.408C163.225 159.96 164.956 157.89 167.804 155.708C169.089 154.757 170.262 154.03 171.156 153.47C168.475 153.526 163.113 154.03 157.416 157.331C152.836 159.96 149.987 163.317 148.535 165.387C148.535 165.779 148.535 166.171 148.535 166.506C148.535 168.409 148.703 170.311 149.094 172.101C149.373 173.556 149.82 174.955 150.322 176.353C150.434 176.633 150.546 176.913 150.658 177.193C151.495 179.151 152.501 180.997 153.729 182.62C154.456 183.627 155.182 184.634 156.466 185.809C157.025 186.312 157.472 186.704 157.863 186.928C157.472 185.921 157.081 184.466 156.801 182.788C156.41 180.382 156.466 178.535 156.522 177.249C156.578 176.018 156.69 173.668 157.472 170.759C157.918 168.968 159.315 164.66 162.834 160.408Z" fill="#C1B7A1"></path>
<path d="M172.217 151.064C172.72 151.064 173.111 151.064 173.167 151.064C175.792 151.176 177.802 151.68 178.64 151.904C181.098 152.519 183.053 153.47 184.561 154.31C182.997 153.135 180.372 151.4 177.411 150.225C176.518 149.89 175.624 149.61 175.512 149.554C173.39 148.882 171.714 148.659 170.653 148.491C169.257 148.323 168.252 148.211 167.861 148.211C167.47 148.211 167.134 148.211 166.743 148.211C163.169 148.211 159.985 149.106 159.985 149.106C156.802 150.001 154.344 151.512 152.78 152.687C152.054 153.47 151.272 154.533 150.602 155.876C149.261 158.394 148.87 160.744 148.759 162.254C150.211 160.296 152.613 157.666 156.131 155.428C157.025 154.869 159.818 153.191 163.727 152.072C163.727 152.127 167.693 151.009 172.217 151.064Z" fill="#C1B7A1"></path>
</g>
<path d="M174.228 145.861C174.34 145.917 174.507 145.973 174.731 145.973C175.066 145.973 175.177 145.805 175.177 145.638C175.177 145.358 174.954 145.246 174.675 145.246H174.507V144.91H174.675C174.842 144.91 175.122 144.798 175.122 144.575C175.122 144.407 175.01 144.295 174.786 144.295C174.619 144.295 174.451 144.351 174.34 144.463L174.228 144.183C174.34 144.071 174.619 144.015 174.842 144.015C175.289 144.015 175.513 144.295 175.513 144.575C175.513 144.798 175.401 145.022 175.122 145.078C175.401 145.134 175.624 145.358 175.624 145.638C175.624 146.029 175.289 146.309 174.731 146.309C174.451 146.309 174.228 146.253 174.116 146.141L174.228 145.861Z" fill="#4D4A46"></path>
<path d="M174.116 153.526V153.247L174.395 153.023C174.898 152.519 175.177 152.295 175.177 151.96C175.177 151.736 175.066 151.568 174.786 151.568C174.619 151.568 174.451 151.68 174.284 151.736L174.172 151.456C174.34 151.344 174.563 151.232 174.842 151.232C175.345 151.232 175.568 151.568 175.568 151.904C175.568 152.295 175.289 152.631 174.898 152.967L174.731 153.135H175.624V153.47H174.116V153.526Z" fill="#4D4A46"></path>
<path d="M174.787 159.009L174.396 159.233L174.34 158.897L174.898 158.618H175.233V160.856H174.843V159.009H174.787Z" fill="#4D4A46"></path>
<path d="M179.98 168.241L179.589 168.465L179.478 168.129L180.036 167.849H180.371V170.087H179.98V168.241Z" fill="#4D4A46"></path>
<path d="M187.018 170.087V169.807L187.297 169.584C187.8 169.08 188.079 168.856 188.079 168.521C188.079 168.297 187.967 168.129 187.688 168.129C187.52 168.129 187.353 168.241 187.185 168.297L187.073 168.017C187.241 167.905 187.464 167.793 187.744 167.793C188.246 167.793 188.47 168.129 188.47 168.465C188.47 168.856 188.19 169.192 187.8 169.528L187.632 169.696H188.526V170.031H187.018V170.087Z" fill="#4D4A46"></path>
<path d="M195.005 169.64C195.117 169.696 195.285 169.752 195.508 169.752C195.843 169.752 195.955 169.584 195.955 169.416C195.955 169.136 195.731 169.024 195.452 169.024H195.285V168.689H195.452C195.62 168.689 195.899 168.577 195.899 168.353C195.899 168.185 195.787 168.073 195.564 168.073C195.396 168.073 195.229 168.129 195.117 168.241L195.005 167.961C195.117 167.849 195.396 167.793 195.62 167.793C196.066 167.793 196.29 168.073 196.29 168.353C196.29 168.577 196.178 168.8 195.899 168.856C196.178 168.912 196.402 169.136 196.402 169.416C196.402 169.807 196.066 170.087 195.508 170.087C195.229 170.087 195.005 170.031 194.894 169.919L195.005 169.64Z" fill="#4D4A46"></path>
<path d="M147.976 169.024V169.304H147.139V169.024H147.976Z" fill="#4D4A46"></path>
<path d="M148.368 169.64C148.479 169.696 148.647 169.752 148.87 169.752C149.206 169.752 149.317 169.584 149.317 169.416C149.317 169.136 149.094 169.024 148.815 169.024H148.591V168.689H148.759C148.926 168.689 149.206 168.577 149.206 168.353C149.206 168.185 149.094 168.073 148.87 168.073C148.703 168.073 148.535 168.129 148.424 168.241L148.312 167.961C148.424 167.849 148.703 167.793 148.926 167.793C149.373 167.793 149.597 168.073 149.597 168.353C149.597 168.577 149.485 168.8 149.206 168.856C149.485 168.912 149.708 169.136 149.708 169.416C149.708 169.807 149.373 170.087 148.815 170.087C148.535 170.087 148.312 170.031 148.2 169.919L148.368 169.64Z" fill="#4D4A46"></path>
<path d="M155.684 169.024V169.304H154.847V169.024H155.684Z" fill="#4D4A46"></path>
<path d="M155.964 170.087V169.807L156.243 169.584C156.746 169.08 157.025 168.856 157.025 168.521C157.025 168.297 156.913 168.129 156.634 168.129C156.467 168.129 156.299 168.241 156.131 168.297L155.964 168.017C156.131 167.905 156.355 167.793 156.634 167.793C157.137 167.793 157.36 168.129 157.36 168.465C157.36 168.856 157.081 169.192 156.69 169.528L156.522 169.696H157.416V170.031H155.964V170.087Z" fill="#4D4A46"></path>
<path d="M163.615 169.024V169.304H162.722V169.024H163.615Z" fill="#4D4A46"></path>
<path d="M164.509 168.241L164.118 168.465L164.006 168.129L164.564 167.849H164.9V170.087H164.509V168.241Z" fill="#4D4A46"></path>
<path d="M174.954 173.948V174.227H174.061V173.948H174.954Z" fill="#4D4A46"></path>
<path d="M175.904 173.164L175.513 173.388L175.457 173.052L176.016 172.773H176.351V175.011H175.96V173.164H175.904Z" fill="#4D4A46"></path>
<path d="M174.954 181.109V181.389H174.061V181.109H174.954Z" fill="#4D4A46"></path>
<path d="M175.233 182.172V181.892L175.513 181.669C176.015 181.165 176.295 180.941 176.295 180.606C176.295 180.382 176.183 180.214 175.904 180.214C175.736 180.214 175.569 180.326 175.401 180.382L175.289 180.102C175.457 179.99 175.68 179.878 175.959 179.878C176.462 179.878 176.686 180.214 176.686 180.55C176.686 180.941 176.406 181.277 176.015 181.613L175.848 181.781H176.741V182.116H175.233V182.172Z" fill="#4D4A46"></path>
<path d="M174.954 188.494V188.774H174.061V188.494H174.954Z" fill="#4D4A46"></path>
<path d="M175.29 189.11C175.401 189.166 175.569 189.222 175.792 189.222C176.127 189.222 176.239 189.054 176.239 188.886C176.239 188.606 176.016 188.494 175.736 188.494H175.513V188.159H175.681C175.848 188.159 176.127 188.047 176.127 187.823C176.127 187.655 176.016 187.543 175.792 187.543C175.625 187.543 175.457 187.599 175.345 187.711L175.234 187.431C175.345 187.32 175.625 187.264 175.848 187.264C176.295 187.264 176.518 187.543 176.518 187.823C176.518 188.047 176.407 188.271 176.127 188.327C176.407 188.383 176.63 188.606 176.63 188.886C176.63 189.278 176.295 189.557 175.736 189.557C175.457 189.557 175.234 189.502 175.122 189.39L175.29 189.11Z" fill="#4D4A46"></path>
<path d="M172.217 139.035V194.649" stroke="#5B5752" stroke-width="0.5" stroke-miterlimit="10"></path>
<path d="M172.217 145.302H173.166" stroke="#5B5752" stroke-width="0.5" stroke-miterlimit="10"></path>
<path d="M172.217 152.407H173.166" stroke="#5B5752" stroke-width="0.5" stroke-miterlimit="10"></path>
<path d="M172.217 159.625H173.166" stroke="#5B5752" stroke-width="0.5" stroke-miterlimit="10"></path>
<path d="M172.217 174.004H173.166" stroke="#5B5752" stroke-width="0.5" stroke-miterlimit="10"></path>
<path d="M172.217 181.109H173.166" stroke="#5B5752" stroke-width="0.5" stroke-miterlimit="10"></path>
<path d="M172.217 188.326H173.166" stroke="#5B5752" stroke-width="0.5" stroke-miterlimit="10"></path>
<path d="M144.458 166.842H199.976" stroke="#5B5752" stroke-width="0.5" stroke-miterlimit="10"></path>
<path d="M148.759 166.842V165.891" stroke="#5B5752" stroke-width="0.5" stroke-miterlimit="10"></path>
<path d="M156.467 166.842V165.891" stroke="#5B5752" stroke-width="0.5" stroke-miterlimit="10"></path>
<path d="M164.342 166.842V165.891" stroke="#5B5752" stroke-width="0.5" stroke-miterlimit="10"></path>
<path d="M180.092 166.842V165.891" stroke="#5B5752" stroke-width="0.5" stroke-miterlimit="10"></path>
<path d="M187.8 166.842V165.891" stroke="#5B5752" stroke-width="0.5" stroke-miterlimit="10"></path>
<path d="M195.676 166.842V165.891" stroke="#5B5752" stroke-width="0.5" stroke-miterlimit="10"></path>
<path d="M193.05 193.754C193.05 193.754 189.028 183.459 184.951 177.864C180.874 172.269 179.087 173.78 176.797 175.57C174.563 177.36 170.374 181.053 167.525 182.172C164.677 183.291 161.996 183.291 160.041 180.997C158.086 178.703 155.796 174.843 155.796 166.786C155.796 158.729 158.086 154.869 160.041 152.575C161.996 150.281 164.677 150.281 167.525 151.4C170.374 152.519 174.563 156.212 176.797 158.002C179.031 159.792 180.818 161.303 184.951 155.708C189.084 150.113 193.05 139.819 193.05 139.819" stroke="#AB4F42" stroke-miterlimit="10"></path>
<path d="M189.34 198.675H122V213.061H189.34V198.675Z" fill="#41527D"></path>
<path d="M171.875 200.802H139.465V210.989H171.875V200.802Z" fill="#506896"></path>
<path d="M127.878 198.675H124.799V213.061H127.878V198.675Z" fill="#506896"></path>
<path d="M132.356 198.675H129.277V213.061H132.356V198.675Z" fill="#506896"></path>
<path d="M182.007 198.675H178.929V213.061H182.007V198.675Z" fill="#506896"></path>
<path d="M186.486 198.675H183.407V213.061H186.486V198.675Z" fill="#506896"></path>
<path d="M189.34 207.631H122V213.117H189.34V207.631Z" fill="#344468"></path>
<path d="M171.875 207.631H139.465V211.046H171.875V207.631Z" fill="#41527D"></path>
<path d="M127.878 207.631H124.799V213.117H127.878V207.631Z" fill="#41527D"></path>
<path d="M132.356 207.631H129.277V213.117H132.356V207.631Z" fill="#41527D"></path>
<path d="M182.007 207.631H178.929V213.117H182.007V207.631Z" fill="#41527D"></path>
<path d="M186.486 207.631H183.407V213.117H186.486V207.631Z" fill="#41527D"></path>
<path d="M131.156 133.965C124.831 139.563 116.602 142.418 107.59 142.642C107.31 142.642 107.03 142.642 106.695 142.642H106.583H106.471C106.191 142.642 105.911 142.642 105.575 142.642C96.6187 142.474 88.3342 139.563 82.0088 133.965L84.4158 143.314L82.0088 143.593L87.4385 164.809H104.232H106.527H108.822H125.615L131.044 143.593L128.637 143.314L131.156 133.965Z" fill="#E6A498"></path>
<path d="M129.869 139.059L130.092 138.108L131.156 134.021C130.932 134.189 130.764 134.357 130.54 134.525C130.316 134.693 130.148 134.861 129.925 135.029C129.701 135.197 129.533 135.365 129.309 135.533C129.085 135.701 128.861 135.869 128.693 135.981C128.469 136.148 128.245 136.316 128.077 136.428C127.629 136.708 127.182 137.044 126.734 137.268C126.51 137.38 126.286 137.548 126.062 137.66C125.894 137.772 125.726 137.884 125.558 137.94C125.502 137.996 125.39 138.052 125.334 138.052C124.887 138.276 124.439 138.5 123.991 138.723C123.543 138.947 123.039 139.171 122.536 139.395C122.312 139.507 122.032 139.619 121.808 139.731C121.584 139.843 121.304 139.955 121.08 140.011C120.856 140.123 120.576 140.179 120.352 140.291C120.129 140.403 119.849 140.459 119.625 140.571C119.401 140.683 119.121 140.739 118.841 140.795C118.617 140.851 118.393 140.907 118.169 141.018C116.826 141.41 115.427 141.746 114.027 141.97C113.803 142.026 113.579 142.026 113.299 142.082C112.74 142.138 112.236 142.25 111.676 142.306C111.116 142.362 110.613 142.418 110.053 142.474C109.493 142.53 108.933 142.53 108.373 142.586C108.15 142.586 107.87 142.586 107.646 142.586C107.31 142.586 106.974 142.586 106.638 142.586H106.582C106.246 142.586 105.911 142.586 105.575 142.586C105.351 142.586 105.071 142.586 104.791 142.586C104.679 142.586 104.623 142.586 104.511 142.586C104.287 142.586 104.063 142.586 103.839 142.53C103.615 142.53 103.336 142.474 103.112 142.474C103 142.474 102.944 142.474 102.832 142.474C102.664 142.474 102.496 142.474 102.328 142.418C94.6032 141.69 87.4942 138.891 81.9525 133.965L82.2323 135.085C86.3186 138.5 94.8831 144.265 106.47 144.881C112.124 145.161 118.561 144.209 125.502 141.13L124.663 145.665L126.734 145.776L122.48 162.961L88.4458 163.577L82.7921 143.537L81.8965 143.649L87.3262 164.865H125.446L130.316 145.944L130.932 143.649L128.525 143.369L129.869 139.059Z" fill="#D79186"></path>
<path d="M106.918 164.809H106.639H106.359H87.6064L100.033 213.116H106.303H106.695H107.31H113.356L125.783 164.809H106.918ZM111.509 210.43H107.198H106.583H106.191H101.713L90.2933 167.327H106.359H106.974H123.04L111.509 210.43Z" fill="#AB4F42"></path>
<path d="M145.711 98.3643C145.319 98.3083 144.983 98.3083 144.647 98.3083L145.039 95.1737L144.423 93.3824C144.199 92.8226 143.975 92.2629 143.696 91.7591C143.696 91.7031 143.64 91.7031 143.64 91.6471C143.584 91.5352 143.472 91.3672 143.416 91.2553C143.36 91.1993 143.36 91.1433 143.304 91.0873C143.248 90.9754 143.136 90.8634 143.08 90.6955C143.024 90.6395 143.024 90.5836 142.968 90.5276C142.912 90.4156 142.8 90.3037 142.688 90.1917C142.632 90.1357 142.576 90.0798 142.576 90.0238C142.464 89.9118 142.408 89.7999 142.296 89.6879C142.24 89.632 142.184 89.576 142.128 89.52C142.016 89.4081 141.96 89.2961 141.848 89.2401C141.792 89.1841 141.736 89.1841 141.736 89.1282C141.512 88.9602 141.345 88.7363 141.121 88.5684C141.065 88.5124 141.009 88.5124 140.953 88.4564C140.841 88.4005 140.785 88.3445 140.673 88.2325C140.617 88.1766 140.505 88.1206 140.449 88.0646C140.337 88.0086 140.281 87.9527 140.169 87.8967C140.057 87.8407 140.001 87.7847 139.889 87.7287C139.777 87.6728 139.721 87.6168 139.609 87.5608C139.497 87.5048 139.441 87.4489 139.329 87.3929C139.217 87.3369 139.161 87.2809 139.049 87.225C138.938 87.169 138.882 87.113 138.77 87.113C138.658 87.057 138.602 87.0011 138.49 87.0011C138.378 86.9451 138.266 86.8891 138.154 86.8891C138.042 86.8331 137.986 86.8331 137.874 86.7771C137.762 86.7212 137.65 86.7212 137.538 86.6652C137.482 86.6652 137.37 86.6092 137.314 86.6092C137.09 86.5532 136.922 86.4973 136.698 86.4413C136.027 86.2734 135.411 86.2174 134.683 86.1614L128.75 85.9375H128.246C124.943 85.9375 122.144 83.7544 121.305 80.7317C121.137 80.1159 121.025 79.4442 121.025 78.7165C121.025 78.2687 121.081 77.7649 121.137 77.3171C121.137 77.3171 121.137 77.3731 121.081 77.3731C120.633 78.1567 120.129 78.8844 119.514 79.6121C116.715 82.9707 112.517 85.0978 107.814 85.0978L106.583 85.1538H106.527L78.5386 86.2174C74.1165 86.3853 70.2541 89.2401 68.7427 93.3824L68.127 95.1737L68.4628 97.8605L68.7427 97.0769C70.2541 92.9346 74.1165 90.0798 78.5386 89.9118L106.527 88.8483L107.758 88.7923C112.293 88.7923 116.379 86.8331 119.122 83.6424C119.905 86.5532 122.48 88.7923 125.615 88.9602C125.951 88.9602 126.287 89.0162 126.623 89.0722L132.22 89.9118C133.844 89.9678 135.411 90.4156 136.81 91.0873L137.258 97.1888C137.258 97.1888 141.065 133.014 119.346 140.515C122.648 139.395 125.727 137.828 128.526 135.869C128.75 135.701 128.974 135.533 129.198 135.365C129.533 135.141 129.813 134.861 130.093 134.637C130.261 134.525 130.429 134.357 130.597 134.189C130.877 133.966 131.157 133.686 131.493 133.406C131.661 133.294 131.772 133.126 131.94 132.958C132.612 132.342 133.228 131.67 133.844 130.999C138.266 126.017 141.345 120.027 142.8 111.743L142.856 111.183C143.248 111.295 143.696 111.407 144.143 111.463C147.838 111.855 151.084 109.224 151.532 105.585C152.036 102.115 149.405 98.7562 145.711 98.3643Z" fill="#E6A498"></path>
<path d="M67.4551 95.0617L67.735 98.6442L78.5385 104.858L79.0423 112.582C79.1542 114.542 80.7775 116.109 82.7367 116.165L100.145 116.389C102.273 116.445 104.064 114.71 104.064 112.582L104.232 101.499L79.8259 100.827L67.4551 95.0617Z" fill="#E6A498"></path>
<path d="M140.896 98.4764V102.675L136.922 104.914L136.25 112.415C136.138 114.374 134.515 115.941 132.5 115.997L115.091 116.725C112.964 116.781 111.173 115.045 111.173 112.918V101.555L135.579 100.883L140.896 98.4764Z" fill="#E6A498"></path>
<path d="M67.1191 94.7818L78.7623 99.8757L103.168 100.547V111.911C103.168 114.038 101.377 115.773 99.2498 115.717L81.6731 115.269C79.7139 115.213 78.0906 113.646 77.9786 111.687L77.4748 103.962L67.567 98.4203L67.1191 94.7818Z" fill="#2E2C2F"></path>
<path d="M101.713 103.178V111.911C101.713 113.198 100.65 114.262 99.3622 114.206L97.9627 114.15L96.0595 114.094H95.9476L94.2683 114.038H93.4846H92.3651H91.5814L81.7295 113.814C80.554 113.758 79.5464 112.862 79.4904 111.631L79.3785 109.951L79.2665 108.048L79.1546 106.201L78.9307 102.619L82.6251 102.675L84.5283 102.73L97.6829 103.01L101.713 103.178Z" fill="#71B2C8"></path>
<path d="M97.5706 103.122V108.72C97.5706 109.616 96.7869 110.399 95.8913 110.399L79.2662 110.063L78.8184 102.786L97.5706 103.122Z" fill="#8BC4D7"></path>
<path d="M84.4717 102.842L79.1539 108.104L79.042 106.257L82.5126 102.786H82.5685L84.4717 102.842Z" fill="#BFE2E9"></path>
<path d="M101.713 104.689V106.649L94.2118 114.15L93.4281 114.094H92.3086L101.713 104.689Z" fill="#BFE2E9"></path>
<path d="M96.0029 114.15L101.713 108.496V110.455L97.9621 114.206L96.0029 114.15Z" fill="#BFE2E9"></path>
<path d="M146.102 94.7818L134.459 99.8757L110.053 100.547V111.911C110.053 114.038 111.844 115.773 113.971 115.717L131.548 115.269C133.507 115.213 135.13 113.646 135.242 111.687L135.746 103.962L145.654 98.4203L146.102 94.7818Z" fill="#2E2C2F"></path>
<path d="M134.403 102.73L134.291 104.074L134.179 106.201V106.313L134.067 108.16L133.955 110.063V110.287L133.843 111.799C133.787 112.974 132.78 113.926 131.604 113.982H130.261L128.246 114.038L126.398 114.094L124.383 114.15L121.696 114.206H120.913H119.793H119.009L117.33 114.261H117.218L115.315 114.317L113.915 114.373C112.628 114.429 111.564 113.366 111.564 112.078V103.346L114.699 103.29L116.714 103.234L128.805 102.954L130.708 102.898L134.403 102.73Z" fill="#71B2C8"></path>
<path d="M111.508 110.623L128.133 110.231C129.085 110.231 129.812 109.504 129.868 108.552L130.26 102.786L111.508 103.178V110.623Z" fill="#8BC4D7"></path>
<path d="M116.658 103.066L111.508 108.216V106.257L114.698 103.122L116.658 103.066Z" fill="#BFE2E9"></path>
<path d="M134.347 104.074L134.179 106.201L126.398 113.982L124.383 114.038L134.347 104.074Z" fill="#BFE2E9"></path>
<path d="M134.068 108.104L133.956 110.007V110.231L130.261 113.87L128.246 113.926L134.068 108.104Z" fill="#BFE2E9"></path>
<path d="M108.99 103.682C108.598 103.29 108.094 103.066 107.534 103.066H107.142H106.583H106.135H105.631C105.071 103.066 104.568 103.29 104.176 103.682L103.84 104.018L103.896 106.873L104.568 106.481C105.015 106.257 105.463 106.089 105.967 106.089H106.191H106.639H107.198H107.31C107.814 106.089 108.262 106.201 108.71 106.481L109.382 106.873L109.438 104.018L108.99 103.682Z" fill="#2E2C2F"></path>
<path d="M206.515 174.66H195.823V199.682H206.515V174.66Z" fill="#AB4F42"></path>
<path d="M206.515 205.951H195.823V213.117H206.515V205.951Z" fill="#F0EFEF"></path>
<path d="M208.082 199.738H194.2V205.951H208.082V199.738Z" fill="#848585"></path>
<path d="M206.515 174.66C206.515 175.78 205.227 176.732 203.324 177.179C202.652 177.347 201.925 177.403 201.141 177.403C198.174 177.403 195.823 176.172 195.823 174.66L196.327 173.485L201.141 162.57L205.955 173.485L206.515 174.66Z" fill="#DAD3BE"></path>
<path d="M203.492 167.887C203.044 168.111 202.54 168.223 201.981 168.335C201.701 168.391 201.421 168.391 201.141 168.391C200.301 168.391 199.518 168.223 198.79 167.887L201.141 162.57L203.492 167.887Z" fill="#2B282A"></path>
<path d="M206.515 174.66V199.738H203.492L203.324 177.179L202.933 174.66H206.515Z" fill="#94423B"></path>
<path d="M206.514 174.66C206.514 175.78 205.227 176.732 203.324 177.179L201.141 162.57L205.955 173.485L206.514 174.66Z" fill="#C4BDAD"></path>
<path d="M203.492 167.887C203.044 168.111 202.54 168.223 201.98 168.335L201.141 162.57L203.492 167.887Z" fill="#191718"></path>
<path d="M206.459 205.951H203.492V213.117H206.459V205.951Z" fill="#CFCFCE"></path>
<path d="M208.082 199.738H205.115V205.951H208.082V199.738Z" fill="#6B6B6B"></path>
<path d="M208.082 205.224H194.2V205.951H208.082V205.224Z" fill="#6B6B6B"></path>
<defs>
<linearGradient id="paint0_linear_531_585" x1="106.453" y1="0" x2="106.453" y2="237.408" gradientUnits="userSpaceOnUse">
<stop stop-color="#313149"></stop>
<stop offset="1" stop-color="#313149" stop-opacity="0.5"></stop>
</linearGradient>
</defs>
</svg>
