<svg width="200" height="200" viewBox="0 0 200 200" fill="none" xmlns="http://www.w3.org/2000/svg">
    <path
        d="M196.72 179.88H9.48001C9.32001 179.88 9.20001 179.56 9.20001 179.16C9.20001 178.76 9.32001 178.44 9.48001 178.44H196.76"
        fill="#4FC1EA" />
    <path
        d="M104.32 149.88H159.52V150.72H104.32V149.88ZM104.32 76.44H159.52V77.44H104.32V76.44ZM154.72 89H156.48V91.4H154.72V89ZM154.72 81.88H156.48V83.92H154.72V81.88ZM154.72 85.24H156.48V87.64H154.72V85.24ZM154.72 92.76H156.48V94.8H154.72V92.76ZM154.64 162.56H156.4V164.96H154.64V162.56ZM154.64 155.44H156.4V157.48H154.64V155.44ZM154.64 136.96H156.4V139.36H154.64V136.96ZM154.64 129.88H156.4V131.92H154.64V129.88ZM151.32 118.16H156.4V122.68H151.32V118.16ZM154.64 133.2H156.4V135.6H154.64V133.2ZM154.64 140.72H156.4V142.76H154.64V140.72ZM154.64 158.8H156.4V161.2H154.64V158.8ZM154.64 166.32H156.4V168.36H154.64V166.32ZM151.32 92.76H153.4V94.8H151.32V92.76ZM151.32 89H153.4V91.4H151.32V89ZM151.32 85.24H153.4V87.64H151.32V85.24ZM151.32 81.88H153.4V83.92H151.32V81.88ZM151.24 166.32H153.32V168.36H151.24V166.32ZM151.24 162.56H153.32V164.96H151.24V162.56ZM151.24 158.8H153.32V161.2H151.24V158.8ZM151.24 155.44H153.32V157.48H151.24V155.44ZM151.24 140.72H153.32V142.76H151.24V140.72ZM151.24 136.96H153.32V139.36H151.24V136.96ZM151.24 133.2H153.32V135.6H151.24V133.2ZM151.24 129.88H153.32V131.92H151.24V129.88ZM147.84 92.76H149.96V94.8H147.84V92.76ZM147.84 89H149.96V91.4H147.84V89ZM147.84 85.24H149.96V87.64H147.84V85.24ZM147.84 81.88H149.96V83.92H147.84V81.88ZM147.76 166.32H149.92V168.36H147.76V166.32ZM147.76 162.56H149.92V164.96H147.76V162.56ZM147.76 158.8H149.92V161.2H147.76V158.8ZM147.76 155.44H149.92V157.48H147.76V155.44ZM147.76 140.72H149.92V142.76H147.76V140.72ZM147.76 136.96H149.92V139.36H147.76V136.96ZM147.76 133.2H149.92V135.6H147.76V133.2ZM147.76 129.88H149.92V131.92H147.76V129.88ZM144.8 92.76H146.52V94.8H144.8V92.76ZM144.8 89H146.52V91.4H144.8V89ZM144.8 85.24H146.52V87.64H144.8V85.24ZM144.8 81.88H146.52V83.92H144.8V81.88ZM144.72 166.32H146.44V168.36H144.72V166.32ZM144.72 162.56H146.44V164.96H144.72V162.56ZM144.72 158.8H146.44V161.2H144.72V158.8ZM144.72 155.44H146.44V157.48H144.72V155.44ZM144.72 140.72H146.44V142.76H144.72V140.72ZM144.72 136.96H146.44V139.36H144.72V136.96ZM144.72 133.2H146.44V135.6H144.72V133.2ZM144.72 129.88H146.44V131.92H144.72V129.88ZM144.72 118.16H149.96V122.68H144.72V118.16ZM143.28 96.08H158V96.44H143.28V96.08ZM143.2 124H157.92V124.36H143.2V124ZM143.2 144.08H157.92V144.44H143.2V144.08ZM143.2 169.68H157.92V170.04H143.2V169.68Z"
        fill="white" />
    <path
        d="M159.52 177.92V152.04H104.32V177.92H124.88V154.8C124.88 154.44 125.16 154.12 125.56 154.12H138.32C138.68 154.12 139 154.4 139 154.8V177.92H159.52ZM121.84 170.68C121.84 171.04 121.56 171.36 121.16 171.36H105.12C104.76 171.36 104.44 171.08 104.44 170.68V169C104.44 168.64 104.72 168.32 105.12 168.32H105.96V154.8C105.96 154.44 106.24 154.12 106.64 154.12H119.64C120 154.12 120.32 154.4 120.32 154.8V168.32H121.16C121.52 168.32 121.84 168.6 121.84 169V170.68ZM141.88 169C141.88 168.64 142.16 168.32 142.56 168.32H143.4V154.8C143.4 154.44 143.68 154.12 144.08 154.12H157.08C157.44 154.12 157.76 154.4 157.76 154.8V168.32H158.6C158.96 168.32 159.28 168.6 159.28 169V170.68C159.28 171.04 159 171.36 158.6 171.36H142.56C142.2 171.36 141.88 171.08 141.88 170.68V169ZM159.52 78.76H104.32V148.52H159.52V78.76ZM121.84 145.08C121.84 145.44 121.56 145.76 121.16 145.76H105.12C104.76 145.76 104.44 145.48 104.44 145.08V143.4C104.44 143.04 104.72 142.72 105.12 142.72H105.96V129.2C105.96 128.84 106.24 128.52 106.64 128.52H119.64C120 128.52 120.32 128.8 120.32 129.2V142.72H121.16C121.52 142.72 121.84 143 121.84 143.4V145.08ZM121.84 125C121.84 125.36 121.56 125.68 121.16 125.68H105.12C104.76 125.68 104.44 125.4 104.44 125V123.32C104.44 122.96 104.72 122.64 105.12 122.64H105.96V100.84C105.96 100.48 106.24 100.16 106.64 100.16H119.64C120 100.16 120.32 100.44 120.32 100.84V122.64H121.16C121.52 122.64 121.84 122.92 121.84 123.32V125ZM121.92 97.12C121.92 97.48 121.64 97.8 121.24 97.8H105.2C104.84 97.8 104.52 97.52 104.52 97.12V95.44C104.52 95.08 104.8 94.76 105.2 94.76H106.04V81.24C106.04 80.88 106.32 80.56 106.72 80.56H119.72C120.08 80.56 120.4 80.84 120.4 81.24V94.76H121.24C121.6 94.76 121.92 95.04 121.92 95.44V97.12ZM140.56 145.08C140.56 145.44 140.28 145.76 139.88 145.76H123.84C123.48 145.76 123.16 145.48 123.16 145.08V143.4C123.16 143.04 123.44 142.72 123.84 142.72H124.68V129.2C124.68 128.84 124.96 128.52 125.36 128.52H138.36C138.72 128.52 139.04 128.8 139.04 129.2V142.72H139.88C140.24 142.72 140.56 143 140.56 143.4V145.08ZM140.56 125C140.56 125.36 140.28 125.68 139.88 125.68H123.84C123.48 125.68 123.16 125.4 123.16 125V123.32C123.16 122.96 123.44 122.64 123.84 122.64H124.68V100.84C124.68 100.48 124.96 100.16 125.36 100.16H138.36C138.72 100.16 139.04 100.44 139.04 100.84V122.64H139.88C140.24 122.64 140.56 122.92 140.56 123.32V125ZM140.64 97.12C140.64 97.48 140.36 97.8 139.96 97.8H123.92C123.56 97.8 123.24 97.52 123.24 97.12V95.44C123.24 95.08 123.52 94.76 123.92 94.76H124.76V81.16C124.76 80.8 125.04 80.48 125.44 80.48H138.44C138.8 80.48 139.12 80.76 139.12 81.16V94.68H139.96C140.32 94.68 140.64 94.96 140.64 95.36V97.12ZM159.28 145.08C159.28 145.44 159 145.76 158.6 145.76H142.56C142.2 145.76 141.88 145.48 141.88 145.08V143.4C141.88 143.04 142.16 142.72 142.56 142.72H143.4V129.2C143.4 128.84 143.68 128.52 144.08 128.52H157.08C157.44 128.52 157.76 128.8 157.76 129.2V142.72H158.6C158.96 142.72 159.28 143 159.28 143.4V145.08ZM159.28 125C159.28 125.36 159 125.68 158.6 125.68H142.56C142.2 125.68 141.88 125.4 141.88 125V123.32C141.88 122.96 142.16 122.64 142.56 122.64H143.4V100.84C143.4 100.48 143.68 100.16 144.08 100.16H157.08C157.44 100.16 157.76 100.44 157.76 100.84V122.64H158.6C158.96 122.64 159.28 122.92 159.28 123.32V125ZM158.68 97.8H142.64C142.28 97.8 141.96 97.52 141.96 97.12V95.44C141.96 95.08 142.24 94.76 142.64 94.76H143.48V81.24C143.48 80.88 143.76 80.56 144.16 80.56H157.16C157.52 80.56 157.84 80.84 157.84 81.24V94.76H158.68C159.04 94.76 159.36 95.04 159.36 95.44V97.12C159.36 97.48 159.04 97.8 158.68 97.8Z"
        fill="white" />
    <path
        d="M136 89H137.76V91.4H136V89ZM136 81.88H137.76V83.92H136V81.88ZM136 85.24H137.76V87.64H136V85.24ZM136 92.76H137.76V94.8H136V92.76ZM135.92 136.96H137.68V139.36H135.92V136.96ZM135.92 129.88H137.68V131.92H135.92V129.88ZM132.6 118.16H137.68V122.68H132.6V118.16ZM135.92 133.2H137.68V135.6H135.92V133.2ZM135.92 140.72H137.68V142.76H135.92V140.72ZM135.88 157.4H127.92V177.92H135.88V157.4ZM135.28 169.52C135.28 169.88 135 170.2 134.6 170.2C134.24 170.2 133.92 169.92 133.92 169.52V166.68C133.92 166.32 134.2 166 134.6 166C134.96 166 135.28 166.28 135.28 166.68V169.52ZM132.6 92.76H134.68V94.8H132.6V92.76ZM132.6 89H134.68V91.4H132.6V89ZM132.6 85.24H134.68V87.64H132.6V85.24ZM132.6 81.88H134.68V83.92H132.6V81.88ZM132.52 140.72H134.6V142.76H132.52V140.72ZM132.52 136.96H134.6V139.36H132.52V136.96ZM132.52 133.2H134.6V135.6H132.52V133.2ZM132.52 129.88H134.6V131.92H132.52V129.88ZM123.08 53.8H140.76C140.4 49.2 136.56 45.6 131.92 45.6C127.24 45.6 123.4 49.2 123.08 53.8ZM124.56 69.68H139.24C138.92 65.92 135.72 62.96 131.88 62.96C128.04 62.96 124.88 65.92 124.56 69.68ZM129.16 92.76H131.28V94.8H129.16V92.76ZM129.16 89H131.28V91.4H129.16V89ZM129.16 85.24H131.28V87.64H129.16V85.24ZM129.16 81.88H131.28V83.92H129.16V81.88ZM129.08 140.72H131.2V142.76H129.08V140.72ZM129.08 136.96H131.2V139.36H129.08V136.96ZM129.08 133.2H131.2V135.6H129.08V133.2ZM129.08 129.88H131.2V131.92H129.08V129.88ZM126.12 92.76H127.84V94.8H126.12V92.76ZM126.12 89H127.84V91.4H126.12V89ZM126.12 85.24H127.84V87.64H126.12V85.24ZM126.12 81.88H127.84V83.92H126.12V81.88ZM126.04 140.72H127.76V142.76H126.04V140.72ZM126.04 136.96H127.76V139.36H126.04V136.96ZM126.04 133.2H127.76V135.6H126.04V133.2ZM126.04 129.88H127.76V131.92H126.04V129.88Z"
        fill="white" />
    <path
        d="M137.6 177.92V155.48H126.2V177.92H126.6V156.72C126.6 156.36 126.88 156.04 127.28 156.04H136.56C136.92 156.04 137.24 156.32 137.24 156.72V177.92H137.6ZM126.04 118.16H131.28V122.68H126.04V118.16ZM124.6 96.08H139.32V96.44H124.6V96.08ZM124.52 124H139.24V124.36H124.52V124ZM124.52 144.08H139.24V144.44H124.52V144.08ZM122.76 71H141.04V71.48H122.76V71ZM117.28 89H119.04V91.4H117.28V89ZM117.28 81.88H119.04V83.92H117.28V81.88ZM117.28 85.24H119.04V87.64H117.28V85.24ZM117.28 92.76H119.04V94.8H117.28V92.76ZM117.2 162.56H118.96V164.96H117.2V162.56ZM117.2 155.44H118.96V157.48H117.2V155.44ZM117.2 136.96H118.96V139.36H117.2V136.96ZM117.2 129.88H118.96V131.92H117.2V129.88ZM113.88 118.16H118.96V122.68H113.88V118.16ZM117.2 133.2H118.96V135.6H117.2V133.2ZM117.2 140.72H118.96V142.76H117.2V140.72ZM117.2 158.8H118.96V161.2H117.2V158.8ZM117.2 166.32H118.96V168.36H117.2V166.32ZM113.88 92.76H115.96V94.8H113.88V92.76ZM113.88 89H115.96V91.4H113.88V89ZM113.88 85.24H115.96V87.64H113.88V85.24ZM113.88 81.88H115.96V83.92H113.88V81.88ZM113.8 166.32H115.88V168.36H113.8V166.32ZM113.8 162.56H115.88V164.96H113.8V162.56ZM113.8 158.8H115.88V161.2H113.8V158.8ZM113.8 155.44H115.88V157.48H113.8V155.44ZM113.8 140.72H115.88V142.76H113.8V140.72ZM113.8 136.96H115.88V139.36H113.8V136.96ZM113.8 133.2H115.88V135.6H113.8V133.2ZM113.8 129.88H115.88V131.92H113.8V129.88ZM110.44 92.76H112.56V94.8H110.44V92.76ZM110.44 89H112.56V91.4H110.44V89ZM110.44 85.24H112.56V87.64H110.44V85.24ZM110.44 81.88H112.56V83.92H110.44V81.88ZM110.36 166.32H112.52V168.36H110.36V166.32ZM110.36 162.56H112.52V164.96H110.36V162.56ZM110.36 158.8H112.52V161.2H110.36V158.8ZM110.36 155.44H112.52V157.48H110.36V155.44ZM110.36 140.72H112.52V142.76H110.36V140.72ZM110.36 136.96H112.52V139.36H110.36V136.96ZM110.36 133.2H112.52V135.6H110.36V133.2ZM110.36 129.88H112.52V131.92H110.36V129.88ZM107.4 92.76H109.12V94.8H107.4V92.76ZM107.4 89H109.12V91.4H107.4V89ZM107.4 85.24H109.12V87.64H107.4V85.24ZM107.4 81.88H109.12V83.92H107.4V81.88ZM107.32 166.32H109.04V168.36H107.32V166.32ZM107.32 162.56H109.04V164.96H107.32V162.56ZM107.32 158.8H109.04V161.2H107.32V158.8ZM107.32 155.44H109.04V157.48H107.32V155.44ZM107.32 140.72H109.04V142.76H107.32V140.72ZM107.32 136.96H109.04V139.36H107.32V136.96ZM107.32 133.2H109.04V135.6H107.32V133.2ZM107.32 129.88H109.04V131.92H107.32V129.88ZM107.32 118.16H112.56V122.68H107.32V118.16ZM105.88 96.08H120.6V96.44H105.88V96.08ZM105.8 124H120.52V124.36H105.8V124ZM105.8 144.08H120.52V144.44H105.8V144.08ZM105.8 169.68H120.52V170.04H105.8V169.68Z"
        fill="white" />
    <path
        d="M121.16 142.72H120.32V129.2C120.32 128.84 120.04 128.52 119.64 128.52H106.64C106.28 128.52 105.96 128.8 105.96 129.2V142.72H105.12C104.76 142.72 104.44 143 104.44 143.4V145.08C104.44 145.44 104.72 145.76 105.12 145.76H121.16C121.52 145.76 121.84 145.48 121.84 145.08V143.4C121.84 143.04 121.56 142.72 121.16 142.72ZM120.52 144.44H105.8V144.08H120.52V144.44ZM113.8 139.36V136.96H115.88V139.36H113.8ZM117.2 136.96H118.96V139.36H117.2V136.96ZM117.2 133.2H118.96V135.6H117.2V133.2ZM115.88 135.64H113.8V133.24H115.88V135.64ZM112.48 135.64H110.32V133.24H112.48V135.64ZM109 135.64H107.28V133.24H109V135.64ZM110.36 136.96H112.52V139.36H110.36V136.96ZM112.48 140.72V142.76H110.32V140.72H112.48ZM113.8 140.72H115.88V142.76H113.8V140.72ZM107.32 136.96H109.04V139.36H107.32V136.96ZM117.2 142.72V140.68H118.96V142.72H117.2ZM119 131.88H117.2V129.84H118.96V131.88H119ZM115.88 131.88H113.8V129.84H115.88V131.88ZM112.48 131.88H110.32V129.84H112.48V131.88ZM109 131.88H107.28V129.84H109V131.88ZM107.32 140.72H109.04V142.76H107.32V140.72ZM121.16 168.32H120.32V154.8C120.32 154.44 120.04 154.12 119.64 154.12H106.64C106.28 154.12 105.96 154.4 105.96 154.8V168.32H105.12C104.76 168.32 104.44 168.6 104.44 169V170.68C104.44 171.04 104.72 171.36 105.12 171.36H121.16C121.52 171.36 121.84 171.08 121.84 170.68V169C121.84 168.64 121.56 168.32 121.16 168.32ZM120.52 170.04H105.8V169.68H120.52V170.04ZM119 157.48H117.2V155.44H118.96V157.48H119ZM113.8 168.32V166.28H115.88V168.32H113.8ZM110.36 168.32V166.28H112.52V168.32H110.36ZM115.88 161.24H113.8V158.84H115.88V161.24ZM113.8 165V162.6H115.88V165H113.8ZM117.2 162.56H118.96V164.96H117.2V162.56ZM117.2 158.8H118.96V161.2H117.2V158.8ZM112.48 158.8V161.2H110.32V158.8H112.48ZM109 161.24H107.28V158.84H109V161.24ZM110.36 162.56H112.52V164.96H110.36V162.56ZM115.88 157.48H113.8V155.44H115.88V157.48ZM112.48 157.48H110.32V155.44H112.48V157.48ZM107.32 162.56H109.04V164.96H107.32V162.56ZM117.2 168.32V166.28H118.96V168.32H117.2ZM109 155.44V157.48H107.28V155.44H109ZM107.32 166.32H109.04V168.36H107.32V166.32ZM121.24 94.76H120.4V81.24C120.4 80.88 120.12 80.56 119.72 80.56H106.72C106.36 80.56 106.04 80.84 106.04 81.24V94.76H105.2C104.84 94.76 104.52 95.04 104.52 95.44V97.12C104.52 97.48 104.8 97.8 105.2 97.8H121.24C121.6 97.8 121.92 97.52 121.92 97.12V95.44C121.92 95.08 121.64 94.76 121.24 94.76ZM120.6 96.44H105.88V96.08H120.6V96.44ZM112.56 81.88V83.92H110.44V81.88H112.56ZM115.96 81.88V83.92H113.88V81.88H115.96ZM119.08 81.88V83.92H117.32V81.88H119.08ZM115.96 87.68H113.88V85.28H115.96V87.68ZM113.88 91.4V89H115.96V91.4H113.88ZM117.28 89H119.04V91.4H117.28V89ZM117.28 85.24H119.04V87.64H117.28V85.24ZM112.56 85.24V87.64H110.44V85.24H112.56ZM109.08 87.68H107.36V85.28H109.08V87.68ZM110.44 89H112.56V91.4H110.44V89ZM112.56 92.76V94.8H110.44V92.76H112.56ZM113.88 92.76H115.96V94.8H113.88V92.76ZM107.4 89H109.12V91.4H107.4V89ZM117.28 94.76V92.72H119.04V94.76H117.28ZM109.08 81.88V83.92H107.36V81.88H109.08ZM107.4 92.76H109.12V94.8H107.4V92.76ZM121.16 122.64H120.32V100.84C120.32 100.48 120.04 100.16 119.64 100.16H106.64C106.28 100.16 105.96 100.44 105.96 100.84V122.64H105.12C104.76 122.64 104.44 122.92 104.44 123.32V125C104.44 125.36 104.72 125.68 105.12 125.68H121.16C121.52 125.68 121.84 125.4 121.84 125V123.32C121.84 122.96 121.56 122.64 121.16 122.64ZM120.52 124.36H105.8V124H120.52V124.36ZM119 116.84H107.32V101.52H119V116.84ZM113.88 122.64V118.12H118.96V122.64H113.88ZM107.32 118.16H112.56V122.68H107.32V118.16ZM139.88 142.72H139.04V129.2C139.04 128.84 138.76 128.52 138.36 128.52H125.36C125 128.52 124.68 128.8 124.68 129.2V142.72H123.84C123.48 142.72 123.16 143 123.16 143.4V145.08C123.16 145.44 123.44 145.76 123.84 145.76H139.88C140.24 145.76 140.56 145.48 140.56 145.08V143.4C140.56 143.04 140.24 142.72 139.88 142.72ZM139.24 144.44H124.52V144.08H139.24V144.44ZM132.52 139.36V136.96H134.6V139.36H132.52ZM135.92 136.96H137.68V139.36H135.92V136.96ZM135.92 133.2H137.68V135.6H135.92V133.2ZM134.6 135.64H132.52V133.24H134.6V135.64ZM131.2 135.64H129.08V133.24H131.2V135.64ZM127.72 135.64H126V133.24H127.72V135.64ZM129.08 136.96H131.2V139.36H129.08V136.96ZM131.2 140.72V142.76H129.08V140.72H131.2ZM132.52 140.72H134.6V142.76H132.52V140.72ZM126.04 136.96H127.76V139.36H126.04V136.96ZM135.92 142.72V140.68H137.68V142.72H135.92ZM137.72 131.88H135.96V129.84H137.72V131.88ZM134.6 131.88H132.52V129.84H134.6V131.88ZM131.2 131.88H129.08V129.84H131.2V131.88ZM127.72 131.88H126V129.84H127.72V131.88ZM126.04 140.72H127.76V142.76H126.04V140.72ZM139.96 94.76H139.12V81.24C139.12 80.88 138.84 80.56 138.44 80.56H125.44C125.08 80.56 124.76 80.84 124.76 81.24V94.8H123.92C123.56 94.8 123.24 95.08 123.24 95.48V97.16C123.24 97.52 123.52 97.84 123.92 97.84H139.96C140.32 97.84 140.64 97.56 140.64 97.16V95.48C140.64 95.08 140.32 94.76 139.96 94.76ZM139.32 96.44H124.6V96.08H139.32V96.44ZM131.28 81.88V83.92H129.16V81.88H131.28ZM134.68 81.88V83.92H132.6V81.88H134.68ZM137.76 81.88V83.92H136V81.88H137.76ZM137.76 87.68H136V85.28H137.76V87.68ZM137.76 91.4H136V89H137.76V91.4ZM134.68 87.68H132.6V85.28H134.68V87.68ZM132.6 91.4V89H134.68V91.4H132.6ZM131.28 85.24V87.64H129.16V85.24H131.28ZM127.8 87.68H126.08V85.28H127.8V87.68ZM127.8 89V91.4H126.08V89H127.8ZM129.16 89H131.28V91.4H129.16V89ZM131.28 92.76V94.8H129.16V92.76H131.28ZM132.6 92.76H134.68V94.8H132.6V92.76ZM136 94.76V92.72H137.76V94.76H136ZM127.8 81.88V83.92H126.08V81.88H127.8ZM127.8 92.76V94.8H126.08V92.76H127.8ZM139.88 122.64H139.04V100.84C139.04 100.48 138.76 100.16 138.36 100.16H125.36C125 100.16 124.68 100.44 124.68 100.84V122.64H123.84C123.48 122.64 123.16 122.92 123.16 123.32V125C123.16 125.36 123.44 125.68 123.84 125.68H139.88C140.24 125.68 140.56 125.4 140.56 125V123.32C140.56 122.96 140.24 122.64 139.88 122.64ZM139.24 124.36H124.52V124H139.24V124.36ZM137.72 116.84H126.04V101.52H137.72V116.84ZM132.6 122.64V118.12H137.68V122.64H132.6ZM126.04 118.16H131.28V122.68H126.04V118.16ZM158.6 142.72H157.76V129.2C157.76 128.84 157.48 128.52 157.08 128.52H144.08C143.72 128.52 143.4 128.8 143.4 129.2V142.72H142.56C142.2 142.72 141.88 143 141.88 143.4V145.08C141.88 145.44 142.16 145.76 142.56 145.76H158.6C158.96 145.76 159.28 145.48 159.28 145.08V143.4C159.28 143.04 158.96 142.72 158.6 142.72ZM157.92 144.44H143.2V144.08H157.92V144.44ZM156.4 135.64H154.64V133.24H156.4V135.64ZM156.4 139.36H154.64V136.96H156.4V139.36ZM151.24 139.36V136.96H153.32V139.36H151.24ZM153.32 135.64H151.24V133.24H153.32V135.64ZM149.92 135.64H147.76V133.24H149.92V135.64ZM146.44 135.64H144.72V133.24H146.44V135.64ZM146.44 136.96V139.36H144.72V136.96H146.44ZM147.76 136.96H149.92V139.36H147.76V136.96ZM149.92 140.72V142.76H147.76V140.72H149.92ZM151.24 140.72H153.32V142.76H151.24V140.72ZM154.64 142.72V140.68H156.4V142.72H154.64ZM156.4 131.88H154.64V129.84H156.4V131.88ZM153.32 131.88H151.24V129.84H153.32V131.88ZM149.92 131.88H147.76V129.84H149.92V131.88ZM146.44 131.88H144.72V129.84H146.44V131.88ZM146.44 140.72V142.76H144.72V140.72H146.44ZM142.56 171.36H158.6C158.96 171.36 159.28 171.08 159.28 170.68V169C159.28 168.64 159 168.32 158.6 168.32H157.76V154.8C157.76 154.44 157.48 154.12 157.08 154.12H144.08C143.72 154.12 143.4 154.4 143.4 154.8V168.32H142.56C142.2 168.32 141.88 168.6 141.88 169V170.68C141.88 171.04 142.2 171.36 142.56 171.36ZM151.24 168.32V166.28H153.32V168.32H151.24ZM147.76 168.32V166.28H149.92V168.32H147.76ZM156.4 161.24H154.64V158.84H156.4V161.24ZM156.4 165H154.64V162.6H156.4V165ZM153.32 161.24H151.24V158.84H153.32V161.24ZM151.24 165V162.6H153.32V165H151.24ZM149.92 158.8V161.2H147.76V158.8H149.92ZM146.44 161.24H144.72V158.84H146.44V161.24ZM146.44 162.56V164.96H144.72V162.56H146.44ZM147.76 162.56H149.92V164.96H147.76V162.56ZM156.4 157.48H154.64V155.44H156.4V157.48ZM153.32 157.48H151.24V155.44H153.32V157.48ZM149.92 157.48H147.76V155.44H149.92V157.48ZM154.64 168.32V166.28H156.4V168.32H154.64ZM146.44 155.44V157.48H144.72V155.44H146.44ZM146.44 166.32V168.36H144.72V166.32H146.44ZM143.2 169.68H157.92V170.04H143.2V169.68ZM158.68 94.76H157.84V81.24C157.84 80.88 157.56 80.56 157.16 80.56H144.16C143.8 80.56 143.48 80.84 143.48 81.24V94.76H142.64C142.28 94.76 141.96 95.04 141.96 95.44V97.12C141.96 97.48 142.24 97.8 142.64 97.8H158.68C159.04 97.8 159.36 97.52 159.36 97.12V95.44C159.36 95.08 159.04 94.76 158.68 94.76ZM158 96.44H143.28V96.08H158V96.44ZM150 81.88V83.92H147.88V81.88H150ZM153.4 81.88V83.92H151.32V81.88H153.4ZM156.48 81.88V83.92H154.72V81.88H156.48ZM156.48 87.68H154.72V85.28H156.48V87.68ZM156.48 91.4H154.72V89H156.48V91.4ZM153.4 87.68H151.32V85.28H153.4V87.68ZM151.32 91.4V89H153.4V91.4H151.32ZM150 85.24V87.64H147.88V85.24H150ZM147.84 89H149.96V91.4H147.84V89ZM150 92.76V94.8H147.88V92.76H150ZM151.32 92.76H153.4V94.8H151.32V92.76ZM146.52 85.24V87.64H144.8V85.24H146.52ZM146.52 89V91.4H144.8V89H146.52ZM154.72 94.76V92.72H156.48V94.76H154.72ZM146.52 81.88V83.92H144.8V81.88H146.52ZM144.8 92.76H146.52V94.8H144.8V92.76ZM158.6 122.64H157.76V100.84C157.76 100.48 157.48 100.16 157.08 100.16H144.08C143.72 100.16 143.4 100.44 143.4 100.84V122.64H142.56C142.2 122.64 141.88 122.92 141.88 123.32V125C141.88 125.36 142.16 125.68 142.56 125.68H158.6C158.96 125.68 159.28 125.4 159.28 125V123.32C159.28 122.96 158.96 122.64 158.6 122.64ZM157.92 124.36H143.2V124H157.92V124.36ZM151.32 122.64V118.12H156.4V122.64H151.32ZM156.4 116.84H144.72V101.52H156.4V116.84ZM144.72 118.16H150V122.68H144.76V118.16H144.72ZM141.72 69.68H140.6C140.24 65.2 136.52 61.64 131.92 61.64C127.32 61.64 123.6 65.2 123.24 69.68H122.12C121.76 69.68 121.44 69.96 121.44 70.36V72.2C121.44 72.56 121.72 72.88 122.12 72.88H141.76C142.12 72.88 142.44 72.6 142.44 72.2V70.36C142.36 69.96 142.08 69.68 141.72 69.68ZM141.04 71.48H122.76V71H141.04V71.48ZM139.24 69.68H124.56C124.88 65.92 128.08 62.96 131.92 62.96C135.76 62.96 138.92 65.92 139.24 69.68ZM134.64 166.04C134.28 166.04 133.96 166.32 133.96 166.72V169.56C133.96 169.92 134.24 170.24 134.64 170.24C135 170.24 135.32 169.96 135.32 169.56V166.72C135.28 166.32 135 166.04 134.64 166.04Z"
        fill="#4FC1EA" />
    <path
        d="M160.16 75.12C150.2 75.12 142.12 67.04 142.12 57.08V55.16H145.8C146.16 55.16 146.48 54.88 146.48 54.48C146.48 54.12 146.2 53.8 145.8 53.8H142.08C141.72 48.48 137.32 44.28 131.92 44.28C126.52 44.28 122.08 48.52 121.76 53.8H118C117.64 53.8 117.32 54.08 117.32 54.48C117.32 54.84 117.6 55.16 118 55.16H121.68V57.08C121.68 67.04 113.6 75.12 103.64 75.12C103.28 75.12 102.96 75.4 102.96 75.8V178.56C102.96 178.92 103.24 179.24 103.64 179.24H160.12C160.48 179.24 160.8 178.96 160.8 178.56V75.76C160.84 75.4 160.52 75.12 160.16 75.12ZM127.92 157.4H135.88V177.92H127.92V157.4ZM136.56 156.04H127.28C126.92 156.04 126.6 156.32 126.6 156.72V177.92H126.2V155.48H137.6V177.92H137.2V156.72C137.2 156.36 136.92 156.04 136.56 156.04ZM138.28 154.12H125.52C125.16 154.12 124.84 154.4 124.84 154.8V177.92H104.28V152.04H159.48V177.92H138.92V154.8C138.96 154.44 138.64 154.12 138.28 154.12ZM104.32 78.76H159.52V148.52H104.32V78.76ZM104.32 149.88H159.52V150.72H104.32V149.88ZM159.52 76.44V77.44H104.32V76.44H159.52ZM140.76 53.8H123.08C123.44 49.2 127.24 45.6 131.92 45.6C136.56 45.6 140.4 49.2 140.76 53.8ZM123 57.04V55.12H140.8V57.04C140.8 65.24 145.92 72.28 153.12 75.08H110.68C117.88 72.28 123 65.24 123 57.04Z"
        fill="#4FC1EA" />
    <path
        d="M96.32 132.32H27.24V134.36H96.32V132.32ZM90.16 50.44V81H96.32V43.84C96.32 42.12 94.92 40.76 93.24 40.76C91.56 40.76 90.16 42.16 90.16 43.84V50.44ZM77.24 149.2H92V171.96H77.24V149.2ZM77.16 99.6H91.92V122.36H77.16V99.6Z"
        fill="white" />
    <path
        d="M93.24 39.44C90.8 39.44 88.84 41.44 88.84 43.84V46.48H67.12L64.84 43.28V37.88C64.84 37.72 64.8 37.6 64.72 37.48L61.92 33.76C61.68 33.44 61.12 33.44 60.84 33.76L58.04 37.48C57.96 37.6 57.92 37.72 57.92 37.88V43.24L55.6 46.48H34.72V43.84C34.72 41.4 32.76 39.44 30.32 39.44C27.88 39.44 25.92 41.44 25.92 43.84V178.56C25.92 178.92 26.2 179.24 26.6 179.24H97.04C97.4 179.24 97.72 178.96 97.72 178.56V43.88C97.64 41.44 95.68 39.44 93.24 39.44ZM27.24 43.88C27.24 42.16 28.64 40.8 30.32 40.8C32.04 40.8 33.4 42.2 33.4 43.88V81.04H27.24V43.88ZM59.2 38.12L61.32 35.28L63.44 38.12V42.84H59.2V38.12ZM88.84 47.84V49.8H84.32C83.96 49.8 83.64 50.08 83.64 50.48C83.64 50.84 83.92 51.16 84.32 51.16H88.84V54.72H84.32C83.96 54.72 83.64 55 83.64 55.4C83.64 55.76 83.92 56.08 84.32 56.08H88.84V59.64H84.32C83.96 59.64 83.64 59.92 83.64 60.32C83.64 60.68 83.92 61 84.32 61H88.84V81.12H81.84V67.4C81.84 67.28 81.8 67.12 81.72 67L76 59H80.04C80.4 59 80.72 58.72 80.72 58.32C80.72 57.96 80.44 57.64 80.04 57.64H75.04L71.52 52.72H75.68C76.04 52.72 76.36 52.44 76.36 52.04C76.36 51.68 76.08 51.36 75.68 51.36H70.56L68.04 47.88H88.84V47.84ZM93.24 40.8C94.96 40.8 96.32 42.2 96.32 43.88V81.04H90.16V43.88C90.16 42.16 91.52 40.8 93.24 40.8ZM27.24 134.36V132.28H96.32V134.36H27.24ZM96.32 125.48V130.96H27.24V82.36H96.32V125.48ZM58.88 44.16H63.8L66.2 47.56L74.2 58.72L80.52 67.56V81.04H42.2V67.56L48.48 58.8C48.6 58.72 48.68 58.6 48.72 58.48L58.88 44.16ZM52.12 51.32H46.88C46.52 51.32 46.2 51.6 46.2 52C46.2 52.36 46.48 52.68 46.88 52.68H51.16L47.64 57.6H42.88C42.52 57.6 42.2 57.88 42.2 58.28C42.2 58.64 42.48 58.96 42.88 58.96H46.68L40.96 66.96C40.88 67.08 40.84 67.2 40.84 67.36V81.08H34.72V60.96H39.2C39.56 60.96 39.88 60.68 39.88 60.28C39.88 59.92 39.6 59.6 39.2 59.6H34.72V56H39.2C39.56 56 39.88 55.72 39.88 55.32C39.88 54.96 39.6 54.64 39.2 54.64H34.72V51.08H39.2C39.56 51.08 39.88 50.8 39.88 50.4C39.88 50.04 39.6 49.72 39.2 49.72H34.72V47.76H54.6L52.12 51.32ZM96.32 175.08V177.92H27.24V135.68H96.32V175.08Z"
        fill="#4FC1EA" />
    <path
        d="M48.44 58.76L42.16 67.52V81H80.48V67.52L74.16 58.68L66.16 47.52L63.76 44.12H58.84L48.6 58.4C48.64 58.6 48.56 58.68 48.44 58.76ZM55.12 60.28C55.12 56.84 57.92 54.04 61.36 54.04C64.8 54.04 67.6 56.84 67.6 60.28V75.36C67.6 75.72 67.32 76.04 66.92 76.04H55.8C55.44 76.04 55.12 75.76 55.12 75.36V60.28Z"
        fill="white" />
    <path
        d="M83.52 137.16C79.32 137.16 75.92 140.56 75.92 144.76V171.96H74.48C74.12 171.96 73.8 172.24 73.8 172.64V175.08C73.8 175.44 74.08 175.76 74.48 175.76H94.8C95.16 175.76 95.48 175.48 95.48 175.08V172.64C95.48 172.28 95.2 171.96 94.8 171.96H93.36V144.76C93.36 140.56 89.96 137.16 85.76 137.16H83.52ZM94.16 174.44H75.16V173.32H94.16V174.44ZM92.04 171.96H77.28V149.2H92.04V171.96ZM92.04 147.88H77.28V144.8C77.28 141.32 80.08 138.52 83.56 138.52H85.76C89.24 138.52 92.04 141.32 92.04 144.8V147.88Z"
        fill="#4FC1EA" />
    <path d="M76.6 173.28H75.12V174.44H94.16V173.28H92.68H76.6Z" fill="white" />
    <path
        d="M83.44 87.56C79.24 87.56 75.84 90.96 75.84 95.16V122.36H74.4C74.04 122.36 73.72 122.64 73.72 123.04V125.48C73.72 125.84 74 126.16 74.4 126.16H94.72C95.08 126.16 95.4 125.88 95.4 125.48V123.04C95.4 122.68 95.12 122.36 94.72 122.36H93.28V95.16C93.28 90.96 89.88 87.56 85.68 87.56H83.44ZM94.04 124.84H75.04V123.72H94V124.84H94.04ZM91.92 122.36H77.16V99.6H91.92V122.36ZM91.92 98.28H77.16V95.2C77.16 91.76 79.96 88.92 83.44 88.92H85.64C89.08 88.92 91.92 91.72 91.92 95.2V98.28Z"
        fill="#4FC1EA" />
    <path
        d="M76.52 123.72H75.04V124.84H94.04V123.72H92.6H76.52ZM62.96 135.72H27.24V177.96H96.32V135.72H62.96ZM49.08 175.76H28.76C28.4 175.76 28.08 175.48 28.08 175.08V172.64C28.08 172.28 28.36 171.96 28.76 171.96H30.2V144.76C30.2 140.56 33.6 137.16 37.8 137.16H40C44.2 137.16 47.6 140.56 47.6 144.76V171.96H49.04C49.4 171.96 49.72 172.24 49.72 172.64V175.08C49.76 175.44 49.44 175.76 49.08 175.76ZM72.04 175.76H51.72C51.36 175.76 51.04 175.48 51.04 175.08V172.64C51.04 172.28 51.32 171.96 51.72 171.96H53.16V144.76C53.16 140.56 56.56 137.16 60.76 137.16H62.96C67.16 137.16 70.56 140.56 70.56 144.76V171.96H72C72.36 171.96 72.68 172.24 72.68 172.64V175.08C72.68 175.44 72.4 175.76 72.04 175.76ZM93.36 144.76V171.96H94.8C95.16 171.96 95.48 172.24 95.48 172.64V175.08C95.48 175.44 95.2 175.76 94.8 175.76H74.44C74.08 175.76 73.76 175.48 73.76 175.08V172.64C73.76 172.28 74.04 171.96 74.44 171.96H75.88V144.76C75.88 140.56 79.28 137.16 83.48 137.16H85.68C89.92 137.16 93.36 140.56 93.36 144.76Z"
        fill="white" />
    <path
        d="M54.48 149.2H69.24V171.96H54.48V149.2ZM54.4 99.6H69.16V122.36H54.4V99.6ZM56.44 60.92H66.24V74.68H56.44V60.92ZM66.2 59.6C65.88 57.2 63.84 55.36 61.36 55.36C58.88 55.36 56.84 57.2 56.52 59.6H66.2ZM63.48 38.12L61.36 35.32L59.2 38.12V42.84H63.48V38.12Z"
        fill="white" />
    <path
        d="M55.8 76H66.92C67.28 76 67.6 75.72 67.6 75.32V60.24C67.6 56.8 64.8 54 61.36 54C57.92 54 55.12 56.8 55.12 60.24V75.32C55.12 75.72 55.4 76 55.8 76ZM61.36 55.36C63.84 55.36 65.88 57.2 66.2 59.6H56.52C56.84 57.2 58.88 55.36 61.36 55.36ZM66.24 74.68H56.44V60.92H66.24V74.68Z"
        fill="#4FC1EA" />
    <path d="M53.8 173.28H52.36V174.44H71.36V173.28H69.92H53.8ZM53.72 123.72H52.28V124.84H71.28V123.72H69.84H53.72Z"
        fill="white" />
    <path
        d="M72.04 171.96H70.6V144.76C70.6 140.56 67.2 137.16 63 137.16H60.8C56.6 137.16 53.2 140.56 53.2 144.76V171.96H51.76C51.4 171.96 51.08 172.24 51.08 172.64V175.08C51.08 175.44 51.36 175.76 51.76 175.76H72.08C72.44 175.76 72.76 175.48 72.76 175.08V172.64C72.68 172.28 72.4 171.96 72.04 171.96ZM71.36 174.44H52.36V173.32H71.32V174.44H71.36ZM54.48 144.76C54.48 141.28 57.28 138.48 60.76 138.48H62.96C66.44 138.48 69.24 141.28 69.24 144.76V147.84H54.48V144.76ZM54.48 149.2H69.24V171.96H54.48V149.2ZM71.96 122.36H70.52V95.16C70.52 90.96 67.12 87.56 62.92 87.56H60.72C56.52 87.56 53.12 90.96 53.12 95.16V122.36H51.6C51.24 122.36 50.92 122.64 50.92 123.04V125.48C50.92 125.84 51.2 126.16 51.6 126.16H71.96C72.32 126.16 72.64 125.88 72.64 125.48V123.04C72.6 122.68 72.32 122.36 71.96 122.36ZM71.28 124.84H52.28V123.72H71.28V124.84ZM54.4 95.16C54.4 91.72 57.2 88.88 60.68 88.88H62.88C66.36 88.88 69.16 91.68 69.16 95.16V98.24H54.4V95.16ZM54.4 99.6H69.16V122.36H54.4V99.6Z"
        fill="#4FC1EA" />
    <path
        d="M31.52 149.2H46.28V171.96H31.52V149.2ZM31.44 99.6H46.2V122.36H31.44V99.6ZM33.4 60.24V43.88C33.4 42.16 32 40.8 30.32 40.8C28.64 40.8 27.24 42.2 27.24 43.88V81.04H33.4V60.24ZM30.88 173.28H29.4V174.44H48.44V173.28H46.96H30.88ZM30.8 123.72H29.32V124.84H48.36V123.72H46.88H30.8Z"
        fill="white" />
    <path
        d="M49.08 171.96H47.64V144.76C47.64 140.56 44.24 137.16 40.04 137.16H37.84C33.64 137.16 30.24 140.56 30.24 144.76V171.96H28.8C28.44 171.96 28.12 172.24 28.12 172.64V175.08C28.12 175.44 28.4 175.76 28.8 175.76H49.16C49.52 175.76 49.84 175.48 49.84 175.08V172.64C49.76 172.28 49.44 171.96 49.08 171.96ZM48.44 174.44H29.4V173.32H48.4V174.44H48.44ZM31.52 144.76C31.52 141.28 34.32 138.48 37.8 138.48H40C43.48 138.48 46.28 141.28 46.28 144.76V147.84H31.52V144.76ZM31.52 149.2H46.28V171.96H31.52V149.2ZM49 122.36H47.56V95.16C47.56 90.96 44.16 87.56 39.96 87.56H37.76C33.56 87.56 30.16 90.96 30.16 95.16V122.36H28.72C28.36 122.36 28.04 122.64 28.04 123.04V125.48C28.04 125.84 28.32 126.16 28.72 126.16H49.04C49.4 126.16 49.72 125.88 49.72 125.48V123.04C49.68 122.68 49.36 122.36 49 122.36ZM48.36 124.84H29.32V123.72H48.32V124.84H48.36ZM31.44 95.16C31.44 91.72 34.24 88.88 37.72 88.88H39.92C43.4 88.88 46.2 91.68 46.2 95.16V98.24H31.44V95.16ZM31.44 99.6H46.2V122.36H31.44V99.6Z"
        fill="#4FC1EA" />
    <path
        d="M167.8 155.76L167.08 152.76C167 152.48 166.96 152.16 166.88 151.84L166.76 151.32C166.64 150.84 166.56 150.36 166.44 149.84L166.32 149.2L166.08 148L165.24 143.8C165.16 143.44 165.12 143.08 165.04 142.72C164.92 142.16 164.84 141.6 164.76 141.12C164.68 140.6 164.6 140.12 164.56 139.68C164.48 138.96 164.4 138.24 164.32 137.48C164.28 136.92 164.28 136.64 164.28 136.64C164.2 133.32 161.52 130.68 158.24 130.6C154.8 130.52 151.96 133.24 151.88 136.64C151.88 136.64 151.88 136.96 151.84 137.48C151.8 138.24 151.72 138.96 151.6 139.68C151.56 140.12 151.48 140.6 151.4 141.12C151.32 141.64 151.24 142.16 151.12 142.76C151.04 143.12 151 143.48 150.92 143.88L150.12 148.04L149.88 149.24L149.76 149.88C149.64 150.4 149.56 150.88 149.44 151.36L149.32 151.88C149.24 152.2 149.16 152.52 149.12 152.84L148.4 155.84C148 157.48 148 159.2 148.4 160.8C149.08 163.4 150.68 165.6 153 166.96C154.4 167.8 155.92 168.24 157.48 168.36V166C154.16 165.68 151.52 162.84 151.52 159.4C151.52 159.04 151.8 158.72 152.2 158.72C152.56 158.72 152.88 159 152.88 159.4C152.88 162.08 154.92 164.32 157.52 164.64V155.84C154.6 155.52 152.36 153.04 152.36 150.04C152.36 149.68 152.64 149.36 153.04 149.36C153.4 149.36 153.72 149.64 153.72 150.04C153.72 152.28 155.4 154.16 157.56 154.48V145.68C155.4 145.36 153.72 143.48 153.72 141.2C153.72 140.84 154 140.52 154.4 140.52C154.76 140.52 155.08 140.8 155.08 141.2C155.08 142.72 156.16 144 157.6 144.32V137.32C157.6 136.96 157.88 136.64 158.28 136.64C158.64 136.64 158.96 136.92 158.96 137.32V140.44C160.4 140.12 161.48 138.84 161.48 137.32C161.48 136.96 161.76 136.64 162.16 136.64C162.52 136.64 162.84 136.92 162.84 137.32C162.84 139.6 161.16 141.48 159 141.8V150.6C161.16 150.28 162.84 148.4 162.84 146.16C162.84 145.8 163.12 145.48 163.52 145.48C163.92 145.48 164.2 145.76 164.2 146.16C164.2 149.16 161.92 151.64 159.04 151.96V160.76C161.64 160.44 163.68 158.2 163.68 155.52C163.68 155.16 163.96 154.84 164.36 154.84C164.72 154.84 165.04 155.12 165.04 155.52C165.04 158.96 162.44 161.76 159.08 162.12V168.24C159.68 168.2 160.28 168.12 160.88 167.96C165.88 166.6 169.16 161.12 167.8 155.76Z"
        fill="white" />
    <path
        d="M169.08 155.44L168.36 152.48C168.28 152.2 168.24 151.88 168.16 151.56L168.04 151.04C167.92 150.56 167.84 150.08 167.72 149.56L167.6 148.92L167.36 147.72L166.56 143.52C166.48 143.16 166.44 142.8 166.36 142.48C166.28 141.92 166.16 141.4 166.08 140.88C166 140.36 165.92 139.88 165.88 139.44C165.8 138.76 165.72 138.04 165.68 137.32C165.64 136.84 165.64 136.56 165.64 136.52C165.52 132.48 162.32 129.28 158.28 129.16H158.08C154 129.16 150.64 132.44 150.56 136.52C150.56 136.52 150.56 136.8 150.52 137.32C150.48 138.04 150.4 138.76 150.28 139.44C150.24 139.88 150.16 140.36 150.08 140.88C150 141.4 149.92 141.92 149.8 142.48C149.72 142.84 149.68 143.2 149.6 143.56L148.8 147.72L148.56 148.92L148.4 149.6C148.28 150.12 148.2 150.6 148.08 151.08L147.96 151.6C147.88 151.92 147.84 152.24 147.76 152.52L147.04 155.48C146.56 157.32 146.56 159.28 147.04 161.08C148.28 166 152.6 169.32 157.4 169.64V178.64C157.4 179 157.68 179.32 158.08 179.32C158.44 179.32 158.76 179.04 158.76 178.64V169.6C159.48 169.56 160.2 169.44 160.88 169.28C163.84 168.52 166.28 166.68 167.84 164.08C169.4 161.44 169.84 158.4 169.08 155.44ZM158.72 162.12C162.04 161.8 164.68 158.96 164.68 155.52C164.68 155.16 164.4 154.84 164 154.84C163.64 154.84 163.32 155.12 163.32 155.52C163.32 158.2 161.28 160.44 158.68 160.76V151.96C161.6 151.64 163.84 149.16 163.84 146.16C163.84 145.8 163.56 145.48 163.16 145.48C162.76 145.48 162.48 145.76 162.48 146.16C162.48 148.4 160.8 150.28 158.64 150.6V141.8C160.8 141.48 162.48 139.6 162.48 137.32C162.48 136.96 162.2 136.64 161.8 136.64C161.44 136.64 161.12 136.92 161.12 137.32C161.12 138.84 160.04 140.12 158.6 140.44V137.32C158.6 136.96 158.32 136.64 157.92 136.64C157.56 136.64 157.24 136.92 157.24 137.32V144.32C155.8 144 154.72 142.72 154.72 141.2C154.72 140.84 154.44 140.52 154.04 140.52C153.68 140.52 153.36 140.8 153.36 141.2C153.36 143.48 155.04 145.36 157.2 145.68V154.48C155.04 154.16 153.36 152.28 153.36 150.04C153.36 149.68 153.08 149.36 152.68 149.36C152.32 149.36 152 149.64 152 150.04C152 153.04 154.28 155.52 157.16 155.84V164.64C154.56 164.32 152.52 162.08 152.52 159.4C152.52 159.04 152.24 158.72 151.84 158.72C151.48 158.72 151.16 159 151.16 159.4C151.16 162.84 153.76 165.64 157.12 166V168.28C155.56 168.16 154.04 167.72 152.64 166.88C150.32 165.52 148.72 163.32 148.04 160.72C147.64 159.12 147.64 157.4 148.04 155.76L148.76 152.76C148.84 152.48 148.88 152.16 148.96 151.8L149.08 151.28C149.2 150.8 149.28 150.32 149.4 149.8L149.52 149.16L149.76 147.96L150.56 143.8C150.64 143.44 150.72 143.04 150.76 142.68C150.88 142.12 150.96 141.56 151.04 141.04C151.12 140.52 151.2 140.04 151.24 139.6C151.32 138.88 151.4 138.16 151.48 137.4C151.52 136.84 151.52 136.56 151.52 136.56C151.6 133.12 154.44 130.44 157.88 130.52C161.2 130.6 163.84 133.28 163.92 136.56C163.92 136.56 163.92 136.88 163.96 137.4C164 138.12 164.08 138.88 164.2 139.6C164.24 140.04 164.32 140.52 164.4 141.04C164.48 141.56 164.56 142.08 164.68 142.64C164.76 143 164.8 143.36 164.88 143.72L165.72 147.92L165.96 149.12L166.08 149.76C166.2 150.28 166.28 150.76 166.4 151.24L166.52 151.76C166.6 152.08 166.68 152.4 166.72 152.68L167.44 155.68C168.8 161.04 165.56 166.52 160.2 167.88C159.6 168.04 159 168.12 158.4 168.16V162.12H158.72Z"
        fill="#4FC1EA" />
    <path
        d="M192.8 125.2L191.4 126.6H197.72L196.36 125.2H192.8ZM197.8 127.92H191.36C191.68 129.4 193 130.56 194.56 130.56C196.16 130.56 197.48 129.44 197.8 127.92ZM193.2 123.76H195.96V123.88H193.2V123.76ZM181.6 176.68H179.68V177.92H187.56V176.68H185.6H181.6ZM182.28 161.36H184.96V175.36H182.28V161.36ZM169.48 126.6H175.8L174.4 125.2H170.88L169.48 126.6ZM175.88 127.92H169.44C169.76 129.4 171.08 130.56 172.64 130.56C174.24 130.56 175.56 129.44 175.88 127.92ZM171.24 123.76H174V123.88H171.24V123.76Z"
        fill="white" />
    <path
        d="M199.8 126.8L197.28 124.28V123.12C197.28 122.76 197 122.44 196.6 122.44H195.2V117.68C195.2 116.16 194.6 114.76 193.56 113.72C192.52 112.64 191.08 112.08 189.6 112.08C186.52 112.08 184 114.6 184 117.68V121.36H183.2V117.68C183.2 114.6 180.68 112.08 177.6 112.08C176.08 112.08 174.68 112.68 173.64 113.72C172.56 114.76 172 116.2 172 117.68V122.44H170.6C170.24 122.44 169.92 122.72 169.92 123.12V124.28L167.4 126.8C167.2 127 167.16 127.28 167.24 127.52C167.36 127.76 167.6 127.92 167.84 127.92H168.04C168.36 130.16 170.28 131.88 172.6 131.88C174.92 131.88 176.84 130.16 177.16 127.92H177.36C177.64 127.92 177.88 127.76 177.96 127.52C178.08 127.28 178 127 177.8 126.8L175.28 124.28V123.12C175.28 122.76 175 122.44 174.6 122.44H173.2V117.68C173.2 116.52 173.64 115.44 174.44 114.64C175.24 113.84 176.32 113.4 177.48 113.4C179.84 113.4 181.76 115.32 181.76 117.68V121.36H180.96C180.6 121.36 180.28 121.64 180.28 122.04V123.24C180.28 123.6 180.56 123.92 180.96 123.92H182.84V160.04H181.6C181.24 160.04 180.92 160.32 180.92 160.72V175.36H178.96C178.6 175.36 178.28 175.64 178.28 176.04V178.6C178.28 178.96 178.56 179.28 178.96 179.28H188.16C188.52 179.28 188.84 179 188.84 178.6V176C188.84 175.64 188.56 175.32 188.16 175.32H186.2V160.68C186.2 160.32 185.92 160 185.52 160H184.2V123.88H186.08C186.44 123.88 186.76 123.6 186.76 123.2V122C186.76 121.64 186.48 121.32 186.08 121.32H185.28V117.64C185.28 115.28 187.2 113.36 189.56 113.36C190.72 113.36 191.8 113.8 192.6 114.6C193.4 115.4 193.84 116.48 193.84 117.64V122.4H192.44C192.08 122.4 191.76 122.68 191.76 123.08V124.24L189.24 126.76C189.04 126.96 189 127.24 189.08 127.48C189.2 127.72 189.44 127.88 189.68 127.88H189.88C190.2 130.12 192.12 131.84 194.44 131.84C196.76 131.84 198.68 130.12 199 127.88H199.2C199.48 127.88 199.72 127.72 199.8 127.48C200.04 127.28 200 127 199.8 126.8ZM169.44 127.92H175.88C175.56 129.4 174.24 130.56 172.64 130.56C171.04 130.56 169.72 129.44 169.44 127.92ZM174.04 123.76V123.88H171.28V123.76H174.04ZM175.8 126.6H169.48L170.88 125.2H174.44L175.8 126.6ZM187.56 177.92H179.68V176.68H187.6V177.92H187.56ZM184.96 161.36V175.36H182.28V161.36H184.96ZM191.36 127.92H197.8C197.48 129.4 196.16 130.56 194.56 130.56C193 130.56 191.64 129.44 191.36 127.92ZM191.4 126.6L192.8 125.2H196.36L197.76 126.6H191.4ZM195.96 123.76V123.88H193.2V123.76H195.96Z"
        fill="#4FC1EA" />
    <path
        d="M172 20.72C167.6 20.72 163.6 22.76 160.96 26.28C160.84 26.44 160.68 26.52 160.48 26.56C160.28 26.56 160.12 26.52 159.96 26.4C158 24.72 155.52 23.8 152.96 23.8C147.08 23.8 142.28 28.6 142.28 34.48C142.28 36.36 143.84 37.92 145.72 37.92H182.24C184.12 37.92 185.68 36.36 185.68 34.48C185.72 26.88 179.56 20.72 172 20.72Z"
        fill="white" />
    <path
        d="M172 19.4C167.48 19.4 163.2 21.44 160.32 24.92C158.24 23.32 155.64 22.44 153 22.44C146.36 22.44 141 27.84 141 34.44C141 37.08 143.12 39.2 145.76 39.2H182.28C184.92 39.2 187.04 37.08 187.04 34.44C187.04 26.16 180.28 19.4 172 19.4ZM182.28 37.88H145.76C143.88 37.88 142.32 36.32 142.32 34.44C142.32 28.56 147.12 23.76 153 23.76C155.56 23.76 158.04 24.68 160 26.36C160.12 26.48 160.32 26.52 160.52 26.52C160.72 26.48 160.88 26.4 161 26.24C163.6 22.76 167.6 20.72 172 20.72C179.56 20.72 185.72 26.88 185.72 34.44C185.72 36.36 184.16 37.88 182.28 37.88Z"
        fill="#4FC1EA" />
</svg>