<svg width="176" height="124" viewBox="0 0 176 124" fill="none" xmlns="http://www.w3.org/2000/svg">
    <g clip-path="url(#clip0_4_21)">
        <path
            d="M37.6972 114.381L29.4292 114.431L29.4532 115.624L32.8562 115.599L32.9041 124H34.3181L34.2702 115.599L37.6972 115.574V114.381Z"
            fill="white" />
        <path
            d="M41.4358 122.807V119.7L46.4445 119.675L46.4205 118.507L41.4118 118.532V115.599L47.0436 115.574L47.0196 114.381L39.9739 114.406L40.0218 124L47.2593 123.975V122.782L41.4358 122.807Z"
            fill="white" />
        <path
            d="M54.8322 122.782C54.1342 122.797 53.4431 122.635 52.8192 122.31C52.239 122.016 51.7493 121.559 51.4052 120.993C51.0664 120.426 50.8917 119.77 50.902 119.104C50.8837 118.447 51.0503 117.799 51.3813 117.239C51.7239 116.665 52.2133 116.201 52.7952 115.897C53.4192 115.572 54.1102 115.41 54.8083 115.425C55.3251 115.397 55.8419 115.482 56.3249 115.675C56.808 115.868 57.2466 116.164 57.6122 116.544L58.5468 115.674C58.0864 115.173 57.5204 114.79 56.8932 114.555C55.3165 114.024 53.6043 114.13 52.1002 114.853C51.2694 115.197 50.5532 115.784 50.0392 116.544C49.6064 117.295 49.3779 118.154 49.3779 119.029C49.3779 119.904 49.6064 120.763 50.0392 121.515C50.5147 122.254 51.167 122.854 51.9325 123.254C52.8228 123.753 53.8204 124.009 54.8322 124C55.5693 124.014 56.302 123.879 56.9891 123.602C57.6162 123.367 58.1823 122.984 58.6427 122.484L57.5882 121.515C57.2361 121.909 56.8101 122.225 56.3362 122.443C55.8624 122.661 55.3506 122.776 54.8322 122.782Z"
            fill="white" />
        <path
            d="M68.4205 114.381V118.507L62.6928 118.532L62.6688 114.406H61.2549L61.2788 124H62.7168L62.6928 119.725L68.4444 119.7L68.4684 123.975L69.8823 123.95L69.8344 114.381H68.4205Z"
            fill="white" />
        <path
            d="M80.7146 114.381L80.7626 121.539L74.7234 114.406H73.5491L73.597 124H75.0349L74.987 116.842L81.0262 123.975L82.2005 123.95L82.1526 114.381H80.7146Z"
            fill="white" />
        <path
            d="M93.1765 114.829C92.3389 114.388 91.4073 114.174 90.4685 114.207C89.5202 114.185 88.5815 114.407 87.7364 114.853C86.9594 115.248 86.3037 115.859 85.8432 116.618C85.3953 117.363 85.1625 118.226 85.1722 119.104C85.1669 119.984 85.4083 120.848 85.8672 121.589C86.3399 122.347 87.0027 122.957 87.7844 123.354C88.6353 123.781 89.5713 123.994 90.5164 123.975C91.4376 123.986 92.3485 123.773 93.1765 123.354C93.9494 122.953 94.6036 122.344 95.0698 121.589C95.5076 120.84 95.739 119.98 95.739 119.104C95.739 118.227 95.5076 117.368 95.0698 116.618C94.6069 115.855 93.9525 115.236 93.1765 114.829ZM93.8715 120.968C93.5311 121.529 93.0508 121.984 92.4815 122.285C91.8765 122.617 91.2011 122.788 90.5164 122.782C89.8183 122.797 89.1273 122.635 88.5033 122.31C87.934 122.009 87.4538 121.554 87.1133 120.993C86.7674 120.428 86.5844 119.773 86.5861 119.104C86.5764 118.445 86.7513 117.797 87.0894 117.24C87.4226 116.666 87.9041 116.201 88.4794 115.897C89.0958 115.575 89.7784 115.413 90.4685 115.425C91.16 115.398 91.8462 115.561 92.4576 115.897C93.0252 116.19 93.5056 116.636 93.8475 117.19C94.1827 117.758 94.3571 118.413 94.3508 119.079C94.3498 119.755 94.149 120.414 93.7757 120.968H93.8715Z"
            fill="white" />
        <path d="M100.03 122.807L100.007 114.406H98.5686L98.6165 124L105.447 123.975V122.782L100.03 122.807Z"
            fill="white" />
        <path
            d="M114.745 114.829C113.898 114.391 112.959 114.177 112.013 114.207C111.072 114.183 110.141 114.405 109.305 114.853C108.587 115.245 107.983 115.829 107.556 116.544C107.108 117.289 106.875 118.151 106.885 119.029C106.872 119.907 107.105 120.771 107.556 121.515C108.028 122.272 108.691 122.882 109.473 123.279C110.324 123.706 111.26 123.919 112.205 123.901C113.08 123.915 113.948 123.729 114.745 123.354C115.518 122.953 116.172 122.344 116.638 121.589C117.076 120.84 117.308 119.98 117.308 119.104C117.308 118.227 117.076 117.368 116.638 116.618C116.175 115.855 115.521 115.236 114.745 114.829ZM115.416 120.968C115.081 121.534 114.6 121.99 114.026 122.285C113.412 122.604 112.735 122.771 112.049 122.771C111.362 122.771 110.685 122.604 110.072 122.285C109.492 121.991 109.002 121.535 108.658 120.968C108.322 120.398 108.14 119.746 108.131 119.079C108.121 118.42 108.296 117.772 108.634 117.215C108.974 116.647 109.454 116.184 110.024 115.873C110.64 115.551 111.323 115.389 112.013 115.4C112.705 115.371 113.392 115.534 114.002 115.873C114.574 116.158 115.056 116.606 115.392 117.165C115.725 117.736 115.906 118.387 115.919 119.054C115.952 119.721 115.802 120.385 115.488 120.968H115.416Z"
            fill="white" />
        <path
            d="M122.845 115.897C123.477 115.569 124.176 115.407 124.882 115.425C125.411 115.401 125.94 115.485 126.437 115.672C126.935 115.86 127.392 116.148 127.782 116.519L128.669 115.649C128.201 115.164 127.637 114.791 127.015 114.555C126.316 114.297 125.576 114.179 124.834 114.207C123.881 114.186 122.937 114.399 122.078 114.829C121.306 115.229 120.651 115.839 120.185 116.593C119.747 117.323 119.522 118.169 119.538 119.029C119.537 119.909 119.778 120.772 120.233 121.515C120.717 122.256 121.377 122.855 122.15 123.254C123.001 123.681 123.937 123.894 124.882 123.876C125.582 123.884 126.278 123.775 126.943 123.553C127.564 123.347 128.147 123.037 128.669 122.633V119.029H127.303V122.161C126.57 122.581 125.744 122.796 124.906 122.782C124.201 122.797 123.502 122.635 122.869 122.31C122.289 122.016 121.799 121.559 121.455 120.993C121.099 120.433 120.915 119.774 120.928 119.104C120.922 118.438 121.096 117.783 121.431 117.215C121.776 116.648 122.265 116.192 122.845 115.897Z"
            fill="white" />
        <path
            d="M138.399 114.381L135.211 119.452L132 114.406L130.466 114.431L134.468 120.645V124H135.882V120.669L139.813 114.381H138.399Z"
            fill="white" />
        <path
            d="M141.61 122.136C141.357 122.127 141.109 122.216 140.915 122.384C140.827 122.47 140.758 122.574 140.713 122.69C140.667 122.806 140.646 122.931 140.651 123.056C140.648 123.183 140.671 123.309 140.721 123.425C140.771 123.541 140.845 123.644 140.939 123.727C141.121 123.903 141.361 124.001 141.61 124.001C141.859 124.001 142.099 123.903 142.281 123.727C142.448 123.546 142.541 123.306 142.541 123.056C142.541 122.805 142.448 122.565 142.281 122.384C142.193 122.296 142.087 122.228 141.971 122.185C141.856 122.142 141.732 122.125 141.61 122.136Z"
            fill="white" />
        <path
            d="M149.351 114.307V115.5H153.089V120.868C153.123 121.395 152.97 121.917 152.658 122.335C152.489 122.508 152.286 122.642 152.063 122.728C151.839 122.813 151.601 122.849 151.364 122.832C150.951 122.844 150.542 122.745 150.176 122.545C149.811 122.344 149.502 122.049 149.279 121.688L148.464 122.633C148.791 123.075 149.219 123.426 149.71 123.652C150.241 123.884 150.812 124.003 151.388 124C151.82 124.043 152.257 123.992 152.669 123.851C153.082 123.709 153.461 123.481 153.784 123.18C154.08 122.848 154.303 122.455 154.44 122.026C154.576 121.597 154.622 121.143 154.575 120.694V114.182L149.351 114.307Z"
            fill="white" />
        <path
            d="M163.131 119.029C162.537 118.815 161.928 118.649 161.309 118.532C160.84 118.435 160.376 118.311 159.919 118.159C159.612 118.062 159.327 117.901 159.081 117.687C158.969 117.589 158.878 117.468 158.816 117.33C158.754 117.193 158.722 117.043 158.721 116.892C158.723 116.669 158.782 116.45 158.891 116.258C159 116.066 159.157 115.907 159.344 115.798C159.885 115.461 160.512 115.304 161.142 115.351C161.619 115.355 162.094 115.422 162.556 115.549C163.025 115.677 163.477 115.869 163.898 116.121L164.353 115.027C163.902 114.738 163.408 114.528 162.891 114.406C162.319 114.257 161.731 114.182 161.142 114.182C160.421 114.178 159.706 114.313 159.033 114.58C158.519 114.777 158.07 115.122 157.739 115.574C157.477 115.979 157.335 116.454 157.331 116.941C157.305 117.48 157.486 118.007 157.834 118.408C158.169 118.765 158.579 119.037 159.033 119.203C159.628 119.419 160.236 119.593 160.854 119.725C161.453 119.725 161.909 119.974 162.244 120.073C162.54 120.179 162.816 120.339 163.059 120.545C163.171 120.643 163.261 120.764 163.323 120.902C163.385 121.039 163.418 121.189 163.418 121.341C163.416 121.564 163.358 121.782 163.248 121.974C163.139 122.166 162.983 122.325 162.795 122.434C162.227 122.74 161.589 122.878 160.95 122.832C160.324 122.832 159.701 122.731 159.105 122.534C158.574 122.366 158.078 122.096 157.643 121.738L157.115 122.807C157.607 123.206 158.169 123.501 158.769 123.677C159.476 123.897 160.211 124.006 160.95 124C161.677 124.021 162.402 123.894 163.083 123.627C163.597 123.43 164.046 123.085 164.377 122.633C164.657 122.236 164.808 121.758 164.808 121.266C164.823 121.003 164.786 120.739 164.7 120.491C164.613 120.244 164.479 120.017 164.305 119.824C163.975 119.473 163.574 119.201 163.131 119.029Z"
            fill="white" />
        <path
            d="M172.261 122.782C171.563 122.797 170.872 122.635 170.248 122.31C169.672 122.009 169.184 121.554 168.834 120.993C168.496 120.426 168.321 119.77 168.331 119.104C168.321 118.445 168.496 117.797 168.834 117.239C169.168 116.666 169.649 116.201 170.224 115.897C170.848 115.572 171.539 115.41 172.237 115.425C172.758 115.398 173.278 115.484 173.765 115.676C174.251 115.869 174.694 116.164 175.065 116.544L175.976 115.674C175.516 115.173 174.95 114.79 174.322 114.555C172.746 114.024 171.033 114.13 169.529 114.853C168.704 115.207 167.99 115.792 167.468 116.544C167.038 117.296 166.806 118.154 166.797 119.029C166.796 119.909 167.037 120.772 167.492 121.515C167.977 122.255 168.637 122.855 169.41 123.254C170.251 123.684 171.18 123.897 172.118 123.876C172.847 123.888 173.571 123.753 174.251 123.478C174.878 123.243 175.444 122.86 175.904 122.36L174.969 121.515C174.263 122.29 173.29 122.746 172.261 122.782Z"
            fill="white" />
        <path
            d="M73.8126 80.8274C73.8223 79.1489 73.4802 77.4882 72.8098 75.9604C72.1395 74.4326 71.1569 73.0742 69.9302 71.9792C67.4245 69.6347 64.1495 68.3721 60.7756 68.4498H37.4095C34.0204 68.3863 30.7393 69.6869 28.2549 72.0786C27.0462 73.182 26.0836 74.545 25.4339 76.0729C24.7842 77.6009 24.4629 79.2572 24.4923 80.9268V95.3426C24.4684 97.0511 24.8132 98.7437 25.5015 100.296C26.1899 101.849 27.2043 103.222 28.4705 104.315C30.9848 106.659 34.2699 107.913 37.6492 107.82H61.0152C64.3735 107.833 67.6083 106.507 70.0501 104.116C71.2833 103.015 72.265 101.643 72.924 100.1C73.583 98.5566 73.9029 96.8807 73.8605 95.1934L73.8126 80.8274ZM60.8954 98.5488H37.5533C35.1568 98.5488 33.8387 97.4801 33.8387 95.2928V80.902C33.8387 78.7148 35.061 77.6212 37.5294 77.6212H60.8954C63.2919 77.6212 64.586 78.6899 64.586 80.8771V95.268C64.586 97.4552 63.3638 98.5488 60.8954 98.5488Z"
            fill="white" />
        <path
            d="M166.606 107.695H176V68.3503L166.438 68.4001L166.558 93.5033L142.76 68.4995L132.791 68.5243L132.983 107.67L142.377 107.646L142.281 81.2499L166.606 107.695Z"
            fill="white" />
        <path
            d="M94.5185 97.654C93.5204 97.6345 92.5695 97.2095 91.8704 96.4705C91.1713 95.7315 90.7797 94.7375 90.7799 93.7021V82.1696C90.7799 81.1215 91.1814 80.1163 91.896 79.3752C92.6106 78.634 93.5798 78.2177 94.5904 78.2177H125.338L125.218 68.5243H94.0631C90.7269 68.4522 87.4978 69.7471 85.0762 72.1283C83.8575 73.2248 82.8802 74.5801 82.2104 76.1024C81.5406 77.6246 81.1939 79.2784 81.1938 80.9517V95.3426C81.1972 97.0129 81.5504 98.6626 82.229 100.177C82.9076 101.692 83.8954 103.036 85.1241 104.116C87.5664 106.452 90.79 107.709 94.1111 107.621L119.802 107.496H125.338V97.5546H94.5185V97.654Z"
            fill="white" />
        <path
            d="M48.0261 26.6691C52.1002 23.1397 52.4357 22.0958 47.3072 19.9086C44.9106 18.9641 40.9324 18.0694 44.9106 17.274C48.8986 16.8828 52.9154 16.9327 56.8932 17.4232C58.727 17.7991 60.6301 17.4346 62.2135 16.4041C69.0631 11.9453 76.8139 9.18922 84.8605 8.3512C104.033 5.86573 114.601 11.4083 123.54 27.2656C117.844 26.2448 112.026 26.1777 106.309 27.0668C97.2265 28.2847 88.4074 30.1488 82.7756 38.823C80.5947 42.1536 71.44 53.7358 69.6666 52.9654C67.8932 52.1949 70.4335 49.088 70.7451 45.7078C71.9193 41.1594 70.1459 40.3143 65.6165 41.7559C54.8699 45.3265 44.8463 50.9118 36.0435 58.2345C35.4444 58.7316 34.4618 59.0547 34.6775 60.4218C42.3703 55.8733 49.7037 50.803 58.1873 48.2181C60.7756 47.3979 64.2505 44.4402 65.8801 46.6026C67.5098 48.7649 64.8257 52.2446 63.4836 54.9289C62.7886 56.271 61.6383 57.6132 62.9564 59.1045C64.2745 60.5957 65.8801 59.8501 67.3899 59.2287C74.618 56.0856 80.9294 51.0393 85.6993 44.5893C89.9172 39.1959 94.83 35.2688 101.732 34.6475C111.318 33.6781 120.904 32.8828 130.298 36.4867C133.054 37.5554 135.834 37.63 137.488 34.6226C139.142 31.6152 137.823 29.3783 135.427 27.3402C131.47 23.8371 127.93 19.8571 124.882 15.4845C121.513 10.757 117.131 6.90483 112.083 4.2309C107.035 1.55698 101.457 0.134238 95.7886 0.0745888C83.2469 -0.363394 70.8248 2.72856 59.8409 9.02227C58.3034 9.85993 56.5556 10.1895 54.8322 9.96675C46.4013 9.32056 37.9516 10.9294 30.2919 14.6394C29.0605 15.2234 27.9149 15.9849 26.8889 16.9012C25.7625 17.8954 24.4923 19.163 25.2113 20.8531C25.9302 22.5432 27.3921 22.4189 28.7342 22.4189C31.8624 22.3989 34.985 22.6986 38.0566 23.3137C39.0871 23.4877 40.4531 23.3137 40.8126 24.7304C41.1721 26.1472 39.878 26.4454 39.159 27.2159C26.0074 39.4972 16.8061 55.668 12.7973 73.545C12.5011 74.9099 11.897 76.1824 11.0347 77.2582C10.1723 78.334 9.07632 79.1825 7.83656 79.7338C6.05623 80.5294 4.45133 81.6937 3.12026 83.1554C1.7892 84.6171 0.760019 86.3453 0.0958252 88.2341C2.22752 85.0272 5.26749 82.5866 8.79517 81.25C10.3388 80.7542 11.7327 79.8529 12.8413 78.6335C13.9498 77.414 14.7355 75.918 15.122 74.2907C18.1979 64.248 22.8364 54.7945 28.854 46.3043C34.5261 39.0452 40.956 32.46 48.0261 26.6691Z"
            fill="white" />
    </g>
    <defs>
        <clipPath id="clip0_4_21">
            <rect width="176" height="124" fill="white" />
        </clipPath>
    </defs>
</svg>