<svg width="74" height="50" viewBox="0 0 74 50" fill="none" xmlns="http://www.w3.org/2000/svg">
    <g clip-path="url(#clip0_3_2)">
        <path d="M15.73 46.02L12.28 46.04L12.29 46.52L13.71 46.51L13.73 49.89H14.32L14.3 46.51L15.73 46.5V46.02Z"
            fill="#2051A3" />
        <path
            d="M17.2901 49.41V48.16L19.3801 48.15L19.3701 47.68L17.2801 47.69V46.51L19.6301 46.5L19.6201 46.02L16.6801 46.03L16.7001 49.89L19.7201 49.88V49.4L17.2901 49.41Z"
            fill="#2051A3" />
        <path
            d="M22.8801 49.4C22.5888 49.4059 22.3004 49.3407 22.0401 49.21C21.798 49.0916 21.5936 48.908 21.4501 48.68C21.3087 48.452 21.2358 48.1882 21.2401 47.92C21.2325 47.6559 21.3019 47.3952 21.4401 47.17C21.583 46.9389 21.7873 46.752 22.0301 46.63C22.2904 46.4992 22.5788 46.434 22.8701 46.44C23.0857 46.4287 23.3013 46.463 23.5029 46.5405C23.7045 46.6181 23.8875 46.7371 24.0401 46.89L24.4301 46.54C24.2379 46.3387 24.0018 46.1846 23.7401 46.09C23.0821 45.8761 22.3677 45.9189 21.7401 46.21C21.3934 46.3482 21.0945 46.5845 20.8801 46.89C20.6995 47.1923 20.6041 47.5378 20.6041 47.89C20.6041 48.2421 20.6995 48.5877 20.8801 48.89C21.0785 49.1877 21.3507 49.4288 21.6701 49.59C22.0416 49.7905 22.4579 49.8938 22.8801 49.89C23.1876 49.8958 23.4934 49.8415 23.7801 49.73C24.0418 49.6353 24.2779 49.4813 24.4701 49.28L24.0301 48.89C23.8831 49.0487 23.7054 49.1759 23.5076 49.2635C23.3099 49.3512 23.0964 49.3977 22.8801 49.4Z"
            fill="#2051A3" />
        <path
            d="M28.5501 46.02V47.68L26.1601 47.69L26.1501 46.03H25.5601L25.5701 49.89H26.1701L26.1601 48.17L28.5601 48.16L28.5701 49.88L29.1601 49.87L29.1401 46.02H28.5501Z"
            fill="#2051A3" />
        <path
            d="M33.6799 46.02L33.6999 48.9L31.1799 46.03H30.6899L30.7099 49.89H31.3099L31.2899 47.01L33.8099 49.88L34.2999 49.87L34.2799 46.02H33.6799Z"
            fill="#2051A3" />
        <path
            d="M38.88 46.2C38.5305 46.0225 38.1418 45.9365 37.75 45.95C37.3544 45.9409 36.9627 46.0303 36.61 46.21C36.2858 46.3685 36.0122 46.6144 35.82 46.92C35.6331 47.2197 35.536 47.5667 35.54 47.92C35.5378 48.2744 35.6386 48.6218 35.83 48.92C36.0273 49.2249 36.3039 49.4703 36.63 49.63C36.9851 49.8017 37.3757 49.8874 37.77 49.88C38.1545 49.8842 38.5345 49.7986 38.88 49.63C39.2026 49.4688 39.4755 49.2235 39.67 48.92C39.8527 48.6184 39.9493 48.2726 39.9493 47.92C39.9493 47.5674 39.8527 47.2215 39.67 46.92C39.4769 46.6127 39.2038 46.3639 38.88 46.2ZM39.17 48.67C39.028 48.8957 38.8276 49.0788 38.59 49.2C38.3376 49.3337 38.0557 49.4024 37.77 49.4C37.4787 49.4059 37.1904 49.3407 36.93 49.21C36.6925 49.0888 36.4921 48.9057 36.35 48.68C36.2057 48.4528 36.1293 48.1891 36.13 47.92C36.126 47.6549 36.199 47.3944 36.34 47.17C36.4791 46.9393 36.68 46.7522 36.92 46.63C37.1773 46.5004 37.4621 46.4352 37.75 46.44C38.0386 46.4291 38.3249 46.4947 38.58 46.63C38.8169 46.7476 39.0174 46.9273 39.16 47.15C39.2999 47.3786 39.3726 47.642 39.37 47.91C39.3696 48.1819 39.2858 48.4471 39.13 48.67H39.17Z"
            fill="#2051A3" />
        <path d="M41.74 49.41L41.73 46.03H41.13L41.15 49.89L44 49.88V49.4L41.74 49.41Z" fill="#2051A3" />
        <path
            d="M47.88 46.2C47.5265 46.0237 47.1349 45.9378 46.7401 45.95C46.3475 45.94 45.9588 46.0295 45.61 46.21C45.3105 46.3676 45.0585 46.6023 44.88 46.89C44.6932 47.1897 44.596 47.5368 44.6001 47.89C44.5949 48.2434 44.6921 48.5907 44.88 48.89C45.0773 49.1949 45.3539 49.4403 45.68 49.6C46.0351 49.7717 46.4257 49.8574 46.82 49.85C47.1853 49.8559 47.5473 49.7808 47.88 49.63C48.2026 49.4688 48.4755 49.2235 48.6701 48.92C48.8527 48.6184 48.9493 48.2726 48.9493 47.92C48.9493 47.5674 48.8527 47.2215 48.6701 46.92C48.4769 46.6128 48.2038 46.3639 47.88 46.2ZM48.16 48.67C48.0204 48.8977 47.8194 49.0814 47.5801 49.2C47.324 49.3284 47.0415 49.3953 46.755 49.3953C46.4686 49.3953 46.1861 49.3284 45.93 49.2C45.6879 49.0816 45.4836 48.898 45.34 48.67C45.2 48.4409 45.124 48.1784 45.1201 47.91C45.116 47.6449 45.189 47.3844 45.3301 47.16C45.4719 46.9316 45.6721 46.7451 45.91 46.62C46.1673 46.4904 46.4521 46.4252 46.7401 46.43C47.0287 46.4182 47.3153 46.4838 47.57 46.62C47.8087 46.735 48.0098 46.9153 48.15 47.14C48.2888 47.3696 48.3646 47.6317 48.3701 47.9C48.3836 48.1685 48.3212 48.4353 48.1901 48.67H48.16Z"
            fill="#2051A3" />
        <path
            d="M51.26 46.63C51.5235 46.498 51.8153 46.4328 52.11 46.44C52.3307 46.4302 52.5512 46.464 52.7588 46.5395C52.9664 46.615 53.1571 46.7307 53.32 46.88L53.69 46.53C53.4947 46.3349 53.2592 46.1848 53 46.09C52.7082 45.9862 52.3994 45.9387 52.09 45.95C51.6923 45.9414 51.2982 46.0271 50.94 46.2C50.6175 46.3611 50.3445 46.6064 50.15 46.91C49.9672 47.2037 49.8734 47.5441 49.88 47.89C49.8795 48.2441 49.9801 48.5911 50.17 48.89C50.3718 49.1884 50.6474 49.4295 50.97 49.59C51.325 49.7617 51.7156 49.8474 52.11 49.84C52.4018 49.8432 52.6922 49.7993 52.97 49.71C53.2288 49.6274 53.4721 49.5024 53.69 49.34V47.89H53.12V49.15C52.8142 49.3193 52.4694 49.4055 52.12 49.4C51.8255 49.406 51.5339 49.3408 51.27 49.21C51.0279 49.0916 50.8236 48.908 50.68 48.68C50.5312 48.4548 50.4545 48.1898 50.46 47.92C50.4574 47.652 50.5301 47.3886 50.67 47.16C50.8136 46.9319 51.0179 46.7484 51.26 46.63Z"
            fill="#2051A3" />
        <path
            d="M57.7499 46.02L56.4199 48.06L55.0799 46.03L54.4399 46.04L56.1099 48.54V49.89H56.6999V48.55L58.3399 46.02H57.7499Z"
            fill="#2051A3" />
        <path
            d="M59.09 49.14C58.9843 49.1366 58.8811 49.1722 58.8 49.24C58.7633 49.2745 58.7345 49.3164 58.7156 49.363C58.6966 49.4096 58.6879 49.4598 58.69 49.51C58.6884 49.5612 58.6984 49.612 58.7192 49.6587C58.7399 49.7055 58.771 49.7469 58.81 49.78C58.886 49.851 58.986 49.8905 59.09 49.8905C59.194 49.8905 59.2941 49.851 59.37 49.78C59.4397 49.7074 59.4786 49.6107 59.4786 49.51C59.4786 49.4094 59.4397 49.3126 59.37 49.24C59.3332 49.2044 59.2891 49.177 59.2408 49.1598C59.1925 49.1425 59.1411 49.1358 59.09 49.14Z"
            fill="#2051A3" />
        <path
            d="M62.32 45.99V46.47H63.88V48.63C63.894 48.8421 63.83 49.0519 63.7 49.22C63.6293 49.2897 63.5446 49.3436 63.4515 49.3781C63.3584 49.4126 63.259 49.4269 63.16 49.42C62.9876 49.4248 62.8169 49.385 62.6645 49.3044C62.512 49.2238 62.383 49.1052 62.29 48.96L61.95 49.34C62.0863 49.518 62.265 49.659 62.4699 49.75C62.6914 49.8435 62.9296 49.8911 63.17 49.89C63.3504 49.9072 63.5324 49.8867 63.7046 49.8299C63.8767 49.7731 64.0352 49.6812 64.17 49.56C64.2933 49.4266 64.3866 49.2683 64.4435 49.0958C64.5004 48.9233 64.5197 48.7406 64.5 48.56V45.94L62.32 45.99Z"
            fill="#2051A3" />
        <path
            d="M68.0701 47.89C67.8223 47.8037 67.5682 47.7369 67.3101 47.69C67.114 47.6511 66.9204 47.601 66.7301 47.54C66.6018 47.5008 66.4828 47.4361 66.3801 47.35C66.3333 47.3107 66.2957 47.2618 66.2698 47.2065C66.2439 47.1513 66.2303 47.091 66.2301 47.03C66.2309 46.9402 66.2553 46.8523 66.301 46.7751C66.3466 46.6978 66.4118 46.634 66.4901 46.59C66.7156 46.4543 66.9775 46.3914 67.2401 46.41C67.4393 46.4119 67.6375 46.4388 67.8301 46.49C68.0261 46.5414 68.2144 46.6188 68.3901 46.72L68.5801 46.28C68.392 46.1635 68.1858 46.079 67.9701 46.03C67.7313 45.9701 67.4862 45.9399 67.2401 45.94C66.9394 45.9384 66.641 45.9927 66.3601 46.1C66.1456 46.1792 65.9583 46.3179 65.8201 46.5C65.7107 46.6627 65.6516 46.8539 65.6501 47.05C65.6392 47.2667 65.7148 47.4788 65.8601 47.64C65.9998 47.7838 66.1709 47.8933 66.3601 47.96C66.6084 48.0468 66.8623 48.117 67.1201 48.17C67.3701 48.17 67.5601 48.27 67.7001 48.31C67.8237 48.3528 67.9388 48.4171 68.0401 48.5C68.0868 48.5392 68.1244 48.5882 68.1504 48.6434C68.1763 48.6987 68.1898 48.7589 68.1901 48.82C68.1893 48.9097 68.1648 48.9976 68.1191 49.0749C68.0735 49.1521 68.0083 49.216 67.9301 49.26C67.693 49.3832 67.4266 49.4386 67.1601 49.42C66.8987 49.42 66.639 49.3795 66.3901 49.3C66.1685 49.2324 65.9616 49.1239 65.7801 48.98L65.5601 49.41C65.7651 49.5704 65.9995 49.6893 66.2501 49.76C66.5452 49.8486 66.8519 49.8924 67.1601 49.89C67.4637 49.8985 67.766 49.8475 68.0501 49.74C68.2645 49.6608 68.4518 49.522 68.5901 49.34C68.707 49.1805 68.7701 48.9878 68.7701 48.79C68.7763 48.6841 68.7609 48.5781 68.7248 48.4783C68.6887 48.3786 68.6327 48.2873 68.5601 48.21C68.4223 48.0685 68.255 47.9592 68.0701 47.89Z"
            fill="#2051A3" />
        <path
            d="M71.88 49.4C71.5887 49.4059 71.3003 49.3407 71.04 49.21C70.7996 49.089 70.5959 48.9061 70.45 48.68C70.3086 48.452 70.2357 48.1882 70.24 47.92C70.2359 47.6549 70.3089 47.3944 70.45 47.17C70.589 46.9393 70.7899 46.7522 71.03 46.63C71.2903 46.4992 71.5787 46.434 71.87 46.44C72.0871 46.4292 72.3041 46.4636 72.5072 46.5411C72.7103 46.6186 72.8952 46.7374 73.05 46.89L73.43 46.54C73.2379 46.3387 73.0017 46.1846 72.74 46.09C72.0821 45.8761 71.3676 45.9189 70.74 46.21C70.3956 46.3521 70.0977 46.5876 69.88 46.89C69.7002 47.1928 69.6036 47.5378 69.6 47.89C69.5995 48.2441 69.7001 48.591 69.89 48.89C70.0922 49.1881 70.3677 49.4291 70.69 49.59C71.0411 49.7627 71.4287 49.8485 71.82 49.84C72.1242 49.8448 72.4265 49.7904 72.71 49.68C72.9717 49.5853 73.2079 49.4313 73.4 49.23L73.01 48.89C72.7152 49.2022 72.3091 49.3854 71.88 49.4Z"
            fill="#2051A3" />
        <path
            d="M30.8 32.52C30.8041 31.8447 30.6613 31.1765 30.3816 30.5618C30.1019 29.9471 29.6919 29.4006 29.18 28.96C28.1344 28.0167 26.7679 27.5087 25.36 27.54H15.61C14.1958 27.5145 12.8267 28.0377 11.79 29C11.2857 29.4439 10.884 29.9923 10.6129 30.6071C10.3418 31.2218 10.2077 31.8882 10.22 32.56V38.36C10.21 39.0474 10.3539 39.7284 10.6411 40.353C10.9283 40.9776 11.3516 41.5301 11.88 41.97C12.9291 42.9129 14.2999 43.4176 15.71 43.38H25.46C26.8613 43.3855 28.2111 42.8521 29.23 41.89C29.7446 41.4469 30.1542 40.8949 30.4292 40.274C30.7042 39.6531 30.8377 38.9788 30.82 38.3L30.8 32.52ZM25.41 39.65H15.67C14.67 39.65 14.12 39.22 14.12 38.34V32.55C14.12 31.67 14.63 31.23 15.66 31.23H25.41C26.41 31.23 26.95 31.66 26.95 32.54V38.33C26.95 39.21 26.44 39.65 25.41 39.65Z"
            fill="#2051A3" />
        <path
            d="M69.52 43.33H73.44V27.5L69.45 27.52L69.5 37.62L59.57 27.56L55.41 27.57L55.49 43.32L59.41 43.31L59.37 32.69L69.52 43.33Z"
            fill="#2051A3" />
        <path
            d="M39.44 39.29C39.0235 39.2821 38.6268 39.1112 38.335 38.8138C38.0433 38.5165 37.8799 38.1165 37.88 37.7V33.06C37.88 32.6383 38.0475 32.2339 38.3457 31.9357C38.6439 31.6375 39.0483 31.47 39.47 31.47H52.3L52.25 27.57H39.25C37.8579 27.541 36.5105 28.062 35.5 29.02C34.9915 29.4612 34.5837 30.0065 34.3042 30.6189C34.0247 31.2314 33.88 31.8968 33.88 32.57V38.36C33.8814 39.0321 34.0288 39.6958 34.312 40.3053C34.5951 40.9148 35.0073 41.4555 35.52 41.89C36.5391 42.8298 37.8842 43.3355 39.27 43.3L49.99 43.25H52.3V39.25H39.44V39.29Z"
            fill="#2051A3" />
        <path
            d="M20.04 10.73C21.74 9.30998 21.88 8.88998 19.74 8.00998C18.74 7.62998 17.08 7.26998 18.74 6.94998C20.4041 6.79256 22.0802 6.81267 23.74 7.00998C24.5052 7.16126 25.2993 7.0146 25.96 6.59998C28.8182 4.80602 32.0524 3.69715 35.41 3.35998C43.41 2.35998 47.82 4.58998 51.55 10.97C49.173 10.5593 46.7456 10.5323 44.36 10.89C40.57 11.38 36.89 12.13 34.54 15.62C33.63 16.96 29.81 21.62 29.07 21.31C28.33 21 29.39 19.75 29.52 18.39C30.01 16.56 29.27 16.22 27.38 16.8C22.8958 18.2366 18.7132 20.4838 15.04 23.43C14.79 23.63 14.38 23.76 14.47 24.31C17.68 22.48 20.74 20.44 24.28 19.4C25.36 19.07 26.81 17.88 27.49 18.75C28.17 19.62 27.05 21.02 26.49 22.1C26.2 22.64 25.72 23.18 26.27 23.78C26.82 24.38 27.49 24.08 28.12 23.83C31.1361 22.5654 33.7697 20.5351 35.76 17.94C37.52 15.77 39.57 14.19 42.45 13.94C46.45 13.55 50.45 13.23 54.37 14.68C55.52 15.11 56.68 15.14 57.37 13.93C58.06 12.72 57.51 11.82 56.51 11C54.8589 9.59057 53.3818 7.98926 52.11 6.22998C50.7039 4.32793 48.8757 2.77805 46.7692 1.70222C44.6627 0.626401 42.3353 0.0539788 39.97 0.0299798C34.7367 -0.146238 29.5533 1.09778 24.97 3.62998C24.3285 3.967 23.5992 4.09961 22.88 4.00998C19.3621 3.74999 15.8362 4.39731 12.64 5.88998C12.1262 6.12494 11.6482 6.4313 11.22 6.79998C10.75 7.19998 10.22 7.70998 10.52 8.38998C10.82 9.06998 11.43 9.01998 11.99 9.01998C13.2954 9.01191 14.5983 9.13249 15.88 9.37998C16.31 9.44998 16.88 9.37998 17.03 9.94998C17.18 10.52 16.64 10.64 16.34 10.95C10.8522 15.8912 7.01276 22.3974 5.34004 29.59C5.21642 30.1391 4.96435 30.6511 4.60452 31.0839C4.24469 31.5168 3.78735 31.8581 3.27004 32.08C2.52715 32.4001 1.85747 32.8685 1.30205 33.4566C0.746637 34.0447 0.317189 34.74 0.0400391 35.5C0.929539 34.2097 2.19803 33.2278 3.67004 32.69C4.31417 32.4905 4.89578 32.1279 5.35836 31.6373C5.82095 31.1466 6.14879 30.5447 6.31004 29.89C7.59353 25.8494 9.52906 22.0459 12.04 18.63C14.4069 15.7094 17.0899 13.0599 20.04 10.73Z"
            fill="#2051A3" />
    </g>
    <defs>
        <clipPath id="clip0_3_2">
            <rect width="73.44" height="49.89" fill="white" />
        </clipPath>
    </defs>
</svg>