<svg width="151" height="41" viewBox="0 0 151 41" fill="none" xmlns="http://www.w3.org/2000/svg">
	<path
		d="M18.3515 10.4786C19.8658 9.21998 19.9832 8.80044 18.0814 8.07209C17.2127 7.73996 15.716 7.41366 17.1599 7.1398C18.6802 7.04074 20.1652 6.96499 21.6502 7.18641C22.3781 7.29712 23.0237 7.21554 23.6283 6.82515C26.1934 5.17033 29.0754 4.30795 32.0454 3.95834C39.1595 3.11928 43.1039 5.04796 46.4262 10.6942C44.1194 10.2746 42.0709 10.3679 40.0223 10.6359C36.6414 11.0729 33.372 11.7372 31.2706 14.8254C30.4665 16.0082 27.0621 20.1569 26.3988 19.8539C25.7825 19.5684 26.6864 18.4788 26.8038 17.2668C27.2323 15.6528 26.5749 15.3498 24.8903 15.8626C20.8402 17.0862 17.2303 19.1722 13.8964 21.7302C13.6733 21.8992 13.3153 22.0215 13.3916 22.5052C16.2501 20.8911 18.9795 19.0848 22.1257 18.1583C23.0942 17.8728 24.3855 16.824 24.9901 17.5873C25.5888 18.3448 24.5968 19.5976 24.0627 20.5532C23.7985 21.0251 23.3759 21.5029 23.8631 22.039C24.3679 22.5984 24.949 22.3012 25.5125 22.0798C28.2771 20.9844 30.4724 19.1372 32.3154 16.8764C33.8826 14.9536 35.714 13.561 38.2732 13.3104C41.8478 12.9666 45.4225 12.6753 48.8973 13.963C49.9245 14.3418 50.9517 14.3651 51.568 13.2929C52.1785 12.2324 51.6913 11.4283 50.7991 10.7C49.3082 9.47636 48.0462 8.0313 46.8781 6.48719C44.1957 2.93865 40.5389 1.23139 36.0955 1.00997C31.3117 0.776893 26.9095 2.01801 22.7244 4.19142C22.1198 4.50607 21.5211 4.58182 20.8637 4.52937C17.6764 4.26134 14.6535 4.89064 11.7539 6.17837C11.2961 6.38231 10.8617 6.662 10.4861 6.98247C10.0752 7.33791 9.62909 7.78075 9.86388 8.38674C10.0811 8.94611 10.6739 8.94029 11.1728 8.93446C12.3292 8.92281 13.4679 9.06848 14.5948 9.27242C14.9764 9.34234 15.5223 9.2899 15.622 9.77935C15.7042 10.1697 15.2757 10.3912 15.0116 10.6242C9.98128 15.0876 6.83512 20.6581 5.21509 27.1084C4.94508 28.1863 4.35224 28.8273 3.36614 29.3109C2.20394 29.8878 1.165 30.6161 0.48999 32.335C1.57588 31.0123 2.52677 30.2665 3.75354 29.8878C5.00965 29.4974 5.68466 28.6758 6.10728 27.4463C7.33405 23.8978 8.88364 20.5007 11.208 17.4883C13.28 14.8312 15.7805 12.617 18.3515 10.4786Z"
		fill="#2051A3" />
	<path
		d="M9.5 37.0488V30.313C9.5 27.7783 11.1142 26.3099 13.8905 26.3099H22.0964C24.8082 26.3099 26.4458 27.7958 26.4458 30.313V37.0488C26.4458 39.4844 24.8082 40.9703 22.0729 40.9703H13.8905C11.1787 40.9703 9.5 39.4844 9.5 37.0488ZM14.8297 37.346H21.1748C22.0729 37.346 22.4309 36.9905 22.4309 36.099V31.2045C22.4309 30.2722 22.0318 29.9167 21.0516 29.9167H14.9295C13.9492 29.9167 13.5149 30.2955 13.5149 31.2045V36.099C13.5149 36.9089 13.9903 37.346 14.8297 37.346Z"
		fill="#2051A3" />
	<path
		d="M28.4414 37.0488V30.313C28.4414 27.7958 30.1201 26.3099 32.8319 26.3099H43.2682C43.9843 26.3099 44.4657 26.7877 44.4657 27.4811V28.7514C44.4657 29.4623 43.9843 29.9226 43.2682 29.9226H33.9296C32.9141 29.9226 32.4504 30.3363 32.4504 31.2103V36.1048C32.4504 36.9148 32.9493 37.3518 33.8298 37.3518H43.2682C43.9843 37.3518 44.4657 37.8063 44.4657 38.523V39.7932C44.4657 40.5041 43.9843 40.9819 43.2682 40.9819H32.8495C30.0967 40.9702 28.4414 39.4844 28.4414 37.0488Z"
		fill="#2051A3" />
	<path
		d="M46.7607 39.7991V27.4811C46.7607 26.7295 47.1775 26.3099 47.9405 26.3099H49.4373C50.036 26.3099 50.4528 26.4498 50.8754 26.8635L59.4569 34.2694C59.8149 34.6073 60.173 34.45 60.173 33.9547V27.4811C60.173 26.7295 60.5721 26.3099 61.3293 26.3099H62.9435C63.7007 26.3099 64.1233 26.7236 64.1233 27.4811V39.7991C64.1233 40.5507 63.7065 40.9703 62.9435 40.9703H61.5054C60.9243 40.9703 60.5076 40.8129 60.0673 40.3934L51.4271 32.9875C51.0456 32.6321 50.711 32.7894 50.711 33.3021V39.7991C50.711 40.5507 50.3119 40.9703 49.5312 40.9703H47.9347C47.1834 40.9703 46.7607 40.5507 46.7607 39.7991Z"
		fill="#2051A3" />
	<path
		d="M76.6787 37.0488V30.313C76.6787 27.7958 78.3574 26.3099 81.0692 26.3099H91.5056C92.2217 26.3099 92.703 26.7877 92.703 27.4811V28.7514C92.703 29.4623 92.2217 29.9226 91.5056 29.9226H82.1669C81.1514 29.9226 80.6877 30.3363 80.6877 31.2103V36.1048C80.6877 36.9148 81.1866 37.3518 82.0671 37.3518H91.5056C92.2217 37.3518 92.703 37.8063 92.703 38.523V39.7932C92.703 40.5041 92.2217 40.9819 91.5056 40.9819H81.0869C78.334 40.9702 76.6787 39.4844 76.6787 37.0488Z"
		fill="#2051A3" />
	<path
		d="M94.9979 39.7993V27.2016C94.9979 26.5083 95.3384 26.0712 95.9958 25.8731L97.4925 25.4361C98.2908 25.1972 98.8074 25.576 98.8074 26.4267V39.7993C98.8074 40.5509 98.4082 40.9705 97.6275 40.9705H96.1719C95.4147 40.9705 94.9979 40.5509 94.9979 39.7993Z"
		fill="#2051A3" />
	<path
		d="M101.102 37.2469V32.8651C101.102 30.4878 102.681 29.0835 105.352 29.0835H112.038C114.673 29.0835 116.27 30.5111 116.27 32.8651V37.2411C116.27 39.5601 114.614 40.9644 112.079 40.9644H105.334C102.699 40.9702 101.102 39.6417 101.102 37.2469ZM106.015 37.5441H111.38C112.038 37.5441 112.437 37.1886 112.437 36.67V33.5235C112.437 32.8884 112.038 32.4922 111.339 32.4922H105.992C105.311 32.4922 104.953 32.9059 104.953 33.5235V36.67C104.953 37.1478 105.393 37.5441 106.015 37.5441Z"
		fill="#2051A3" />
	<path
		d="M133.233 30.2547V39.7641C133.233 40.5391 132.816 40.9702 132.053 40.9702H130.357C129.758 40.9702 129.576 40.8712 129.418 40.5915C129.3 40.3351 129.177 40.1953 129.001 40.1953C128.52 40.1953 128.085 40.9702 127.205 40.9702H122.233C119.721 40.9702 118.265 39.6009 118.265 37.2061V30.2547C118.265 29.503 118.665 29.0835 119.445 29.0835H120.924C121.682 29.0835 122.104 29.4972 122.104 30.2547V36.3554C122.104 37.107 122.544 37.5033 123.243 37.5033H128.232C128.948 37.5033 129.388 37.0896 129.388 36.3554V30.2547C129.388 29.503 129.805 29.0835 130.568 29.0835H132.065C132.816 29.0835 133.233 29.4972 133.233 30.2547Z"
		fill="#2051A3" />
	<path
		d="M135.528 37.2237V32.8244C135.528 30.5054 137.042 29.0836 139.619 29.0836H146.064C146.446 29.0836 146.663 28.8622 146.663 28.4893V27.3997C146.663 26.7237 146.945 26.2518 147.578 26.0711L149.134 25.6166C149.973 25.3777 150.49 25.6749 150.49 26.5256V39.7992C150.49 40.5508 150.073 40.9704 149.31 40.9704H147.831C147.215 40.9704 147.033 40.8713 146.892 40.5916C146.751 40.3119 146.633 40.1779 146.451 40.1779C145.97 40.1779 145.553 40.9704 144.655 40.9704H139.566C137.025 40.9704 135.528 39.5836 135.528 37.2237ZM140.541 37.5442H145.407C146.223 37.5442 146.663 37.0489 146.663 36.4546V33.1274C146.663 32.7312 146.446 32.5331 146.064 32.5331H140.558C139.76 32.5331 139.378 32.9876 139.378 33.6635V36.5944C139.378 37.247 139.86 37.5442 140.541 37.5442Z"
		fill="#2051A3" />
</svg>