<svg width="381" height="262" viewBox="0 0 381 262" fill="none" xmlns="http://www.w3.org/2000/svg">
	<path
		d="M0.37441 231.957C0.37441 231.957 -7.07657 155.316 44.4993 164.402C96.0751 173.489 103.623 19.705 196.082 15.4261C288.541 11.1473 281.115 142.309 327.599 145.459C374.081 148.609 381 231.956 381 231.956H0.37441V231.957Z"
		fill="#E3E4ED" />
	<path
		d="M55.3288 93.7668L41.9581 123.945C22.2009 114.937 9.60664 96.6781 7.1492 76.6708L40.2587 73.0349C41.4658 82.1647 47.2853 89.863 55.3288 93.7668Z"
		fill="#FF8F4A" />
	<path
		d="M122.89 93.5541C109.606 123.538 74.5258 137.381 44.0958 124.871L57.4665 94.6933C60.5335 95.8746 63.8657 96.5207 67.3514 96.5207C82.4405 96.5207 94.6713 84.4193 94.6713 69.4975C94.6713 59.1557 88.796 50.1664 80.1613 45.6291L93.544 15.4268C122.908 29.3185 136.045 63.8449 122.89 93.5541Z"
		fill="#58D9F1" />
	<path
		d="M91.419 14.4701L78.061 44.6298C74.7719 43.2409 71.1511 42.4737 67.3508 42.4737C52.2623 42.4737 40.0246 54.5751 40.0246 69.4969C40.0246 69.9109 40.0366 70.3249 40.0557 70.7333L6.90939 74.3817C6.10885 64.7896 7.63635 54.8743 11.8116 45.4403C25.2127 15.1884 60.8037 1.36941 91.419 14.4701Z"
		fill="#67ACD6" />
	<path
		d="M307.437 17.5941C288.278 17.5941 272.691 33.0083 272.691 51.9549C272.691 70.9014 288.278 86.3157 307.437 86.3157C326.596 86.3157 342.183 70.9014 342.183 51.9549C342.183 33.0083 326.596 17.5941 307.437 17.5941ZM308.171 68.6758C298.833 69.0772 290.934 61.9159 290.528 52.6813C290.122 43.4467 297.363 35.6348 306.701 35.2334C316.04 34.8319 323.939 41.9932 324.345 51.2278C324.751 60.4631 317.51 68.2743 308.171 68.6758Z"
		fill="#FF8F4A" />
	<path
		d="M359.209 43.9724C358.709 43.0659 357.843 42.9913 355.512 42.8106C352.63 42.5873 349.739 42.465 346.864 42.1852C346.338 42.1344 345.623 41.6501 345.41 41.1821C344.037 38.1629 342.839 35.0646 341.445 32.0548C341.039 31.1791 340.98 30.6339 341.611 29.8667C343.832 27.1643 345.98 24.4023 348.153 21.6603C348.505 21.2155 348.841 20.7589 349.438 19.9747C345.621 16.4323 341.845 12.9294 337.975 9.3381C334.737 12.0983 331.753 14.5611 328.876 17.1399C327.862 18.0495 327.152 18.271 325.793 17.6248C323.016 16.3037 320.054 15.3665 317.204 14.1884C316.767 14.0078 316.286 13.4181 316.217 12.9602C315.694 9.46482 315.164 5.96381 314.857 2.44587C314.709 0.757159 313.986 0.20952 312.414 0.267232C311.81 0.289188 311.198 0.0953507 310.589 0C307.855 0.0602215 305.12 0.120442 302.385 0.180663C302.092 0.276641 301.805 0.422179 301.504 0.460444C298.354 0.859412 298.859 0.604097 298.616 3.5286C298.32 7.09234 298.085 10.6611 297.859 13.7569C293.734 15.5905 289.878 17.3037 285.896 19.0739C282.496 16.4398 278.943 13.6878 275.366 10.9177C271.103 14.1176 267.686 17.931 264.643 22.2148C267.395 25.3589 270.071 28.4308 272.769 31.4839C273.253 32.0316 273.43 32.4287 273.076 33.2278C271.69 36.3556 270.382 39.5229 269.217 42.7366C268.881 43.6631 268.461 43.9021 267.588 44.0037C263.985 44.424 260.393 44.9278 256.791 45.3631C255.897 45.471 255.441 45.7558 255.306 46.7564C254.701 51.2454 255.075 55.6786 255.836 60.1086C255.987 60.9849 256.521 61.1016 257.282 61.1474C260.799 61.3588 264.311 61.6549 267.83 61.8425C268.843 61.8964 269.303 62.1743 269.699 63.2088C271.068 66.7813 272.647 70.2747 274.266 74.0819C271.846 77.1387 269.098 80.6071 266.352 84.0743C269.63 88.3807 273.357 91.9783 277.792 94.9141C281.247 91.9281 284.607 89.0231 287.651 86.3922C291.204 87.6374 294.476 88.8794 297.816 89.9063C299.077 90.294 299.575 90.841 299.702 92.1232C300.04 95.5383 300.512 98.9408 300.965 102.344C301.054 103.016 300.978 103.9 302.101 103.867C306.664 103.732 311.228 103.602 315.792 103.466C316.761 103.437 317.091 102.925 317.144 101.976C317.343 98.4459 317.697 94.9229 317.835 91.3905C317.889 90.028 318.546 89.6084 319.685 89.1561C322.499 88.0388 325.305 86.8589 327.972 85.4424C329.122 84.832 329.705 84.8916 330.661 85.6745C333.729 88.1919 336.898 90.5895 339.963 92.9826C342.775 91.4056 349.076 84.7373 350.865 81.4929C348.185 78.4843 345.508 75.4149 342.745 72.4208C342.055 71.6718 342.101 71.1574 342.469 70.2672C343.659 67.3948 344.643 64.4389 345.803 61.5533C345.998 61.0678 346.636 60.5032 347.136 60.4323C350.31 59.9819 353.501 59.6413 356.69 59.3006C358.473 59.1106 359.193 59.0403 359.535 58.3678L359.209 43.9724ZM329.824 75.0548C323.585 80.9685 315.39 84.1257 306.75 83.9444C298.109 83.7631 290.057 80.2652 284.077 74.095C278.097 67.9249 274.904 59.8207 275.088 51.2761C275.271 42.7316 278.808 34.7685 285.047 28.8549C291.287 22.9413 299.482 19.784 308.122 19.9653C316.763 20.1466 324.815 23.6445 330.795 29.8147C336.775 35.9849 339.968 44.089 339.784 52.6336C339.601 61.1782 336.064 69.1406 329.824 75.0548Z"
		fill="#FF8F4A" />
	<path
		d="M324.459 109.356C313.236 109.356 304.106 118.385 304.106 129.483C304.106 140.581 313.236 149.61 324.459 149.61C335.682 149.61 344.812 140.581 344.812 129.483C344.812 118.385 335.682 109.356 324.459 109.356ZM324.89 139.279C319.42 139.514 314.792 135.319 314.555 129.91C314.317 124.5 318.559 119.924 324.028 119.689C329.498 119.454 334.126 123.649 334.364 129.058C334.602 134.467 330.36 139.043 324.89 139.279Z"
		fill="#67ACD6" />
	<path
		d="M354.786 124.808C354.493 124.277 353.987 124.233 352.621 124.127C350.933 123.997 349.24 123.925 347.556 123.761C347.248 123.731 346.829 123.448 346.704 123.173C345.9 121.404 345.198 119.589 344.382 117.827C344.144 117.313 344.109 116.994 344.479 116.545C345.78 114.962 347.039 113.344 348.311 111.738C348.517 111.478 348.715 111.21 349.065 110.751C346.828 108.675 344.617 106.623 342.35 104.52C340.453 106.137 338.705 107.579 337.02 109.09C336.425 109.623 336.01 109.752 335.214 109.374C333.587 108.601 331.852 108.051 330.182 107.361C329.926 107.255 329.644 106.91 329.604 106.642C329.298 104.594 328.987 102.543 328.808 100.483C328.721 99.4935 328.298 99.1729 327.377 99.2062C327.023 99.2187 326.665 99.1058 326.308 99.05C324.707 99.0851 323.104 99.1203 321.503 99.1554C321.331 99.2112 321.163 99.2971 320.987 99.3191C319.141 99.5525 319.437 99.4032 319.295 101.116C319.122 103.204 318.984 105.294 318.851 107.108C316.434 108.182 314.176 109.185 311.843 110.222C309.852 108.68 307.77 107.067 305.675 105.445C303.178 107.319 301.176 109.553 299.394 112.062C301.006 113.904 302.573 115.704 304.153 117.492C304.437 117.813 304.54 118.045 304.333 118.513C303.521 120.345 302.756 122.2 302.073 124.083C301.877 124.625 301.63 124.765 301.119 124.825C299.009 125.071 296.905 125.366 294.795 125.621C294.271 125.684 294.004 125.851 293.924 126.437C293.57 129.067 293.789 131.663 294.235 134.258C294.323 134.772 294.637 134.84 295.082 134.867C297.143 134.991 299.2 135.164 301.261 135.274C301.854 135.305 302.123 135.468 302.356 136.074C303.157 138.167 304.082 140.213 305.031 142.443C303.613 144.234 302.003 146.266 300.395 148.297C302.315 150.819 304.498 152.927 307.096 154.646C309.12 152.897 311.089 151.196 312.871 149.654C314.952 150.384 316.869 151.111 318.825 151.712C319.564 151.94 319.856 152.26 319.93 153.011C320.128 155.011 320.404 157.004 320.67 158.998C320.722 159.392 320.678 159.909 321.334 159.89C324.008 159.811 326.681 159.735 329.354 159.655C329.922 159.638 330.114 159.338 330.146 158.783C330.262 156.715 330.47 154.651 330.551 152.583C330.582 151.785 330.967 151.539 331.634 151.274C333.282 150.62 334.926 149.928 336.488 149.099C337.162 148.742 337.503 148.777 338.063 149.235C339.86 150.709 341.716 152.115 343.511 153.516C345.158 152.592 348.85 148.686 349.898 146.786C348.328 145.023 346.759 143.225 345.141 141.472C344.737 141.033 344.764 140.731 344.98 140.21C345.676 138.528 346.253 136.796 346.932 135.106C347.046 134.822 347.42 134.491 347.712 134.449C349.572 134.185 351.441 133.985 353.309 133.786C354.353 133.674 354.776 133.633 354.975 133.24L354.786 124.808ZM337.574 143.015C333.918 146.479 329.118 148.328 324.057 148.222C318.996 148.116 314.279 146.067 310.776 142.453C307.273 138.838 305.403 134.091 305.51 129.086C305.617 124.081 307.69 119.417 311.344 115.953C314.999 112.489 319.799 110.64 324.861 110.746C329.922 110.852 334.638 112.901 338.141 116.515C341.644 120.129 343.514 124.876 343.407 129.882C343.3 134.886 341.229 139.551 337.574 143.015Z"
		fill="#67ACD6" />
	<path
		d="M307.269 73.8755V196.414C307.269 205.118 300.132 212.17 291.336 212.17H89.6638C80.8693 212.17 73.731 205.118 73.731 196.414V73.8755C73.731 65.1722 80.8693 58.1194 89.6638 58.1194H291.336C300.131 58.12 307.269 65.1729 307.269 73.8755Z"
		fill="white" />
	<path d="M122.548 99.4709H105.741V193.841H122.548V99.4709Z" fill="#E3E4ED" />
	<path d="M122.548 170.249H105.741V193.841H122.548V170.249Z" fill="#A9E6F1" />
	<path d="M148 99.4709H131.193V193.841H148V99.4709Z" fill="#E3E4ED" />
	<path d="M148 158.556H131.193V193.841H148V158.556Z" fill="#58D9F1" />
	<path d="M173.451 99.4709H156.645V193.841H173.451V99.4709Z" fill="#E3E4ED" />
	<path d="M173.451 134.963H156.645V193.841H173.451V134.963Z" fill="#67ACD6" />
	<path d="M198.904 99.4709H182.097V193.841H198.904V99.4709Z" fill="#E3E4ED" />
	<path d="M198.904 146.657H182.097V193.842H198.904V146.657Z" fill="#58D9F1" />
	<path d="M224.356 99.4709H207.549V193.841H224.356V99.4709Z" fill="#E3E4ED" />
	<path d="M224.356 123.065H207.549V193.842H224.356V123.065Z" fill="#67ACD6" />
	<path d="M249.807 99.4722H233V193.842H249.807V99.4722Z" fill="#FF8F4A" />
	<path d="M275.259 99.4709H258.452V193.841H275.259V99.4709Z" fill="#E3E4ED" />
	<path d="M275.259 116.236H258.452V193.842H275.259V116.236Z" fill="#67ACD6" />
	<path
		d="M307.269 73.8755V80.8737H73.731V73.8755C73.731 65.1722 80.8693 58.1194 89.6638 58.1194H291.336C300.131 58.12 307.269 65.1729 307.269 73.8755Z"
		fill="#67ACD6" />
	<path d="M284.933 66.233L291.608 72.8329" stroke="white" stroke-width="2" stroke-miterlimit="10" />
	<path d="M291.608 66.233L284.933 72.8329" stroke="white" stroke-width="2" stroke-miterlimit="10" />
	<path d="M277.489 66.233H270.815V72.8329H277.489V66.233Z" stroke="white" stroke-width="2" stroke-miterlimit="10" />
	<path d="M263.884 72.8329H255.284" stroke="white" stroke-width="2" stroke-miterlimit="10" />
	<path
		d="M66.6029 213.401C66.5414 216.564 64.5571 220.817 63.9589 222.85C63.4914 224.438 62.9586 226.005 62.4632 227.585C61.4634 230.773 62.7226 240.598 58.1896 241.267C51.6311 242.235 55.8679 233.958 56.3259 231.428C56.6386 229.697 56.8873 227.956 57.089 226.209C57.2831 224.528 57.4233 222.845 57.5102 221.155C57.6003 219.414 57.6536 217.679 58.0805 215.979C58.817 213.044 60.406 208.243 64.5787 209.778C66.1259 210.348 66.6359 211.721 66.6029 213.401Z"
		fill="#82542C" />
	<path
		d="M60.0844 239.298C60.1662 239.063 60.073 238.824 60.0818 238.585C60.0882 238.416 60.1592 238.27 60.2506 238.13C60.3774 237.936 60.5335 237.763 60.6629 237.572C60.7733 237.41 60.8532 237.231 60.9509 237.062C61.0023 236.973 61.072 236.841 61.19 236.828C61.275 236.819 61.3588 236.881 61.4209 236.928C61.7825 237.199 62.0692 237.565 62.4251 237.846C63.2954 238.534 64.2939 239.079 65.2917 239.563C66.1829 239.995 67.1097 240.306 68.1012 240.403C68.6886 240.46 69.2792 240.466 69.8678 240.497C70.199 240.514 70.5618 240.526 70.8739 240.652C71.2735 240.814 71.3554 241.191 71.3865 241.582C71.4074 241.85 71.4074 242.119 71.4321 242.387C71.448 242.558 71.4759 242.735 71.448 242.907C71.4156 243.108 71.3027 243.27 71.1581 243.411C70.4768 244.075 69.3984 244.395 68.4818 244.548C67.4992 244.713 66.49 244.696 65.4972 244.653C64.004 244.59 62.5101 244.526 61.0169 244.462C59.9962 244.418 58.9698 244.393 57.9498 244.439C56.8112 244.491 55.6649 244.66 54.5256 244.54C53.9287 244.477 53.236 244.341 52.8408 243.849C52.5198 243.45 52.4621 242.915 52.49 242.422C52.5211 241.877 52.6454 241.34 52.7577 240.806C52.8744 240.253 52.9893 239.695 53.1434 239.15C53.2341 238.83 53.3293 238.457 53.5424 238.19C53.5944 238.125 53.6705 238.04 53.7612 238.028C53.8399 238.018 53.8919 238.056 53.9458 238.11C54.171 238.335 54.3163 238.606 54.5681 238.815C55.3046 239.427 56.2688 239.86 57.1981 240.091C57.9987 240.289 58.888 240.296 59.6016 239.832C59.8034 239.702 60.0038 239.527 60.0844 239.298Z"
		fill="#3D535C" />
	<path
		d="M64.6764 136.498C64.5959 136.047 64.4918 135.625 64.3573 135.251C63.8131 133.74 61.0689 133.147 59.6841 133.635C58.3647 134.1 57.4455 135.337 57.0186 136.656C56.5917 137.975 56.5828 139.386 56.5778 140.771C55.8762 139.752 54.4622 139.275 53.2767 139.658C53.0413 139.734 53.8863 143.745 54.0404 144.204C54.5872 145.831 53.1238 147.321 53.8323 148.7C54.3265 149.662 55.4061 149.856 56.3532 150.137C57.4684 150.469 58.2252 151.224 59.2458 151.571C59.6201 150.783 59.9087 149.958 60.1827 149.132C60.3242 148.705 60.4638 148.279 60.602 147.851C60.7004 147.548 60.531 147.143 60.9896 147.19C61.6367 147.255 63.2358 147.737 63.6431 146.932C64.6923 145.427 64.8934 142.609 64.9225 140.846C64.9441 139.604 64.9289 137.917 64.6764 136.498Z"
		fill="#966C49" />
	<path
		d="M56.8283 213.317C57.4094 216.428 56.3272 220.988 56.1528 223.098C56.0164 224.747 55.8121 226.388 55.6472 228.033C55.3135 231.354 58.5385 240.731 54.2332 242.285C48.004 244.533 50.4773 235.584 50.4132 233.015C50.3688 231.257 50.2591 229.502 50.103 227.75C49.7681 223.994 50.0459 220.221 50.332 216.471C50.5521 213.588 49.9127 209.522 54.1108 210.169C55.7423 210.42 56.52 211.664 56.8283 213.317Z"
		fill="#966C49" />
	<path
		d="M55.9288 239.593C56.0081 239.358 55.9123 239.12 55.918 238.881C55.9225 238.712 55.9916 238.564 56.0817 238.423C56.2067 238.228 56.3602 238.054 56.4877 237.861C56.5961 237.697 56.6735 237.519 56.7699 237.348C56.8201 237.258 56.8886 237.125 57.0059 237.112C57.0903 237.102 57.1753 237.163 57.2381 237.209C57.6028 237.476 57.8934 237.839 58.253 238.116C59.1316 238.793 60.1364 239.328 61.1393 239.8C62.0356 240.222 62.9662 240.523 63.959 240.608C64.547 240.659 65.1376 240.658 65.7262 240.682C66.058 240.695 66.4208 240.704 66.7342 240.826C67.1357 240.983 67.222 241.359 67.2575 241.751C67.2816 242.018 67.2848 242.287 67.3127 242.555C67.3311 242.726 67.3609 242.902 67.3349 243.075C67.3045 243.275 67.1941 243.439 67.0507 243.582C66.3771 244.253 65.3025 244.585 64.3878 244.75C63.4071 244.926 62.3978 244.92 61.4045 244.888C59.9106 244.842 58.4161 244.795 56.9222 244.748C55.9015 244.716 54.8745 244.703 53.8551 244.76C52.7171 244.824 51.5728 245.006 50.4322 244.899C49.8347 244.843 49.1407 244.715 48.7398 244.228C48.4144 243.832 48.3503 243.298 48.3725 242.805C48.3973 242.259 48.5159 241.721 48.6218 241.187C48.7322 240.631 48.84 240.073 48.9885 239.527C49.0754 239.206 49.1661 238.831 49.3767 238.562C49.4281 238.496 49.5029 238.411 49.5936 238.398C49.6717 238.386 49.7243 238.425 49.7789 238.478C50.0066 238.701 50.155 238.969 50.4088 239.175C51.1528 239.779 52.1215 240.202 53.0533 240.421C53.8564 240.61 54.7458 240.608 55.4537 240.135C55.6522 240.001 55.8501 239.823 55.9288 239.593Z"
		fill="#4A6570" />
	<path
		d="M59.9125 183.437C63.5314 185.082 64.4664 189.262 65.6729 192.639C67.0958 196.619 68.0834 200.819 68.7501 204.996C69.2348 208.033 70.2732 210.289 69.9364 213.451C69.6147 216.473 68.7146 219.401 67.7193 222.263C67.2677 223.562 61.9817 239.683 63.173 239.709C60.7003 239.655 58.2277 239.601 55.7556 239.547C56.3602 232.268 56.9641 224.99 57.5686 217.712C57.8502 214.318 58.6026 210.997 57.4049 207.752C56.3056 204.775 54.8136 201.94 52.9823 199.34C51.0913 196.656 48.7259 194.034 48.2717 190.669C47.8143 187.282 50.8357 185.086 53.7467 183.725C55.6675 182.826 57.9815 182.558 59.9125 183.437Z"
		fill="#F06A35" />
	<path
		d="M62.2139 184.929C64.8845 187.852 64.0789 192.058 63.8435 195.631C63.5657 199.844 62.8007 204.089 61.7489 208.188C58.9832 219.051 58.2975 231.038 57.8896 242.195C54.9323 241.422 51.8659 241.058 48.8077 241.119C48.0611 232.312 48.2856 223.424 49.4712 214.664C50.5242 206.883 50.8332 199.274 48.0325 191.714C47.3963 189.997 46.644 188.019 47.5733 186.438C48.155 185.45 49.2606 184.899 50.32 184.44C52.2661 183.597 54.3087 182.868 56.4319 182.791C58.555 182.715 60.7892 183.37 62.2139 184.929Z"
		fill="#FF8F4A" />
	<path
		d="M60.1948 197.776C62.9402 196.376 63.2885 191.639 61.9462 189.062C60.5081 186.303 57.6365 187.037 55.0027 186.372C55.3789 188.726 55.2558 198.045 58.2543 198.17C59.0009 198.202 59.6461 198.055 60.1948 197.776Z"
		fill="#F06A35" />
	<path
		d="M62.2551 155.611C61.3816 155.168 60.531 154.682 59.707 154.155C58.9534 153.673 57.979 153.147 57.2273 153.631C56.7484 153.939 56.5809 154.543 56.4496 155.092C56.1889 156.186 55.9333 157.364 56.3576 158.406C56.9774 159.926 58.7631 160.567 60.3514 161.037C62.9567 161.808 65.6216 163.229 68.2718 162.18C70.1438 161.592 71.9402 160.795 73.7101 159.956C77.9976 157.926 84.4526 152.685 87.7271 156.312C87.5114 154.641 87.7259 152.831 86.0131 151.943C84.7089 151.266 82.974 151.555 81.8798 152.487C80.2685 153.862 78.12 154.471 76.1066 155.008C74.4275 155.456 72.7427 155.884 71.0465 156.265C69.8666 156.531 68.1672 157.299 66.9917 157.313C66.365 157.32 65.7579 157.115 65.1725 156.895C64.1772 156.519 63.2028 156.09 62.2551 155.611Z"
		fill="#966C49" />
	<path
		d="M63.6107 162.836L66.6042 156.333L60.635 151.93C60.635 151.93 56.9723 155.171 57.1106 155.532C57.2495 155.893 63.6107 162.836 63.6107 162.836Z"
		fill="#2B719C" />
	<path
		d="M53.6027 147.897C53.2969 148.165 52.943 148.395 52.6562 148.682C52.4006 148.938 52.2052 149.226 51.9166 149.45C51.5316 149.751 51.1262 150.012 50.8116 150.391C50.5103 150.754 50.3016 151.172 50.11 151.599C49.8759 152.119 49.6184 152.581 49.2879 153.047C48.6605 153.933 48.3459 154.939 48.0357 155.966C47.716 157.024 47.5212 158.048 47.52 159.155C47.5187 160.243 47.6272 161.325 47.7553 162.404C47.8999 163.614 48.0623 164.823 48.1169 166.041C48.1664 167.156 48.1391 168.268 48.0617 169.381C47.9786 170.579 47.8416 171.738 48.0953 172.925C48.3307 174.026 48.6434 175.092 48.7671 176.215C48.8077 176.583 48.8584 176.964 48.7899 177.332C48.6998 177.816 48.4766 178.286 48.304 178.744C47.9222 179.756 47.6767 180.8 47.5073 181.867C47.3183 183.053 47.2174 184.246 47.1292 185.443C47.0918 185.952 47.0715 186.467 46.9396 186.963C46.8565 187.276 46.6623 187.622 46.6738 187.953C46.6858 188.298 47.2085 188.31 47.454 188.342C48.6567 188.5 49.8512 188.667 51.0495 188.857C51.6051 188.944 52.1602 189.04 52.7171 189.117C52.9817 189.153 53.2475 189.171 53.5126 189.201C53.6357 189.215 53.7632 189.239 53.8875 189.224C54.2998 189.171 54.4426 188.635 54.5517 188.315C54.7337 187.781 54.8822 187.228 55.1175 186.714C55.1644 186.611 55.2412 186.387 55.3655 186.342C55.4505 186.312 55.4994 186.371 55.545 186.437C55.7372 186.717 55.7759 187.088 55.9212 187.391C56.1147 187.796 56.5245 187.648 56.9285 187.663L61.133 188.051C61.4818 188.101 61.8307 188.151 62.1777 188.209C62.7924 188.312 63.4375 188.515 64.0649 188.505C64.1905 188.503 64.3364 188.491 64.4043 188.37C64.5108 188.182 64.4017 187.851 64.3624 187.668C64.2076 186.951 64.0941 186.25 64.1258 185.514C64.1562 184.809 64.3097 184.118 64.4449 183.427C64.5768 182.752 64.6872 182.074 64.7595 181.389C64.9168 179.903 64.9327 178.401 64.9301 176.907C64.9276 175.474 64.8794 174.041 64.8109 172.609C64.736 171.049 64.698 169.49 64.6377 167.93C64.5793 166.42 64.4785 164.914 64.3034 163.412C64.134 161.96 63.9038 160.509 63.5733 159.083C63.4045 158.356 63.1781 157.653 62.9351 156.948C62.701 156.27 62.5583 155.587 62.4035 154.889C62.2963 154.404 62.1562 153.924 61.8739 153.508C61.6842 153.229 61.447 152.987 61.2306 152.727C61.0188 152.472 60.8329 152.197 60.6356 151.931L53.6027 147.897Z"
		fill="#4591BF" />
	<path
		d="M57.3586 182.569C55.585 179.059 54.1901 175.363 53.1973 171.564C52.759 169.887 52.6664 168.092 52.2623 166.451C52.0669 165.657 50.7088 163.488 50.8737 162.836C48.8305 170.899 49.0132 178.438 54.0975 185.306C54.827 186.292 56.0214 187.315 57.1512 186.82C57.8902 186.497 58.2327 185.608 58.168 184.811C58.1033 184.015 57.7196 183.284 57.3586 182.569Z"
		fill="#2B719C" />
	<path
		d="M55.4607 174.163C55.1625 170.114 54.8637 166.065 54.5656 162.017C54.4609 160.594 54.3639 159.118 54.884 157.788C57.4163 151.317 59.7812 160.58 59.7387 163.009C59.7025 165.08 59.3054 167.146 58.5562 169.081C58.1395 170.157 55.4004 173.345 55.4607 174.163Z"
		fill="#2B719C" />
	<path
		d="M53.2722 147.835C53.3693 146.991 53.5773 146.094 54.1026 146.05C54.7369 145.998 55.436 146.218 55.9644 146.557C56.4236 146.852 56.8271 147.241 57.2362 147.597C57.6289 147.939 58.0146 148.289 58.378 148.661C59.001 149.298 59.5192 150.025 60.1295 150.672C60.9256 151.517 61.0131 151.546 60.6503 152.686C58.1573 151.495 55.665 150.305 53.172 149.113C53.1955 148.846 53.2132 148.351 53.2722 147.835Z"
		fill="#4591BF" />
	<path
		d="M56.7122 166.77C56.9076 165.176 57.2286 163.558 56.567 162.018C56.0722 160.867 55.0033 159.905 53.7441 159.788C52.9753 159.716 52.2002 159.958 51.5442 160.36C49.5289 161.596 49.0303 164.075 49.3076 166.245C49.6717 169.095 50.1379 172.083 51.0184 174.824C51.7168 176.997 52.6639 179.082 53.6579 181.136C56.0677 186.114 60.5069 191.642 57.9834 197.407C59.9677 197.157 62.1156 197.406 63.1705 195.418C63.9735 193.904 63.631 191.89 62.5241 190.619C60.8925 188.749 60.17 186.254 59.5319 183.918C58.7897 181.198 58.097 178.471 57.5299 175.709C57.2565 174.378 56.5568 173.04 56.279 171.663C55.9447 170.006 56.5111 168.412 56.7122 166.77Z"
		fill="#966C49" />
	<path
		d="M58.6831 157.323C58.5873 157.559 58.4903 157.794 58.3958 158.03C58.26 158.368 58.1674 158.735 57.9803 159.05C57.8693 159.237 57.703 159.384 57.5939 159.573C57.2159 160.226 57.1563 161.09 57.1366 161.823C57.1239 162.315 57.1562 162.806 57.155 163.298C57.155 163.441 57.1785 163.679 57.082 163.804C57.0364 163.864 56.9856 163.875 56.9127 163.872C56.5974 163.858 56.2567 163.638 55.9726 163.525C55.1003 163.181 54.1761 163.001 53.2493 162.867C52.294 162.73 51.319 162.611 50.3523 162.609C49.9939 162.609 49.6234 162.623 49.2764 162.72C49.1299 162.761 48.9174 162.907 48.7601 162.877C48.4778 162.823 48.6776 162.089 48.6986 161.936C48.8324 160.965 48.9054 160.003 48.8692 159.022C48.8508 158.516 48.7886 158.012 48.7924 157.506C48.7956 157.049 48.8667 156.599 48.9599 156.153C49.5264 153.439 52.393 151.438 55.1796 151.729C57.9663 152.02 59.7291 154.752 58.6831 157.323Z"
		fill="#4591BF" />
	<path
		d="M61.9297 132.739C61.2738 132.362 60.5798 132.097 59.8192 132.036C58.3222 131.916 56.6634 132.209 55.349 132.939C54.06 133.655 52.825 134.829 52.4539 136.282C52.0936 137.693 51.9642 139.407 52.1945 140.847C52.4564 142.484 53.4682 143.833 54.1495 145.308C54.5263 145.217 54.6976 144.794 54.8117 144.427C54.9113 144.108 55.0116 143.767 54.9259 143.443C54.8511 143.16 54.6462 142.933 54.4977 142.681C54.178 142.136 53.9617 140.477 54.9583 140.414C55.8635 140.356 55.9961 142.019 56.1534 142.636C56.2549 143.034 56.6158 143.433 57.0199 143.341C57.3377 143.268 57.5198 142.917 57.521 142.594C57.5223 142.271 57.3904 141.965 57.2901 141.658C57.0015 140.774 56.5029 139.211 57.3212 138.525C57.7373 138.176 58.2778 137.924 58.5011 137.432C58.9096 136.532 58.4193 135.41 59.1608 134.593C60.1903 133.459 61.2992 134.228 62.4245 134.605C62.9846 134.793 63.7902 134.593 63.8365 134.01C63.9069 133.132 62.4841 133.058 61.9297 132.739Z"
		fill="#4D3426" />
	<path
		d="M309.624 141.098C310.747 140.903 311.744 140.383 312.914 140.321C314.081 140.259 315.301 140.526 316.21 141.253C317.119 141.979 317.654 143.21 317.364 144.33C318.151 144.509 318.332 144.738 318.612 145.501C319.174 147.033 318.593 148.72 318.015 150.246C317.532 151.52 317.052 152.795 316.567 154.069C316.361 154.609 316.298 154.776 315.726 154.909C315.138 155.043 314.481 155.099 313.894 154.942C313.276 154.777 312.736 154.469 312.549 153.856C312.319 153.101 311.994 152.367 311.021 152.474C310.202 152.564 309.591 153.365 308.77 153.42C308.122 153.464 307.524 153.008 307.21 152.446C306.896 151.884 306.807 151.229 306.725 150.591C306.6 149.623 306.475 148.654 306.349 147.686C306.205 146.568 306.495 144.944 305.463 144.172C305.111 143.909 304.694 143.731 304.387 143.418C304.081 143.105 303.921 142.578 304.195 142.238C304.784 142.657 305.595 142.34 306.263 142.059C306.372 142.014 306.483 141.968 306.596 141.923C307.598 141.524 308.578 141.281 309.624 141.098Z"
		fill="#FF8F4A" />
	<path
		d="M303.109 152.175C303.208 152.401 303.379 152.596 303.601 152.709C304.044 152.936 304.639 152.814 304.954 152.433C305.029 152.027 305.764 148.952 304.561 149.251C304.233 149.334 303.146 151.114 303.05 151.456C302.983 151.693 303.01 151.95 303.109 152.175Z"
		fill="#F5906E" />
	<path
		d="M316.236 157.168C315.151 157.437 314.066 157.705 312.981 157.974C312.124 158.186 311.318 158.482 310.475 158.703C310.003 158.827 310.02 158.714 309.65 158.405C309.033 157.89 308.311 157.625 307.528 157.453C306.821 157.297 305.659 157.472 305.038 157.098C304.163 156.57 304.142 155.595 304.056 154.678C303.759 151.547 303.569 148.05 305.168 145.211C305.334 144.916 305.556 144.281 305.976 144.322C306.213 144.345 306.41 144.505 306.59 144.658C307.151 145.131 307.965 145.877 307.565 146.68C307.233 147.344 306.861 147.753 307.269 148.563C307.615 149.25 308.03 149.802 307.934 150.599C307.872 151.115 307.451 151.873 307.976 152.267C308.28 152.496 308.883 152.823 309.222 152.493C309.437 152.283 309.503 151.914 309.572 151.641C309.69 151.168 309.772 150.65 310.014 150.218C310.245 149.803 310.861 149.469 311.342 149.493C311.764 149.514 311.941 150.003 312.03 150.346C312.161 150.852 311.949 151.292 312.003 151.782C312.058 152.293 312.329 152.889 312.681 153.264C313.262 153.882 314.171 154.04 314.999 154.242C315.27 154.309 315.549 154.388 315.762 154.565C316.138 154.877 315.97 155.182 315.965 155.573C315.959 156.083 316.151 156.664 316.236 157.168Z"
		fill="#FFB980" />
	<path d="M305.038 157.098L311.349 156.819L310.863 158.498L305.038 157.098Z" fill="#F5906E" />
	<path
		d="M319.453 158.307C319.232 158.429 318.824 158.353 318.586 158.368C317.995 158.405 317.406 158.468 316.817 158.526C315.722 158.635 314.617 158.746 313.548 159.016C312.624 159.25 311.812 159.753 310.903 160.008C310.507 160.119 309.925 160.165 309.611 159.838C309.302 159.516 309.722 159.1 309.954 158.876C310.669 158.186 311.553 157.652 312.401 157.14C313.304 156.595 314.239 156.058 315.254 155.745C315.855 155.56 316.546 155.4 317.179 155.501C317.786 155.599 318.159 156.166 318.527 156.599C318.824 156.949 319.124 157.307 319.364 157.698C319.447 157.832 319.579 158.021 319.56 158.188C319.547 158.254 319.508 158.278 319.453 158.307Z"
		fill="white" />
	<path
		d="M319.285 253.314C319.998 255.885 316.402 257.27 314.432 257.788C313.175 258.118 310.584 257.674 309.86 258.969C309.671 259.306 309.649 259.727 309.792 260.086C310.124 260.92 310.992 260.907 311.743 261.06C314.985 261.724 319.717 262.272 322.629 260.301C322.759 260.704 322.772 261.138 322.688 261.553H326.41C326.469 261.553 326.528 261.55 326.587 261.548C326.616 260.178 326.799 258.909 326.638 257.529C326.51 256.439 326.245 255.353 326.176 254.257C323.879 253.942 321.582 253.626 319.285 253.314Z"
		fill="#3D535C" />
	<path
		d="M326.403 206.466C326.297 204.974 327.026 202.989 326.495 201.648C325.736 199.732 322.906 199.292 321.134 199.161C319.142 199.015 317.059 199.097 315.277 199.988C311.996 201.629 310.563 205.685 310.935 209.303C311.368 213.501 314.147 216.68 315.08 220.628C315.52 222.49 316.253 224.283 316.622 226.159C316.741 226.763 316.788 227.422 317.088 227.973C317.353 228.461 317.835 228.773 318.198 229.182C318.992 230.077 318.694 231.399 319.018 232.473C319.266 233.296 319.546 234.087 319.677 234.94C319.818 235.857 319.882 236.787 319.931 237.713C320.032 239.67 320.06 241.631 320.198 243.585C320.331 245.45 320.589 247.29 319.931 249.087C319.777 249.508 319.6 249.925 319.497 250.362C319.315 251.139 319.407 251.945 319.227 252.703C318.959 253.837 318.293 254.998 317.853 256.08C320.31 256.727 322.827 257.153 325.362 257.351C325.908 257.394 326.515 257.407 326.931 257.056C327.861 256.27 327.038 254.26 327.21 253.192C327.318 252.523 327.592 251.896 327.643 251.218C327.718 250.241 327.633 249.246 327.599 248.27C327.482 245.034 328.389 241.981 328.443 238.738C328.538 233.005 327.666 227.29 327.586 221.533C327.524 217.07 326.932 212.704 326.547 208.287C326.495 207.681 326.446 207.074 326.403 206.466Z"
		fill="#2B719C" />
	<path
		d="M302.357 252.462C303.171 255.398 299.066 256.978 296.818 257.569C295.383 257.946 292.426 257.439 291.6 258.917C291.385 259.302 291.36 259.782 291.523 260.192C291.903 261.144 292.893 261.129 293.749 261.304C297.45 262.061 302.85 262.688 306.174 260.437C306.323 260.897 306.337 261.392 306.241 261.866H310.49C310.558 261.866 310.625 261.863 310.691 261.861C310.724 260.297 310.934 258.848 310.75 257.274C310.604 256.029 310.302 254.79 310.223 253.539C307.601 253.179 304.979 252.819 302.357 252.462Z"
		fill="#4A6570" />
	<path
		d="M319.265 209.647C320.68 206.554 321.958 203.433 322.585 200.136C318.659 199.397 314.678 198.946 310.685 198.79C309.162 198.73 307.555 198.733 306.224 199.467C303.993 200.699 304.562 203.271 304.28 205.385C302.394 219.485 300.212 233.615 300.342 247.877C300.355 249.323 300.383 250.771 300.452 252.217C300.511 253.467 300.155 254.551 299.829 255.776C303.369 256.738 307.126 256.217 310.539 257.302C310.331 257.235 311.024 252.92 311.034 252.394C311.068 250.498 310.731 248.648 310.934 246.738C311.775 238.822 312.097 230.793 313.909 223.012C314.998 218.329 317.268 214.015 319.265 209.647Z"
		fill="#4591BF" />
	<path d="M304.279 205.385L303.845 210.038L319.561 207.289L326.403 206.466L323.792 193.303L304.279 205.385Z"
		fill="#2B719C" />
	<path
		d="M303.956 173.016C303.663 176.425 303.996 179.829 304.422 183.211C305.217 189.535 305.048 196.749 304.091 202.953C303.889 204.26 304.035 205.83 305.159 206.545C305.953 207.049 306.977 206.955 307.913 206.843C311.469 206.417 315.024 205.991 318.579 205.565C321.143 205.258 323.829 204.906 325.928 203.416C330.05 200.489 327.49 196.596 327.013 192.723C326.654 189.808 326.506 186.871 326.06 183.965C325.306 179.061 326.206 174.059 325.274 169.13C324.908 167.193 324.825 164.887 324.08 163.054C322.88 160.105 320.595 156.912 317.237 157.101C314.084 157.279 311.033 158.805 308.867 161.051C305.803 164.225 304.332 168.643 303.956 173.016Z"
		fill="#4591BF" />
	<path
		d="M306.389 193.704C305.83 194.206 305.123 194.392 304.712 195.017C304.241 195.736 304.078 197.071 303.804 197.902C303.662 198.335 303.593 198.942 304.016 199.122C304.426 199.296 304.823 198.855 305.033 198.466C305.244 198.076 305.569 197.608 306.006 197.701C305.637 198.012 305.245 198.363 305.161 198.835C304.765 201.048 307.64 198.181 307.98 197.969C308.944 197.367 310.046 197.154 310.831 196.251C312.124 194.764 312.13 192.039 309.613 192.039C308.983 192.028 308.365 192.19 307.756 192.351L306.389 193.704Z"
		fill="#FFB980" />
	<path d="M304.464 180.517L313.664 167.896L309.501 183.75L305.175 187.573L304.464 180.517Z" fill="#2B719C" />
	<path
		d="M305.136 192.42C304.061 194.163 306.259 196.258 307.978 195.889C309.288 195.608 310.991 194.263 311.263 192.89C311.534 191.519 309.913 190.059 309.008 189.157C307.784 189.943 306.675 191.052 305.55 191.991C305.239 192.251 304.91 192.539 304.822 192.933C304.734 193.326 305.041 193.818 305.442 193.752"
		fill="white" />
	<path
		d="M305.688 164.156C303.008 168.87 298.566 173.151 297.629 178.667C297.097 181.801 298.171 184.113 299.864 186.682C301.529 189.207 302.645 192.084 304.356 194.65C306.694 194.366 309.429 193.807 310.389 191.679C311.078 190.153 310.547 188.365 309.824 186.854C308.608 184.317 306.12 181.495 306.713 178.582C307.203 176.178 309.189 174.053 310.648 172.17C313.375 168.654 317.688 163.609 312.695 159.984C310.428 158.338 308.325 160.268 306.885 162.268C306.407 162.933 306.002 163.605 305.688 164.156Z"
		fill="#4591BF" />
	<path
		d="M96.1791 254.2C96.377 254.459 96.5775 254.736 96.8014 255.022C97.3159 255.679 98.0879 256.249 98.9119 256.456C99.8418 256.689 99.9699 256.845 100.683 257.538C97.7675 258.284 94.7239 258.537 91.7241 258.283C90.5125 258.181 89.3225 257.887 89.5997 256.427C89.719 255.798 89.8389 255.169 89.9581 254.541C90.0488 254.065 90.1389 253.588 90.2296 253.112C90.3419 252.52 93.067 252.593 93.5244 252.614C94.8895 252.678 95.5175 253.334 96.1791 254.2Z"
		fill="#FFB980" />
	<path
		d="M94.3865 259.858C96.3777 259.858 98.3371 259.848 100.321 259.697C100.883 259.108 100.485 258.067 99.786 257.646C99.0869 257.224 98.2236 257.216 97.411 257.118C96.0002 256.946 94.6294 256.464 93.4261 255.716C92.7435 255.292 92.0933 254.774 91.3099 254.586C89.0415 254.041 89.1582 256.518 89.2305 258.015C89.2521 258.46 89.2572 259.053 89.5934 259.403C89.9911 259.817 90.7422 259.824 91.2699 259.847C92.3065 259.892 93.3493 259.861 94.3865 259.858Z"
		fill="#3D535C" />
	<path
		d="M89.5845 252.732C89.6777 253.316 89.4614 253.876 89.4488 254.458C89.4443 254.642 89.4519 254.873 89.6111 254.997C89.8782 255.208 90.3946 255.08 90.6832 255.051C91.6506 254.955 92.6224 255.085 93.591 255.007C94.4715 254.935 95.3951 254.711 96.1702 254.281C97.3305 253.637 95.6355 244.61 95.6285 242.813C95.6152 239.307 95.5505 235.371 96.0339 231.735C96.5832 227.605 98.5344 223.964 99.6471 220.017C100.919 215.508 101.334 210.585 102.141 205.969C102.408 204.439 102.675 202.862 102.335 201.346C101.51 197.661 95.4737 196.904 92.7949 199.196C91.4057 200.385 91.1951 202.403 91.0822 204.216C90.661 210.986 90.6921 217.837 89.8046 224.545C88.5708 233.872 88.0989 243.403 89.5845 252.732Z"
		fill="#67ACD6" />
	<path
		d="M104.913 253.668C105.78 254.614 106.517 255.704 107.606 256.416C108.135 256.762 108.254 257.099 108.706 257.539C105.791 258.284 102.747 258.537 99.7473 258.284C98.882 258.21 97.9128 258.034 97.4294 257.32C96.9587 256.627 97.1351 255.704 97.3285 254.892C97.503 254.162 97.739 253.348 98.4044 252.987C98.7165 252.819 99.0812 252.778 99.4358 252.754C101.27 252.63 103.678 252.321 104.913 253.668Z"
		fill="#FFB980" />
	<path
		d="M107.434 204.833C107.323 204.157 107.204 203.48 107.075 202.806C106.393 199.231 104.939 195.154 101.425 194.078C99.4618 193.477 97.2962 194.021 95.508 195.022C93.5371 196.126 91.7641 198.099 91.9861 200.328C92.1961 202.436 93.9297 203.637 95.069 205.241C96.7367 207.587 97.2372 210.408 98.143 213.076C98.9734 215.523 100.534 217.834 100.967 220.403C101.402 222.983 100.528 225.215 99.9985 227.75C99.4085 230.576 95.4407 253.798 98.1138 254.36C100.29 254.817 102.356 253.032 104.603 253.211C104.282 249.033 103.933 244.079 104.783 239.919C105.765 235.117 107.5 230.452 108.6 225.666C109.398 222.413 109.072 219.006 108.742 215.673C108.382 212.052 108.022 208.425 107.434 204.833Z"
		fill="#58D9F1" />
	<path
		d="M99.6699 201.059C102.449 201.528 104.869 203.149 107.192 204.728C106.298 200.928 105.405 197.128 104.512 193.327C104.462 193.114 94.9662 191.991 94.2564 192.341C91.9125 193.494 91.6442 199.151 91.1665 201.63C93.9798 201.916 96.8445 200.582 99.6699 201.059Z"
		fill="#67ACD6" />
	<path d="M106.122 148.935L107.204 150.955C107.475 151.46 107.104 152.068 106.526 152.068H105.509L106.122 148.935Z"
		fill="#F5906E" />
	<path
		d="M106.346 148.196C106.42 146.643 106.705 144.085 105.352 142.924C104.141 141.885 101.935 142.254 100.708 143.01C99.3248 143.863 98.4114 145.32 97.9077 146.852C97.404 148.385 97.2689 150.007 97.137 151.613C96.9194 154.261 96.7018 156.91 96.4842 159.558C96.528 159.024 100.531 161.535 100.819 161.853C101.379 161.425 102.327 161.568 103.041 161.533C102.373 160.111 102.458 158.447 102.765 156.918C102.816 156.664 102.889 156.394 103.09 156.228C103.355 156.01 103.741 156.048 104.084 156.005C106.996 155.644 106.261 149.998 106.346 148.196Z"
		fill="#FFB980" />
	<path
		d="M107.189 165.391C107.258 165.613 107.325 165.838 107.391 166.065C108.032 168.258 108.398 170.516 108.772 172.766C108.926 173.692 108.909 175.004 109.321 175.852C109.623 176.472 110.335 176.752 110.609 177.394C110.843 177.94 110.843 178.545 110.39 178.981L107.064 184.667C107.3 185.284 107.512 185.911 107.701 186.544C108.048 187.705 108.335 188.944 108.13 190.158C108.05 190.636 107.828 191.077 107.762 191.557C107.678 192.16 107.759 192.778 107.744 193.384C107.733 193.871 107.618 194.29 107.469 194.752C107.37 195.059 107.323 195.355 107.333 195.678C107.354 196.299 107.489 196.914 107.562 197.53C107.651 198.286 107.714 199.045 107.823 199.799C107.888 200.247 108.031 200.741 107.979 201.199C107.967 201.309 107.941 201.43 107.847 201.502C107.723 201.598 107.531 201.573 107.389 201.546C106.859 201.447 106.378 201.151 105.895 200.929C105.481 200.738 105.062 200.552 104.721 200.245C104.369 199.93 104.134 199.512 103.883 199.12C103.461 198.462 103.031 197.971 102.226 197.828C101.648 197.725 101.054 197.75 100.471 197.695C100.057 197.655 99.5722 197.539 99.1542 197.629C99.0229 197.658 98.9461 197.712 98.8579 197.81C98.6511 198.04 98.4653 198.143 98.1583 198.224C97.5144 198.391 96.8458 198.454 96.1943 198.587C95.5739 198.713 94.9669 198.893 94.3636 199.083C93.6665 199.302 92.9693 199.557 92.25 199.696C91.9684 199.751 91.6582 199.799 91.3721 199.741C90.869 199.639 90.7834 199.168 90.7548 198.725C90.7142 198.098 90.7231 197.468 90.6806 196.84C90.6293 196.086 90.562 195.33 90.5474 194.574C90.5214 193.221 90.8494 191.922 91.0016 190.585C91.1646 189.153 91.1995 187.707 91.3017 186.27C91.3492 185.603 91.4158 184.938 91.5294 184.28C91.6467 183.602 91.8193 182.936 91.9493 182.261C92.4359 179.738 92.1485 177.361 91.8002 174.878C91.4285 172.226 92.5329 168.952 92.9541 166.318C93.3728 163.698 93.9875 160.766 96.24 159.327C98.7368 157.731 101.537 159.162 103.802 160.455C105.767 161.576 106.565 163.384 107.189 165.391Z"
		fill="#FF8F4A" />
	<path
		d="M97.5271 167.915C97.7123 172.831 97.9217 177.86 99.7784 182.424C100.359 183.851 101.14 185.266 102.403 186.165C103.666 187.064 105.509 187.31 106.76 186.396C107.119 186.135 103.303 176.659 102.881 175.708C101.6 172.826 99.3978 170.506 97.5271 167.915Z"
		fill="#F06A35" />
	<path
		d="M97.2232 259.634C97.522 259.764 97.8944 259.816 98.3067 259.827C101.39 259.909 104.517 259.897 107.602 259.864C108.549 259.854 109.502 259.85 110.445 259.762C110.848 259.725 111.314 259.675 111.645 259.419C112.145 259.03 112.112 258.324 111.681 257.9C111.073 257.302 108.481 255.951 107.628 256.446C107.515 256.512 107.429 256.614 107.329 256.699C107.085 256.905 106.766 257 106.454 257.076C104.887 257.459 103.27 257.47 101.685 257.2C100.694 257.031 100.085 257.089 99.2417 256.546C98.9429 256.353 97.0716 255.302 97.2366 254.834C96.8236 256.002 96.5001 257.137 96.4956 258.389C96.4937 259.067 96.7754 259.439 97.2232 259.634Z"
		fill="#4A6570" />
	<path
		d="M92.8095 172.324C90.6457 170.841 89.3694 168.058 89.3333 165.383C89.2641 160.231 93.6062 156.493 92.8507 151.341C92.578 149.484 92.2195 147.784 92.6173 145.881C92.9459 144.312 93.6557 142.718 94.6827 141.472C95.6241 140.331 96.9333 139.738 98.3917 139.533C100.446 139.245 102.28 139.772 104.244 140.231C105.883 140.615 107.552 140.748 107.954 142.777C108.188 143.963 107.626 145.264 106.596 145.915C106.415 145.358 106.235 144.801 106.054 144.243C105.43 144.988 105.067 145.447 104.207 145.835C103.572 146.122 102.944 146.094 102.487 146.706C101.277 148.327 101.544 150.067 102.037 151.85C102.526 153.618 103.239 155.383 103.121 157.213C102.994 159.187 101.905 160.977 100.645 162.515C99.3851 164.052 97.921 165.432 96.8242 167.087C95.7484 169.215 95.168 170.845 94.7493 173.214C94.042 173.031 93.3931 172.725 92.8095 172.324Z"
		fill="#4591BF" />
	<path d="M109.654 168.918L102.589 172.528L104.141 175.152L109.654 170.885V168.918Z" fill="#FFB980" />
	<path
		d="M109.292 169.877C109.292 169.877 110.852 165.58 111.476 165.271C112.101 164.962 114.911 164.19 114.911 164.19L109.292 169.877Z"
		fill="#FFB980" />
	<path d="M106.363 173.05L117.905 160.542L129.892 165.811L118.144 178.536L106.363 173.05Z" fill="#214A81" />
	<path d="M109.292 172.176L118.128 162.542L127.132 166.498L118.139 176.297L109.292 172.176Z" fill="white" />
	<path
		d="M123.58 170.885L114.911 161.27C114.911 161.27 115.399 160.542 115.575 160.542C115.75 160.542 124.064 170.154 124.064 170.154L124.211 171.078L123.58 170.885Z"
		fill="#FC8DDE" />
	<path
		d="M106.636 178.532C108.185 177.591 109.611 176.396 111.172 175.496C112.879 174.511 114.567 173.89 116.071 172.54C116.715 171.962 117.325 171.3 117.591 170.481C118.099 168.915 117.342 167.065 118.373 165.617C119.268 164.361 121.113 164.131 122.516 163.668C122.965 164.279 122.996 165.161 122.589 165.8C122.557 165.851 123.651 167.828 123.576 168.387C123.491 169.022 122.302 170.718 121.893 169.305C122.193 170.343 119.716 173.529 119.127 174.26C117.556 176.211 115.948 178.137 114.17 179.909C110.84 183.227 107.16 184.936 104.141 179.967C104.972 179.517 105.805 179.037 106.636 178.532Z"
		fill="#FFB980" />
	<path
		d="M105.657 167.425C105.081 165.798 104.59 163.132 102.561 162.818C101.633 162.675 100.682 162.963 99.8659 163.421C98.3302 164.285 97.1719 165.781 96.7297 167.472C96.3637 168.872 96.358 171.036 97.3856 172.19C97.765 172.615 98.3441 172.735 98.6854 173.249C99.0603 173.813 98.9962 174.501 99.2373 175.112C99.4035 175.531 99.7232 175.849 100.031 176.171C100.229 176.378 100.396 176.593 100.543 176.839C100.636 176.994 100.732 177.147 100.869 177.268C101.218 177.576 101.736 177.648 102.037 178.017C102.172 178.181 102.25 178.381 102.353 178.564C102.506 178.833 102.706 179.074 102.863 179.341C103.166 179.857 103.487 180.792 104.257 180.589C105.618 180.229 106.322 178.915 107.435 178.193C107.805 177.953 108.35 177.718 108.577 177.31C108.744 177.011 108.662 176.638 108.56 176.332C108.397 175.842 108.104 175.556 107.742 175.204C107.36 174.833 107.056 174.335 106.832 173.858C106.546 173.25 106.464 172.573 106.321 171.922C106.24 171.555 106.167 171.183 106.14 170.808C106.112 170.412 106.143 170.017 106.134 169.621C106.118 168.864 105.908 168.135 105.657 167.425Z"
		fill="#FF8F4A" />
	<path
		d="M110.176 168.918C110.176 168.918 110.942 167.433 111.632 167.012C112.322 166.592 114.341 165.651 114.353 166.657C114.365 167.664 112.265 167.563 112.265 167.563L110.176 168.918Z"
		fill="#FFB980" />
	<path
		d="M260.209 169.18C259.808 170.027 259.44 170.882 259.12 171.75C258.721 172.834 258.793 174.265 259.778 174.883C260.758 175.498 262.048 174.985 263.029 174.371C265.542 172.8 268.182 170.421 268.975 167.516C269.622 165.145 269.977 162.619 270.495 160.207C270.871 158.459 272.55 155.09 269.793 155.136C267.522 155.174 266.175 157.94 265.372 159.569C263.793 162.776 261.756 165.912 260.209 169.18Z"
		fill="#FFB980" />
	<path
		d="M262.179 162.855C261.797 163.597 261.449 164.488 261.828 165.23C262.516 166.574 264.851 166.173 265.665 167.447C266.693 165.385 267.72 163.324 268.747 161.263C269.132 160.49 269.523 159.702 269.657 158.85C269.792 157.999 269.633 157.058 269.036 156.43C266.741 154.015 263.049 161.165 262.179 162.855Z"
		fill="#67ACD6" />
	<path
		d="M261.333 170.802C260.927 170.618 260.524 170.434 260.131 170.234C258.25 169.281 256.538 168.056 254.692 167.052C253.511 166.44 252.35 165.79 251.177 165.166C250.301 164.7 249.241 163.738 248.273 163.543C248.07 164.278 248.406 165.006 248.84 165.584C247.097 165.818 245.356 166.151 243.582 166.337C243.317 167.06 243.599 167.905 244.153 168.444C244.707 168.982 245.487 169.244 246.261 169.313C248.276 169.495 250.404 168.586 252.373 169.273C253.691 169.732 254.761 171.178 255.777 172.111C257.247 173.462 258.711 174.781 260.271 176.028C261.389 175.719 261.851 175.063 262.098 173.941C262.345 172.82 262.389 171.279 261.333 170.802Z"
		fill="#FFB980" />
	<path
		d="M278.18 232.848C278.818 234.111 281.105 238.547 279.559 239.683C279.34 239.843 279.08 239.937 278.823 240.028C278.256 240.229 277.689 240.431 277.121 240.633C273.686 241.86 270.645 242.332 267.018 242.616C266.669 242.643 266.283 242.66 266.012 242.443C264.767 241.451 267.281 241.2 267.68 241.009C268.796 240.472 269.878 239.133 270.701 238.236C271.794 237.046 272.792 235.905 273.564 234.483C274.055 233.579 273.735 233.607 274.555 233.045C274.772 232.897 277.793 232.102 277.808 232.129C277.93 232.36 278.055 232.601 278.18 232.848Z"
		fill="#3D535C" />
	<path
		d="M264.052 192.061C264.059 191.732 264.063 191.401 264.07 191.072L274.885 181.709C275.138 182.096 275.373 182.496 275.589 182.903C276.479 184.588 276.967 186.441 277.026 188.34C277.077 190.066 276.779 191.772 276.344 193.44C275.847 195.357 275.292 197.255 274.886 199.193C274.448 201.297 274.08 203.441 273.452 205.502C272.954 207.13 272.227 208.668 272.311 210.406C272.345 211.135 272.418 211.908 272.682 212.594C272.946 213.284 273.424 213.869 273.87 214.449C274.955 215.868 275.967 217.299 276.705 218.928C277.479 220.628 277.808 222.381 277.961 224.227C278.124 226.188 278.181 228.206 278.64 230.13C278.798 230.787 279.13 231.376 279.302 232.025C279.444 232.555 279.42 233.122 279.351 233.663L274.652 234.746C274.441 234.256 274.275 233.744 274.192 233.217C274.089 232.568 274.136 231.907 274.049 231.254C273.851 229.769 273.279 228.435 272.588 227.116C271.78 225.571 270.975 224.025 270.27 222.429C269.625 220.973 269.076 219.448 268.24 218.088C267.44 216.781 266.279 215.799 265.281 214.654C264.679 213.962 264.242 213.221 264.145 212.303C264.06 211.536 264.151 210.76 264.186 209.991C264.218 209.336 264.208 208.679 264.187 208.025C264.124 206.143 264.057 204.262 264.028 202.38C263.964 198.789 264.524 194.784 263.942 191.286C263.387 187.953 262.768 185.099 265.441 182.321C267.889 179.779 272.099 179.109 275.229 180.766C275.463 181.367 275.213 182.114 274.663 182.459"
		fill="#2B719C" />
	<path
		d="M272.792 235.171C273.135 236.542 274.384 241.366 272.624 242.139C272.375 242.248 272.1 242.283 271.83 242.316C271.232 242.39 270.633 242.464 270.035 242.538C266.815 242.935 263.692 243.038 260.453 243.073C258.951 243.089 256.895 242.314 259.408 241.402C261.127 240.778 262.806 239.848 264.301 238.808C265.631 237.883 266.858 236.987 267.926 235.767C268.605 234.991 268.286 234.949 269.212 234.578C269.457 234.481 272.58 234.36 272.588 234.389C272.656 234.641 272.725 234.902 272.792 235.171Z"
		fill="#4A6570" />
	<path
		d="M270.625 181.895C272.75 180.493 276.964 179.794 279.141 181.569C281.392 183.405 279.924 186.233 279.359 189.027C277.838 196.545 274.202 202.338 271.597 209.278C270.216 212.958 272.505 215.746 273.284 219.199C274.356 223.953 272.927 228.665 273.1 233.396C273.121 233.944 272.972 234.491 272.783 235.004L267.958 235.04C267.862 234.516 267.814 233.979 267.85 233.448C267.894 232.793 268.086 232.158 268.147 231.503C268.283 230.01 268.022 228.585 267.641 227.149C266.862 224.21 266.204 220.736 265.188 217.675C264.073 214.315 262.93 212.507 263.316 208.898C263.925 203.202 266.008 197.84 266.921 192.214C267.536 188.422 266.941 184.326 270.625 181.895Z"
		fill="#4591BF" />
	<path
		d="M265.457 186.482C266.941 188.146 268.915 189.409 271.1 189.909C273.286 190.41 275.676 190.116 277.594 188.964C278.308 188.535 278.976 187.964 279.291 187.199C279.606 186.433 279.481 185.45 278.83 184.932C278.326 184.532 277.635 184.479 276.989 184.443C272.615 184.196 268.241 183.95 263.867 183.703C264.033 185.878 265.838 187.825 268.015 188.175"
		fill="#2B719C" />
	<path
		d="M279.172 177.328C279.174 177.763 279.185 178.195 279.207 178.626C279.351 181.367 281.67 183.524 278.862 185.947C277.491 187.13 275.593 187.518 273.775 187.596C268.504 187.821 260.342 186.242 262.644 179.751C263.735 176.677 264.181 172.561 263.919 169.315C263.781 167.612 263.423 165.927 263.361 164.219C263.245 160.965 264.908 159.561 266.407 156.985C267.684 154.791 269.143 153.06 271.738 152.444C273.781 151.959 275.7 152.534 277.51 153.618C278.206 154.034 279.726 154.731 280.099 155.46C280.523 156.289 279.932 157.774 279.853 158.652C279.456 163.014 279.438 167.398 279.349 171.774C279.311 173.606 279.164 175.481 279.172 177.328Z"
		fill="#58D9F1" />
	<path
		d="M273.978 166.244C274.199 167.127 274.708 167.91 275.209 168.673C276.939 171.311 278.67 173.95 280.4 176.588C280.537 172.416 280.297 168.233 279.683 164.104C279.533 163.092 279.345 162.048 278.757 161.207C275.964 157.223 273.397 163.926 273.978 166.244Z"
		fill="#67ACD6" />
	<path
		d="M275.519 153.369C275.83 152.754 274.958 149.929 274.904 149.161C274.798 147.674 274.894 146.19 274.911 144.704C274.252 144.884 269.167 147.048 269.131 146.836C269.41 148.457 269.88 150.128 270.091 151.739C270.236 152.845 269.776 154.636 270.882 155.406C272.448 156.497 274.867 154.74 275.519 153.369Z"
		fill="#FFB980" />
	<path
		d="M276.654 177.736C276.286 178.324 276.042 178.993 275.702 179.638C274.984 181 273.993 182.265 273.015 183.45C270.872 186.035 268.596 188.562 267.29 191.602C267.174 191.873 268.612 191.367 268.687 191.322C269.201 191.015 269.586 190.183 269.923 189.717C269.629 191.681 268.847 193.432 268.166 195.293C267.984 195.789 271.363 194.472 271.759 193.977C272.818 192.655 273.422 190.625 273.864 189.022C274.028 188.419 274.144 187.817 274.457 187.267C275.316 185.755 276.752 184.505 277.945 183.258C279.196 181.952 283.412 178.612 280.773 176.629C279.93 175.996 278.69 176.05 277.785 176.593C277.277 176.898 276.93 177.295 276.654 177.736Z"
		fill="#FFB980" />
	<path
		d="M277.886 170.554C278.074 172.621 278.009 173.806 277.577 175.811C277.385 176.709 277.481 177.771 278.197 178.354C278.816 178.859 279.754 178.849 280.467 178.484C281.18 178.12 281.696 177.461 282.076 176.761C283.431 174.271 285.16 156.637 278.539 158.831C276.228 159.597 276.939 161.953 277.183 163.745C277.489 165.998 277.676 168.263 277.883 170.527C277.884 170.535 277.885 170.545 277.886 170.554Z"
		fill="#FFB980" />
	<path
		d="M276.186 164.287C276.359 165.228 276.703 166.051 277.876 166.489C278.597 166.758 279.391 166.733 280.161 166.704C281.504 166.654 282.847 166.603 284.19 166.553C284.513 165.003 283.944 163.493 283.703 161.986C283.443 160.357 283.123 158.781 282.341 157.302C281.711 156.11 280.864 154.907 279.72 154.148C279.225 153.82 278.673 153.555 278.108 153.362C277.803 153.258 277.422 153.138 277.099 153.217C276.263 153.419 276.056 157.286 275.976 157.999C275.742 160.09 275.805 162.219 276.186 164.287Z"
		fill="#58D9F1" />
	<path
		d="M278.199 143.406C278.197 146.085 277.389 149.307 275.076 149.515C272.732 149.726 270.09 148.64 268.306 147.206C266.657 145.881 265.399 144.007 264.841 141.976C264.26 139.867 265.613 138.157 267.378 136.958C267.686 136.749 268.031 136.624 268.385 136.513C268.905 136.349 269.355 136.119 269.838 135.869C273.253 134.105 276.717 137.497 277.812 140.539C278.053 141.208 278.2 142.257 278.199 143.406Z"
		fill="#966C49" />
	<path
		d="M266.535 140.825C266.172 142.29 266.13 143.894 266.206 145.394C266.279 146.819 266.597 148.217 267.269 149.486C267.774 150.438 268.502 151.507 269.551 151.926C270.449 152.286 271.424 151.998 272.25 151.584C273.19 151.112 274.163 150.409 274.628 149.442C275.02 148.626 274.801 147.855 274.869 147.002C274.841 147.351 275.229 147.636 275.58 147.591C275.931 147.546 276.209 147.255 276.339 146.929C276.469 146.603 276.478 146.244 276.485 145.894C276.49 145.588 276.495 145.272 276.381 144.987C276.268 144.702 276.006 144.452 275.695 144.448C275.386 144.444 275.091 144.774 275.208 145.058C275.211 143.215 273.832 140.8 272.198 139.863C271.277 139.334 270.119 138.798 269.024 138.964C268.195 139.09 267.078 139.544 266.695 140.35C266.624 140.501 266.576 140.663 266.535 140.825Z"
		fill="#FFB980" />
	<path
		d="M277.947 136.361C278.754 136.666 279.39 137.32 279.813 138.065C280.372 139.053 280.578 140.305 280.069 141.319C279.408 142.638 277.52 143.17 276.256 142.394C273.949 140.979 274.256 134.964 277.947 136.361Z"
		fill="#966C49" />
	<path
		d="M273.98 142.18C274.203 142.117 274.438 142.036 274.581 141.855C274.863 141.499 274.649 140.976 274.383 140.608C273.433 139.292 271.876 138.423 270.246 138.301C268.57 138.176 264.488 139.339 266.893 141.184C268.746 142.606 271.813 142.791 273.98 142.18Z"
		fill="#966C49" />
</svg>