<svg width="200" height="200" viewBox="0 0 200 200" fill="none" xmlns="http://www.w3.org/2000/svg">
    <path
        d="M190.4 180.12H9.83998C9.67998 180.12 9.59998 179.8 9.59998 179.4C9.59998 179 9.71998 178.68 9.83998 178.68H190.4"
        fill="#4FC1EA" />
    <path d="M153.12 58.96L111.84 100.2L118.96 107.32L160.24 66.08L153.12 58.96Z" fill="white" />
    <path d="M109.055 97.4155L150.31 56.1365L152.12 57.9461L110.866 99.2251L109.055 97.4155Z" fill="white" />
    <path d="M146.48 164.88L105.2 123.6L102.64 126.16L98.08 130.72L100.2 132.84L139.32 171.96L146.48 164.88Z"
        fill="white" />
    <path d="M106.225 122.607L108.034 120.796L149.316 162.049L147.506 163.859L106.225 122.607Z" fill="white" />
    <path
        d="M97.84 108.6L103 113.76H109.36C109.04 111.76 107.92 106.36 104.64 101.8L97.84 108.6ZM96.84 109.6L92.72 113.72H100.96L96.84 109.6ZM92.24 140.76H101.44V149.96H92.24V140.76ZM92.24 132.64H98L96.6 131.24C96.32 130.96 96.32 130.52 96.6 130.24L101.44 125.4V123.48H92.24V132.64ZM96.84 107.6L103.76 100.68C101.84 98.36 99.48 96.64 96.84 95.6C94.16 96.64 91.84 98.32 89.92 100.68L96.84 107.6ZM103.04 166.84C103.04 163.4 100.24 160.6 96.8 160.6C95.16 160.6 93.6 161.24 92.4 162.44C91.2 163.64 90.56 165.2 90.56 166.84V174.76C90.6 174.84 90.64 174.96 90.64 175.08C90.64 175.2 90.6 175.28 90.56 175.4V178.72H103V166.84H103.04ZM90.68 113.72L95.84 108.56L89.04 101.76C85.76 106.32 84.64 111.72 84.32 113.72H90.68ZM88.48 93.56L95.56 86.44L54.32 45.2L47.2 52.32L88.48 93.56ZM87.48 94.56L46.2 53.32L44.36 55.12L85.64 96.4L87.48 94.56Z"
        fill="white" />
    <path d="M41.5645 159.249L82.8305 117.981L84.6408 119.791L43.3747 161.059L41.5645 159.249Z" fill="white" />
    <path d="M33.4226 151.117L74.6886 109.849L81.8164 116.977L40.5504 158.244L33.4226 151.117Z" fill="white" />
    <path
        d="M91.52 139.32C91.12 139.32 90.8 139.64 90.8 140.04V147.6H85.04C84.64 147.6 84.32 147.92 84.32 148.32C84.32 148.72 84.64 149.04 85.04 149.04H90.8V150.68C90.8 151.08 91.12 151.4 91.52 151.4H102.16C102.56 151.4 102.88 151.08 102.88 150.68V140.04C102.88 139.64 102.56 139.32 102.16 139.32H91.52ZM101.44 149.96H92.24V140.76H101.44V149.96ZM106.08 156.8H112.56C112.96 156.8 113.28 156.48 113.28 156.08C113.28 155.68 112.96 155.36 112.56 155.36H106.08C105.68 155.36 105.36 155.68 105.36 156.08C105.36 156.48 105.68 156.8 106.08 156.8Z"
        fill="#4FC1EA" />
    <path
        d="M110.36 100.72L118.48 108.84C118.6 108.96 118.8 109.04 119 109.04C119.2 109.04 119.36 108.96 119.52 108.84L161.8 66.56C162.08 66.28 162.08 65.84 161.8 65.56L153.68 57.44L150.84 54.6C150.56 54.32 150.12 54.32 149.84 54.6L107.52 96.88L104.76 99.64C102.6 97.08 100.04 95.24 97.08 94.16C96.92 94.12 96.76 94.12 96.6 94.16C93.64 95.24 91.04 97.12 88.92 99.64L86.68 97.4L97.12 86.96C97.4 86.68 97.4 86.24 97.12 85.96L54.8 43.68C54.52 43.4 54.08 43.4 53.8 43.68L42.84 54.64C42.56 54.92 42.56 55.36 42.84 55.64L85.12 97.92L88 100.8C83.68 106.72 82.84 113.8 82.8 114.36L82.56 115.72L75.2 108.32C74.92 108.04 74.48 108.04 74.2 108.32L31.92 150.6C31.8 150.72 31.72 150.92 31.72 151.12C31.72 151.32 31.8 151.48 31.92 151.64L42.88 162.6C43 162.72 43.2 162.8 43.4 162.8C43.6 162.8 43.76 162.72 43.92 162.6L80.76 125.76L70.88 179.32C70.84 179.52 70.88 179.76 71.04 179.92C71.16 180.08 71.36 180.16 71.6 180.16H122.2C122.4 180.16 122.6 180.08 122.76 179.92C122.88 179.76 122.96 179.56 122.92 179.32L118 152.56L138.96 173.52C139.08 173.64 139.28 173.72 139.48 173.72C139.68 173.72 139.84 173.64 140 173.52L148.12 165.4L150.96 162.56C151.24 162.28 151.24 161.84 150.96 161.56L112.68 123.28L111.04 114.36C110.96 113.76 110.16 106.68 105.84 100.8L108.2 98.44L110.36 100.72ZM111.84 100.2L153.12 58.92L160.24 66.04L118.96 107.32L111.84 100.2ZM110.84 99.2L109.04 97.4L150.32 56.12L152.12 57.92L110.84 99.2ZM85.64 118.76L83.76 116.88L84.08 115.12H89.24L85.64 118.76ZM74.72 109.84L81.84 116.96L40.56 158.24L33.44 151.12L74.72 109.84ZM96.84 95.56C99.52 96.6 101.84 98.32 103.76 100.64L96.84 107.6L89.92 100.68C91.84 98.32 94.16 96.6 96.84 95.56ZM96.84 109.6L100.96 113.72H92.68L96.84 109.6ZM95.84 108.6L90.68 113.76H84.32C84.64 111.76 85.76 106.4 89.04 101.8L95.84 108.6ZM82.84 117.96L84.64 119.76L43.36 161.04L41.56 159.24L82.84 117.96ZM103 113.72L97.84 108.56L104.64 101.76C107.92 106.32 109.04 111.72 109.36 113.72H103ZM95.56 86.44L88.44 93.56L47.2 52.32L54.32 45.2L95.56 86.44ZM46.2 53.32L87.48 94.6L85.68 96.44L44.36 55.12L46.2 53.32ZM90.6 175.36C90.64 175.28 90.68 175.16 90.68 175.04C90.68 174.92 90.64 174.84 90.6 174.72V166.8C90.6 165.16 91.24 163.6 92.44 162.4C93.6 161.24 95.16 160.56 96.84 160.56C100.28 160.56 103.08 163.36 103.08 166.8V178.68H90.64V175.36H90.6ZM121.28 178.72H104.48V168.16H110.24C110.64 168.16 110.96 167.84 110.96 167.44C110.96 167.04 110.64 166.72 110.24 166.72H104.48C104.4 162.56 101 159.2 96.84 159.2C94.8 159.2 92.88 160 91.44 161.44C90 162.88 89.2 164.8 89.2 166.84V174.36H83.52C83.12 174.36 82.8 174.68 82.8 175.08C82.8 175.48 83.12 175.8 83.52 175.8H89.2V178.72H72.4L75.44 162.16H81.32C81.72 162.16 82.04 161.84 82.04 161.44C82.04 161.04 81.72 160.72 81.32 160.72H75.68L80.32 135.44H86.24C86.64 135.44 86.96 135.12 86.96 134.72C86.96 134.32 86.64 134 86.24 134H80.6L82.44 123.92L86.12 120.24L87 119.36C87.12 119.44 87.24 119.48 87.36 119.48H93.84C94.24 119.48 94.56 119.16 94.56 118.76C94.56 118.36 94.24 118.04 93.84 118.04H88.32L91.28 115.08H102.4L107.04 119.72L104.72 122.04L102.88 123.88V122.64C102.88 122.24 102.56 121.92 102.16 121.92H91.52C91.12 121.92 90.8 122.24 90.8 122.64V133.28C90.8 133.68 91.12 134 91.52 134H99.44L116.12 150.68L121.28 178.72ZM101.44 125.36L96.6 130.2C96.32 130.48 96.32 130.92 96.6 131.2L98 132.6H92.2V123.4H101.4V125.36H101.44ZM100.24 132.84L98.12 130.72L102.68 126.16L105.24 123.6L146.52 164.88L139.36 172L100.24 132.84ZM147.48 163.88L106.2 122.6L108 120.8L149.28 162.08L147.48 163.88ZM108.52 119.28L104.4 115.16H109.56L110.72 121.52L108.52 119.28Z"
        fill="#4FC1EA" />
    <path
        d="M58.48 139.8C58.48 139.76 58.52 139.72 58.52 139.68C59.6 138.16 60.16 136.36 60.16 134.48C60.16 129.48 56.12 125.44 51.12 125.44C46.12 125.44 42.08 129.48 42.08 134.48C42.08 135.92 42.44 137.32 43.08 138.6C43.28 138.76 43.48 138.92 43.68 139.12L47.08 139.32C45.12 138.68 43.72 136.88 43.72 134.72C43.72 134.32 44.04 134 44.44 134C44.84 134 45.16 134.32 45.16 134.72C45.16 136.36 46.32 137.72 47.88 138.04V134.48C47.88 134.08 48.2 133.76 48.6 133.76C49 133.76 49.32 134.08 49.32 134.48V139.44L52.16 139.6C53.12 138.72 53.76 137.44 53.76 136.04C53.76 135.64 54.08 135.32 54.48 135.32C54.88 135.32 55.2 135.64 55.2 136.04C55.2 137.4 54.76 138.68 54 139.72L57.96 139.96C58.04 139.96 58.24 139.88 58.48 139.8ZM61.36 140.84C58.52 140.84 56 142.16 54.32 144.2C54.28 144.32 54.2 144.44 54.08 144.52C52.96 146.04 52.32 147.88 52.32 149.88C52.32 154 55.08 157.48 58.88 158.56C58.96 158.2 59 157.8 59 157.4V152.56C56.68 152.2 54.88 150.2 54.88 147.8C54.88 147.4 55.2 147.08 55.6 147.08C56 147.08 56.32 147.4 56.32 147.8C56.32 149.44 57.48 150.8 59.04 151.12V149.84C59.04 149.44 59.36 149.12 59.76 149.12C60.16 149.12 60.48 149.44 60.48 149.84V155.4C62.8 155.04 64.6 153.04 64.6 150.64C64.6 150.24 64.92 149.92 65.32 149.92C65.72 149.92 66.04 150.24 66.04 150.64C66.04 153.84 63.6 156.48 60.52 156.84V157.4C60.52 157.88 60.48 158.36 60.4 158.84C60.76 158.88 61.12 158.92 61.52 158.92C66.52 158.92 70.56 154.88 70.56 149.88C70.4 144.88 66.36 140.84 61.36 140.84Z"
        fill="white" />
    <path
        d="M61.36 139.4C61 139.4 60.68 139.4 60.32 139.44C61.12 137.92 61.56 136.24 61.56 134.52C61.56 128.76 56.88 124.04 51.08 124.04C45.32 124.04 40.6 128.72 40.6 134.52C40.6 135.48 40.76 136.44 41 137.4C39.36 136.6 37.52 136.12 35.56 136.12C28.84 136.12 23.36 141.6 23.36 148.32C23.36 155.04 28.84 160.52 35.56 160.52C36.04 160.52 36.48 160.48 36.96 160.44C37.12 166.32 41.88 171.08 47.76 171.2V179.44C47.76 179.84 48.08 180.16 48.48 180.16C48.88 180.16 49.2 179.84 49.2 179.44V165.48H52.32C55.76 165.48 58.68 163.32 59.84 160.24C60.32 160.32 60.84 160.36 61.32 160.36C67.08 160.36 71.8 155.68 71.8 149.88C71.84 144.08 67.12 139.4 61.36 139.4ZM61.36 158.92C61 158.92 60.6 158.88 60.24 158.84C60.32 158.36 60.36 157.88 60.36 157.4V156.84C63.48 156.48 65.88 153.84 65.88 150.64C65.88 150.24 65.56 149.92 65.16 149.92C64.76 149.92 64.44 150.24 64.44 150.64C64.44 153.04 62.64 155.04 60.32 155.4V149.84C60.32 149.44 60 149.12 59.6 149.12C59.2 149.12 58.88 149.44 58.88 149.84V151.12C57.32 150.8 56.16 149.44 56.16 147.8C56.16 147.4 55.84 147.08 55.44 147.08C55.04 147.08 54.72 147.4 54.72 147.8C54.72 150.24 56.52 152.24 58.84 152.56V157.4C58.84 157.8 58.8 158.16 58.72 158.56C54.96 157.48 52.16 154 52.16 149.88C52.16 147.88 52.84 146.04 53.92 144.52C54.04 144.44 54.12 144.32 54.16 144.2C55.84 142.16 58.36 140.84 61.2 140.84C66.2 140.84 70.24 144.88 70.24 149.88C70.4 154.88 66.36 158.92 61.36 158.92ZM49.24 142.32C51.12 142.2 52.8 141.24 53.88 139.8C54.64 138.76 55.08 137.48 55.08 136.12C55.08 135.72 54.76 135.4 54.36 135.4C53.96 135.4 53.64 135.72 53.64 136.12C53.64 137.52 53.04 138.8 52.04 139.68C51.28 140.36 50.28 140.84 49.2 140.92V134.56C49.2 134.16 48.88 133.84 48.48 133.84C48.08 133.84 47.76 134.16 47.76 134.56V138.12C46.2 137.8 45.04 136.44 45.04 134.8C45.04 134.4 44.72 134.08 44.32 134.08C43.92 134.08 43.6 134.4 43.6 134.8C43.6 136.96 45 138.8 46.96 139.4C47.2 139.48 47.44 139.52 47.72 139.56V143C47.12 142.76 46.56 142.48 46 142.12C45.36 141.04 44.52 140.04 43.56 139.2C43.36 139.04 43.16 138.84 42.96 138.68C42.32 137.4 41.96 136 41.96 134.56C41.96 129.56 46 125.52 51 125.52C56 125.52 60.04 129.56 60.04 134.56C60.04 136.44 59.48 138.24 58.4 139.76C58.36 139.8 58.36 139.84 58.36 139.88C58.12 139.96 57.92 140 57.72 140.08C55.88 140.72 54.32 141.88 53.12 143.36C52.44 143.52 51.72 143.64 51 143.64C50.36 143.64 49.76 143.56 49.12 143.44V142.32H49.24ZM47.8 147.84C47.76 146.56 47.52 145.32 47.08 144.16C47.32 144.24 47.56 144.36 47.8 144.44V147.84ZM46.44 148.32C46.44 153.32 43.04 157.48 38.44 158.72V153.36C40.76 153 42.56 151 42.56 148.6C42.56 148.2 42.24 147.88 41.84 147.88C41.44 147.88 41.12 148.2 41.12 148.6C41.12 150.24 39.96 151.6 38.4 151.92V150.52C38.4 150.12 38.08 149.8 37.68 149.8C37.28 149.8 36.96 150.12 36.96 150.52V155.88C34 155.68 31.68 153.24 31.68 150.24C31.68 149.84 31.36 149.52 30.96 149.52C30.56 149.52 30.24 149.84 30.24 150.24C30.24 154 33.2 157.12 36.96 157.28V159C36.52 159.04 36.04 159.08 35.56 159.08C29.6 159.08 24.76 154.24 24.76 148.28C24.76 142.32 29.6 137.48 35.56 137.48C41.56 137.52 46.44 142.36 46.44 148.32ZM38.44 160.2C43.68 158.96 47.64 154.36 47.84 148.76V169.76C42.64 169.64 38.44 165.4 38.44 160.2ZM52.36 164.04H49.24V144.84C49.84 144.96 50.48 145 51.12 145C51.48 145 51.8 144.96 52.16 144.96C51.36 146.44 50.92 148.12 50.92 149.88C50.92 154.64 54.12 158.68 58.52 159.92C57.48 162.32 55.12 164.04 52.36 164.04Z"
        fill="#4FC1EA" />
    <path
        d="M24.84 148.32C24.84 154.28 29.68 159.12 35.64 159.12C36.12 159.12 36.56 159.08 37.04 159.04V157.32C33.32 157.12 30.32 154.04 30.32 150.28C30.32 149.88 30.64 149.56 31.04 149.56C31.44 149.56 31.76 149.88 31.76 150.28C31.76 153.28 34.12 155.72 37.04 155.92V150.56C37.04 150.16 37.36 149.84 37.76 149.84C38.16 149.84 38.48 150.16 38.48 150.56V151.96C40.04 151.64 41.2 150.28 41.2 148.64C41.2 148.24 41.52 147.92 41.92 147.92C42.32 147.92 42.64 148.24 42.64 148.64C42.64 151.08 40.84 153.08 38.52 153.4V158.76C43.12 157.52 46.52 153.32 46.52 148.36C46.52 142.4 41.68 137.56 35.72 137.56C29.68 137.52 24.84 142.36 24.84 148.32Z"
        fill="white" />
    <path
        d="M162.44 146.32C162.52 146.32 162.6 146.24 162.6 146.16C162.6 146.08 162.52 146 162.44 146H155.48C155.4 146 155.32 146.08 155.32 146.16C155.32 146.24 155.4 146.32 155.48 146.32H162.44ZM127.56 24.08C125.24 24.08 123 24.92 121.24 26.44C121.08 26.56 120.88 26.64 120.68 26.6C120.48 26.56 120.32 26.48 120.2 26.32C117.84 23.12 114.16 21.28 110.2 21.28C103.32 21.28 97.72 26.88 97.72 33.76C97.72 35.44 99.08 36.8 100.76 36.8H134.2C135.88 36.8 137.24 35.44 137.24 33.76C137.24 28.4 132.88 24.08 127.56 24.08Z"
        fill="white" />
    <path
        d="M127.56 22.64C125.16 22.64 122.8 23.44 120.88 24.88C118.24 21.72 114.32 19.84 110.2 19.84C102.56 19.84 96.32 26.08 96.32 33.72C96.32 36.2 98.32 38.2 100.8 38.2H134.24C136.72 38.2 138.72 36.2 138.72 33.72C138.64 27.64 133.68 22.64 127.56 22.64ZM134.2 36.8H100.76C99.08 36.8 97.72 35.44 97.72 33.76C97.72 26.88 103.32 21.28 110.2 21.28C114.2 21.28 117.84 23.12 120.2 26.32C120.32 26.48 120.48 26.6 120.68 26.6C120.88 26.64 121.08 26.56 121.24 26.44C123 24.92 125.24 24.08 127.56 24.08C132.88 24.08 137.24 28.44 137.24 33.76C137.24 35.44 135.88 36.8 134.2 36.8Z"
        fill="#4FC1EA" />
</svg>