<svg width="450" height="175" viewBox="0 0 450 175" fill="none" xmlns="http://www.w3.org/2000/svg">
    <path d="M-8.39999 158.933H458.4" stroke="#3C4349" stroke-width="2" stroke-miterlimit="10" />
    <path
        d="M410.7 63.6389C419.3 88.8556 406.6 108.028 373.7 108.028C338.9 108.028 328.9 88.95 337.1 63.6389C342.3 47.6778 340.3 30.3 345.6 22.3667C353.1 11.1278 360 6.78334 373.7 6.78334C386.7 6.78334 395 10.6556 400.3 21.6111C404.7 30.4889 405.1 47.3 410.7 63.6389Z"
        fill="#0D82C5" stroke="#5D5C74" stroke-miterlimit="10" />
    <path
        d="M373.4 6.78334C360.3 6.78334 353.3 10.6556 345.7 22.1778C342.9 26.3333 342.2 33.1333 341.3 41.0667C340.5 47.9611 339.7 55.8944 337.2 63.3556C332.9 76.5778 333.8 87.6278 339.8 95.2778C346 103.211 357.3 107.272 373.4 107.272C389.1 107.272 400.8 102.928 407.2 94.6167C413.3 86.7778 414.2 76.0111 410 63.45C407.6 55.7056 405.7 47.8667 404.4 39.8389C403 32.3778 401.8 25.8611 399.7 21.4222C394.7 11.1278 386.9 6.78334 373.4 6.78334Z"
        fill="#4FC1EA" stroke="#5D5C74" stroke-width="2" stroke-miterlimit="10" />
    <path d="M326.7 122.761C326.7 104.156 347.9 89.1389 374.1 89.1389C400.3 89.1389 421.5 104.25 421.5 122.761"
        fill="#344258" />
    <path d="M326.7 122.761C326.7 104.156 347.9 89.1389 374.1 89.1389C400.3 89.1389 421.5 104.25 421.5 122.761"
        stroke="#5D5C74" stroke-miterlimit="10" />
    <path
        d="M384.7 37.8556C374.5 37.8556 365.7 33.9833 361.6 28.2222C359.9 34.6445 355.2 39.3667 349.4 40.0278V60.7111C349.4 68.7389 354.7 78.6556 363 83.6611V91.6889C363 96.1278 366 102.456 373.8 102.456C381.4 102.456 384.8 96.2222 384.8 91.6889V84.2278C393.6 79.4111 398.4 69.0222 398.4 60.7111V34.3611C396.9 37.1945 393.3 37.8556 384.7 37.8556Z"
        fill="#FBD7CE" />
    <path
        d="M373.7 102.644C365.4 102.644 362.4 95.9389 362.4 91.5V83.7556C354.5 78.8444 348.8 69.1167 348.8 60.5222V39.8389C348.8 39.65 349 39.4611 349.2 39.3667C354.7 38.7056 359.3 34.1722 361 27.8444C361 27.6556 361.2 27.5611 361.4 27.5611C361.6 27.5611 361.8 27.5611 361.9 27.75C366.2 33.5111 374.9 37.1944 384.7 37.1944C393.5 37.1944 396.6 36.4389 397.9 34.0778C398 33.8889 398.2 33.7944 398.4 33.8889C398.6 33.8889 398.8 34.0778 398.8 34.2667V60.6167C398.8 68.4556 394.5 79.2222 385.2 84.4167V91.5944C385.1 96.1278 381.6 102.644 373.7 102.644ZM349.7 40.2167V60.5222C349.7 68.9278 355.3 78.3722 363.1 83.0944C363.2 83.1889 363.3 83.2833 363.3 83.4722V91.5C363.3 95.6556 366.1 101.794 373.6 101.794C380.8 101.794 384.1 95.75 384.1 91.5V84.0389C384.1 83.85 384.2 83.7556 384.3 83.6611C393.1 78.8444 397.7 68.3611 397.7 60.5222V35.5889C395.6 37.5722 391.6 38.0444 384.5 38.0444C374.9 38.0444 366.2 34.6444 361.5 28.9778C359.7 35.1167 355.2 39.3667 349.7 40.2167Z"
        fill="#5C5C74" />
    <path
        d="M378.8 69.0222C378.8 69.0222 376.7 71.2889 374.1 71.2889C371.5 71.2889 369.4 69.0222 369.4 69.0222C372.5 69.4 375.7 69.4 378.8 69.0222ZM374.3 62.8833C373.6 62.8833 372.9 62.6 372.4 62.1278C372.1 61.75 372 61.2778 372.2 60.8056L372.6 60.9C372.5 61.1833 372.5 61.5611 372.7 61.8444C373 62.2222 373.6 62.4111 374.1 62.4111C374.7 62.5056 375.4 62.2222 375.8 61.75C376 61.4667 376 61.0889 375.9 60.8056L376.3 60.6167C376.5 61.0889 376.5 61.6556 376.2 62.0333C375.8 62.6 375.1 62.9778 374.3 62.8833Z"
        fill="#5C5C74" />
    <path
        d="M426.4 113.222V166.206C426.4 168.944 424 171.211 421.1 171.211H326C323.1 171.211 320.7 168.944 320.7 166.206V113.128C320.7 110.389 323.1 108.122 326 108.122H421.1C424 108.217 426.4 110.483 426.4 113.222Z"
        fill="#E4E6E9" />
    <path
        d="M426.4 160.444V166.206C426.4 168.944 424 171.211 421.1 171.211H326C323.1 171.211 320.7 168.944 320.7 166.206V160.35L426.4 160.444Z"
        fill="#CDCFD2" />
    <path
        d="M320.8 140.8C320.2 140.8 319.7 140.328 319.7 139.761V129.278C319.7 128.711 320.2 128.239 320.8 128.239C321.4 128.239 321.9 128.711 321.9 129.278V139.667C321.9 140.233 321.5 140.8 320.8 140.8Z"
        fill="#3C4349" />
    <path
        d="M421.2 172.344H326C322.5 172.344 319.6 169.606 319.6 166.3V146.183C319.6 145.617 320.1 145.144 320.7 145.144C321.3 145.144 321.8 145.617 321.8 146.183V166.3C321.8 168.472 323.7 170.267 326 170.267H421.2C423.5 170.267 425.4 168.472 425.4 166.3V113.222C425.4 111.05 423.5 109.256 421.2 109.256H326C323.7 109.256 321.8 111.05 321.8 113.222V123.611C321.8 124.178 321.3 124.65 320.7 124.65C320.1 124.65 319.6 124.178 319.6 123.611V113.222C319.6 109.917 322.5 107.178 326 107.178H421.1C424.6 107.178 427.5 109.917 427.5 113.222V166.206C427.6 169.511 424.8 172.25 421.2 172.344Z"
        fill="#3C4349" />
    <path
        d="M419.2 130.128C418.7 130.128 418.3 129.75 418.3 129.278V119.739C418.3 117.472 416.3 115.583 413.9 115.583H402.5C402 115.583 401.6 115.206 401.6 114.733C401.6 114.261 402 113.883 402.5 113.883H414C417.4 113.883 420.1 116.433 420.1 119.644V129.278C420.2 129.656 419.7 130.128 419.2 130.128ZM396.3 115.583H388.4C387.9 115.583 387.5 115.206 387.5 114.733C387.5 114.261 387.9 113.883 388.4 113.883H396.3C396.8 113.883 397.2 114.261 397.2 114.733C397.2 115.206 396.8 115.583 396.3 115.583ZM376.6 143.917C380.8 148.639 377.6 150.717 373.6 150.717C369.6 150.717 366.4 147.694 366.4 143.917C366.4 140.139 369.6 137.117 373.6 137.117C377.6 137.117 379.5 140.517 376.6 143.917Z"
        fill="white" />
    <path
        d="M373.6 138.156C370.2 138.156 367.5 140.706 367.5 143.917C367.5 147.128 370.2 149.678 373.6 149.678C375.5 149.678 377 149.111 377.3 148.356C377.6 147.6 377.2 146.183 375.7 144.578C375.3 144.2 375.3 143.633 375.7 143.256C376.8 141.933 377.1 140.611 376.6 139.667C376 138.628 374.8 138.061 373.6 138.156ZM373.6 151.756C369 151.756 365.3 148.261 365.3 143.917C365.3 139.572 369 136.078 373.6 136.078C375.7 135.983 377.6 137.022 378.6 138.722C379.4 140.422 379.2 142.406 378 143.917C379.6 145.994 380.1 147.789 379.4 149.206C378.6 150.811 376.4 151.756 373.6 151.756ZM372.5 134.094C371.9 134.094 371.4 133.622 371.4 133.056C371.4 132.961 371.4 132.867 371.5 132.772C371.6 132.678 372.5 129.467 375.3 128.711C375.9 128.522 376.5 128.9 376.7 129.467C376.8 129.939 376.5 130.506 376 130.694C374.4 131.167 373.7 133.244 373.7 133.339C373.5 133.811 373 134.094 372.5 134.094Z"
        fill="#3C4349" />
    <path
        d="M356.7 49.2833C356.5 49.2833 356.2 49.1889 356.1 49C355.7 48.7167 355.7 48.2444 356 47.8667L356.1 47.7722C357.2 46.6389 358.8 45.9778 360.5 46.0722C361.8 46.1667 362.9 46.8278 363.6 47.7722C363.9 48.15 363.7 48.7167 363.3 49C362.9 49.2833 362.3 49.0944 362 48.7167C361.6 48.15 361 47.8667 360.3 47.7722C359.2 47.6778 358.1 48.15 357.4 48.9056C357.3 49.1889 357 49.2833 356.7 49.2833ZM392.1 49.2833C391.8 49.2833 391.6 49.1889 391.4 49C390.6 48.2444 389.5 47.7722 388.3 47.8667C387.4 47.8667 386.6 48.2444 386.1 48.9056C385.8 49.2833 385.2 49.3778 384.8 49.0945C384.4 48.8111 384.3 48.2444 384.6 47.8667C385.5 46.8278 386.8 46.1667 388.2 46.1667C389.9 46.0722 391.5 46.7333 392.7 47.8667C393.1 48.2444 393.1 48.7167 392.7 49.0945C392.5 49.1889 392.3 49.2833 392.1 49.2833Z"
        fill="#5C5C74" />
    <path d="M182.9 124.744C182.9 106.139 204.1 91.1222 230.3 91.1222C256.5 91.1222 277.7 106.233 277.7 124.744"
        fill="#344258" />
    <path d="M182.9 124.744C182.9 106.139 204.1 91.1222 230.3 91.1222C256.5 91.1222 277.7 106.233 277.7 124.744"
        stroke="#5D5C74" stroke-miterlimit="10" />
    <path
        d="M282.6 115.206V168.189C282.6 170.928 280.2 173.194 277.3 173.194H182.2C179.3 173.194 176.9 170.928 176.9 168.189V115.111C176.9 112.372 179.3 110.106 182.2 110.106H277.3C280.2 110.2 282.6 112.467 282.6 115.206Z"
        fill="#E4E6E9" />
    <path
        d="M176.9 142.783C176.3 142.783 175.8 142.311 175.8 141.744V131.167C175.8 130.6 176.3 130.128 176.9 130.128C177.5 130.128 178 130.6 178 131.167V141.65C178.1 142.122 177.8 142.689 177.2 142.783C177.1 142.783 177 142.783 176.9 142.783Z"
        fill="#3C4349" />
    <path
        d="M277.3 174.328H182.2C178.7 174.328 175.8 171.589 175.8 168.283V148.167C175.8 147.6 176.3 147.128 176.9 147.128C177.5 147.128 178 147.6 178 148.167V168.283C178 170.456 179.9 172.25 182.2 172.25H277.4C279.7 172.25 281.6 170.456 281.6 168.283V115.206C281.6 113.033 279.7 111.239 277.4 111.239H182.3C180 111.239 178.1 113.033 178.1 115.206V125.689C178.1 126.256 177.6 126.728 177 126.728C176.4 126.728 175.9 126.256 175.9 125.689V115.206C175.9 111.9 178.8 109.161 182.3 109.161H277.4C280.9 109.161 283.8 111.9 283.8 115.206V168.189C283.8 171.589 280.9 174.328 277.3 174.328Z"
        fill="#3C4349" />
    <path
        d="M275.4 132.111C274.9 132.111 274.5 131.733 274.5 131.261V121.722C274.5 119.456 272.5 117.567 270.1 117.567H258.7C258.2 117.567 257.8 117.189 257.8 116.717C257.8 116.244 258.2 115.867 258.7 115.867H270.1C273.5 115.867 276.2 118.417 276.2 121.628V131.167C276.3 131.639 276 132.017 275.5 132.111H275.4ZM252.5 117.567H244.6C244.1 117.567 243.7 117.189 243.7 116.717C243.7 116.244 244.1 115.867 244.6 115.867H252.5C253 115.867 253.4 116.244 253.4 116.717C253.4 117.189 253 117.567 252.5 117.567ZM232.8 145.9C237 150.622 233.8 152.7 229.8 152.7C225.8 152.7 222.6 149.678 222.6 145.9C222.6 142.122 225.8 139.1 229.8 139.1C233.8 139.1 235.7 142.5 232.8 145.9Z"
        fill="white" />
    <path
        d="M229.8 140.139C226.4 140.139 223.7 142.689 223.7 145.9C223.7 149.111 226.4 151.661 229.8 151.661C231.7 151.661 233.2 151.094 233.5 150.339C233.8 149.583 233.4 148.167 231.9 146.561C231.5 146.183 231.5 145.617 231.9 145.239C233 143.917 233.3 142.594 232.8 141.65C232.2 140.611 231 140.044 229.8 140.139ZM229.8 153.739C225.2 153.739 221.5 150.244 221.5 145.9C221.5 141.556 225.2 138.061 229.8 138.061C231.9 137.967 233.8 139.006 234.8 140.706C235.6 142.406 235.4 144.389 234.2 145.9C235.8 147.978 236.3 149.772 235.6 151.189C234.7 152.889 232.6 153.739 229.8 153.739ZM228.7 136.078C228.1 136.078 227.6 135.606 227.6 135.039C227.6 134.944 227.6 134.85 227.7 134.756C227.8 134.661 228.7 131.45 231.5 130.694C232.1 130.506 232.7 130.883 232.9 131.45C233 131.922 232.7 132.489 232.2 132.678C230.6 133.15 229.9 135.228 229.9 135.322C229.7 135.794 229.2 136.078 228.7 136.078Z"
        fill="#3C4349" />
    <path
        d="M229.9 103.778C237.1 103.778 240.4 97.7333 240.4 93.4833V86.0222C240.4 85.8333 240.5 85.7389 240.6 85.6445C241.2 85.3611 241.8 84.9833 242.3 84.6056C238.4 85.4556 234.3 85.9278 230.3 85.9278C226.4 85.9278 222.6 85.4556 218.8 84.7C219 84.7945 219.2 84.9833 219.4 85.0778C219.5 85.1722 219.6 85.2667 219.6 85.4556V93.4833C219.5 97.6389 222.3 103.778 229.9 103.778Z"
        fill="#FBD7CE" stroke="#5D5C74" stroke-miterlimit="10" />
    <path d="M33.4 122.761C33.4 104.156 54.6 89.1389 80.8 89.1389C107 89.1389 128.2 104.25 128.2 122.761"
        fill="#344258" />
    <path d="M33.4 122.761C33.4 104.156 54.6 89.1389 80.8 89.1389C107 89.1389 128.2 104.25 128.2 122.761"
        stroke="#5D5C74" stroke-miterlimit="10" />
    <path
        d="M133.1 113.222V166.206C133.1 168.944 130.7 171.211 127.8 171.211H32.7C29.8 171.211 27.4 168.944 27.4 166.206V113.128C27.4 110.389 29.8 108.122 32.7 108.122H127.8C130.7 108.217 133.1 110.483 133.1 113.222Z"
        fill="#E4E6E9" />
    <path
        d="M27.5 140.8C26.9 140.8 26.4 140.328 26.4 139.761V129.278C26.4 128.711 26.9 128.239 27.5 128.239C28.1 128.239 28.6 128.711 28.6 129.278V139.667C28.6 140.233 28.2 140.8 27.5 140.8Z"
        fill="#3C4349" />
    <path
        d="M127.8 172.344H32.7C29.2 172.344 26.3 169.606 26.3 166.3V146.183C26.3 145.617 26.8 145.144 27.4 145.144C28 145.144 28.5 145.617 28.5 146.183V166.3C28.5 168.472 30.4 170.267 32.7 170.267H127.9C130.2 170.267 132.1 168.472 132.1 166.3V113.222C132.1 111.05 130.2 109.256 127.9 109.256H32.7C30.4 109.256 28.5 111.05 28.5 113.222V123.611C28.5 124.178 28 124.65 27.4 124.65C26.8 124.65 26.3 124.178 26.3 123.611V113.222C26.3 109.917 29.2 107.178 32.7 107.178H127.8C131.3 107.178 134.2 109.917 134.2 113.222V166.206C134.2 169.606 131.4 172.344 127.8 172.344Z"
        fill="#3C4349" />
    <path
        d="M125.9 130.128C125.4 130.128 125 129.75 125 129.278V119.739C125 117.472 123 115.583 120.6 115.583H109.2C108.7 115.583 108.3 115.206 108.3 114.733C108.3 114.261 108.7 113.883 109.2 113.883H120.6C124 113.883 126.7 116.433 126.7 119.644V129.278C126.7 129.656 126.4 130.033 125.9 130.128ZM103 115.583H95.1C94.6 115.583 94.2 115.206 94.2 114.733C94.2 114.261 94.6 113.883 95.1 113.883H103C103.5 113.883 103.9 114.261 103.9 114.733C103.9 115.206 103.5 115.583 103 115.583ZM83.3 143.917C87.5 148.639 84.3 150.717 80.3 150.717C76.3 150.717 73.1 147.694 73.1 143.917C73.1 140.139 76.3 137.117 80.3 137.117C84.3 137.117 86.2 140.517 83.3 143.917Z"
        fill="white" />
    <path
        d="M80.3 138.156C76.9 138.156 74.2 140.706 74.2 143.917C74.2 147.128 76.9 149.678 80.3 149.678C82.2 149.678 83.7 149.111 84 148.356C84.3 147.6 83.9 146.183 82.4 144.578C82 144.2 82 143.633 82.4 143.256C83.5 141.933 83.8 140.611 83.3 139.667C82.7 138.628 81.5 138.061 80.3 138.156ZM80.3 151.756C75.7 151.756 72 148.261 72 143.917C72 139.572 75.7 136.078 80.3 136.078C82.4 135.983 84.3 137.022 85.3 138.722C86.1 140.422 85.9 142.406 84.7 143.917C86.3 145.994 86.8 147.789 86.1 149.206C85.2 150.811 83.1 151.756 80.3 151.756ZM79.2 134.094C78.6 134.094 78.1 133.622 78.1 133.056C78.1 132.961 78.1 132.867 78.2 132.772C78.3 132.678 79.2 129.467 82 128.711C82.6 128.522 83.2 128.9 83.4 129.467C83.5 129.939 83.2 130.506 82.7 130.694C81.1 131.167 80.4 133.244 80.4 133.339C80.2 133.811 79.7 134.094 79.2 134.094Z"
        fill="#3C4349" />
    <path
        d="M80.4 101.794C87.6 101.794 90.9 95.75 90.9 91.5V84.0389C90.9 83.85 91 83.7555 91.1 83.6611C91.7 83.3778 92.3 83 92.8 82.6222C88.9 83.4722 84.8 83.9444 80.8 83.9444C76.9 83.9444 73.1 83.4722 69.3 82.7167C69.5 82.8111 69.7 83 69.9 83.0944C70 83.1889 70.1 83.2833 70.1 83.4722V91.5C70 95.6556 72.8 101.794 80.4 101.794Z"
        fill="#FBD7CE" stroke="#5E5C74" stroke-miterlimit="10" />
    <path
        d="M262.2 51.3611C262.2 54.4778 260 57.0278 257.4 57.0278C254.8 57.0278 252.6 54.4778 252.6 51.3611C252.6 48.8111 254.7 46.8278 257.4 46.8278C260 46.8278 262.2 48.8111 262.2 51.3611Z"
        fill="#FACAB8" />
    <path
        d="M257.4 57.7833C254.3 57.7833 251.8 54.95 251.8 51.3611C251.8 48.0556 254 45.9778 257.4 45.9778C260.8 45.9778 263 48.0556 263 51.3611C263 54.8556 260.5 57.7833 257.4 57.7833ZM257.4 47.3944C254.8 47.3944 253.3 48.9056 253.3 51.3611C253.3 54.1 255.1 56.2722 257.4 56.2722C259.7 56.2722 261.5 54.0056 261.5 51.3611C261.4 48.9056 259.9 47.3944 257.4 47.3944Z"
        fill="#5C5C74" />
    <path
        d="M207.8 51.3611C207.8 54.4778 205.6 57.0278 203 57.0278C200.4 57.0278 198.2 54.4778 198.2 51.3611C198.2 48.8111 200.3 46.8278 203 46.8278C205.7 46.8278 207.8 48.8111 207.8 51.3611Z"
        fill="#FACAB8" />
    <path
        d="M202.9 57.7833C199.8 57.7833 197.3 54.95 197.3 51.3611C197.3 48.0556 199.5 45.9778 202.9 45.9778C206.3 45.9778 208.5 48.0556 208.5 51.3611C208.5 54.8556 206 57.7833 202.9 57.7833ZM202.9 47.3944C200.3 47.3944 198.8 48.9056 198.8 51.3611C198.8 54.1 200.6 56.2722 202.9 56.2722C205.2 56.2722 207 54.0056 207 51.3611C207 48.9056 205.5 47.3944 202.9 47.3944Z"
        fill="#5C5C74" />
    <path
        d="M257.6 42.2C257.6 72.8944 246.3 86.0222 230.2 86.0222C214.1 86.0222 202.3 73.7444 202.3 42.2C202.3 23.2167 214 19.25 230.2 19.25C246.4 19.25 257.6 23.3111 257.6 42.2Z"
        fill="#FBD7CE" />
    <path
        d="M230.1 86.7778C221.3 86.7778 214.3 83.2833 209.5 76.3889C204.2 68.8333 201.5 57.4056 201.5 42.2C201.5 21.3278 216 18.4944 230.1 18.4944C244.7 18.4944 258.3 21.3278 258.3 42.2C258.3 70.9111 248.3 86.7778 230.1 86.7778ZM230.1 20.0056C221 20.0056 214.8 21.3278 210.6 24.2556C205.5 27.75 203 33.6056 203 42.2C203 77.8056 217.7 85.2667 230.1 85.2667C247.3 85.2667 256.7 69.9667 256.7 42.2C256.8 23.7833 246.1 20.0056 230.1 20.0056Z"
        fill="#5C5C74" />
    <path
        d="M229.6 57.4056C240.4 57.4056 242.9 63.7333 247.9 63.7333C252.9 63.7333 256.4 56.9333 256.4 56.9333C256.4 56.9333 259.6 91.8778 230.6 91.8778C201.6 91.8778 203.7 57.3111 203.7 57.3111C203.7 57.3111 205.1 63.6389 211.3 63.6389C217.5 63.6389 217.9 57.4056 229.6 57.4056Z"
        fill="#4FC1EA" />
    <path
        d="M230.5 92.7278C222.8 92.7278 216.6 90.3667 212 85.7389C206.7 80.45 204.5 72.9889 203.6 67.7C203 64.3 202.8 60.8055 202.9 57.4055C202.9 57.0278 203.2 56.7444 203.6 56.7444C204 56.7444 204.3 56.9333 204.4 57.3111C204.5 57.5 205.7 63.0722 211.2 63.0722C213.6 63.0722 215 62.0333 216.8 60.8056C220.4 58.0667 224.9 56.5556 229.5 56.7444C236.2 56.7444 239.8 59.1056 242.7 60.9C244.6 62.1278 246 63.0722 247.8 63.0722C252.3 63.0722 255.6 56.7444 255.6 56.65C255.7 56.3667 256.1 56.1778 256.4 56.2722C256.7 56.3667 257 56.65 257 56.9333C257.2 60.4278 257.1 63.9222 256.6 67.4167C255.8 72.8 253.8 80.3555 248.6 85.7389C244.3 90.3667 238.1 92.7278 230.5 92.7278ZM204.4 60.9944C204.6 66.5667 206.1 77.7111 213.1 84.7C217.4 89.0444 223.3 91.2167 230.5 91.2167C237.7 91.2167 243.4 89.0444 247.6 84.7C255 77.05 255.8 64.6778 255.7 59.4833C254.2 61.6556 251.4 64.4889 247.9 64.4889C245.6 64.4889 243.9 63.3556 241.9 62.0333C238.4 59.3889 234.1 57.9722 229.6 58.0667C223.1 58.0667 220.3 60.05 217.8 61.8444C215.9 63.1667 214.1 64.3944 211.3 64.3944C208.5 64.4889 205.9 63.2611 204.4 60.9944Z"
        fill="#5C5C74" />
    <path
        d="M239.7 69.1167C238.6 72.5167 234.5 72.4222 230.2 72.4222C225.9 72.4222 220.7 72.8945 219.7 69.4C218.5 65.5278 225.8 65.15 230.2 65.15C234.6 65.15 240.9 65.4333 239.7 69.1167Z"
        fill="#FACAB8" />
    <path
        d="M227.5 73.1778C223.9 73.1778 219.9 72.8944 218.9 69.5889C218.6 68.6444 218.8 67.6056 219.4 66.85C220.7 65.15 224.2 64.3944 230.2 64.3944C234.3 64.3944 238.6 64.6778 240.1 66.6611C240.7 67.4167 240.8 68.4556 240.5 69.3056C239.2 73.1778 234.8 73.1778 230.5 73.1778H227.5ZM230.1 65.9056C223.4 65.9056 221.2 66.9444 220.5 67.7944C220.2 68.1722 220.1 68.7389 220.3 69.2111C220.9 71.2889 223.5 71.7611 227.4 71.7611H230.3C235 71.7611 237.9 71.5722 238.8 68.9278C239 68.4556 239 67.9833 238.7 67.6056C237.6 65.9056 232 65.9056 230.1 65.9056ZM212.9 49.2833C212.7 49.2833 212.5 49.1889 212.3 49C212 48.7167 212 48.3389 212.3 48.0556L212.4 47.9611C213.6 47.0167 215.1 46.5444 216.6 46.6389C217.7 46.6389 218.8 47.2056 219.4 48.0556C219.6 48.4333 219.6 48.9056 219.2 49.0945C218.8 49.2833 218.3 49.2833 218.1 48.9056C217.7 48.4333 217.1 48.15 216.4 48.15C215.3 48.0556 214.2 48.4333 213.4 49.0945C213.3 49.1889 213.1 49.2833 212.9 49.2833ZM246.9 49.2833C246.7 49.2833 246.5 49.1889 246.4 49.0945C245.5 48.4333 244.4 48.0556 243.2 48.15C242.4 48.15 241.6 48.5278 241 49C240.7 49.2833 240.2 49.3778 239.9 49.0945C239.6 48.8111 239.5 48.3389 239.8 48.0556C240.6 47.2056 241.8 46.7333 243.1 46.7333C244.7 46.6389 246.2 47.1111 247.4 48.0556C247.7 48.3389 247.7 48.8111 247.5 49.0945C247.3 49.1889 247.1 49.2833 246.9 49.2833Z"
        fill="#5C5C74" />
    <path
        d="M222.8 4.70556C233 2.06112 243.8 8.67222 248.7 14.7167C252.8 19.7222 257.7 18.3056 261.5 23.7833C265.3 29.2611 262.8 39.4611 260 43.8056L257.3 48.15C257.3 48.15 253.7 34.7389 248.2 32.4722C242.7 30.2056 242.9 35.6833 230.7 34.7389C218.5 33.7944 214.4 26.9944 211.4 27.9389C208.4 28.8833 208.9 33.8889 206.3 38.8C204.8 41.8222 203.4 44.9389 202.3 48.15C202.3 48.15 194.2 33.5111 197.5 25.2C200 18.8722 204.7 21.1389 208.1 16.9833C211.5 12.8278 215.6 6.59445 222.8 4.70556Z"
        fill="#4FC1EA" />
    <path
        d="M202.5 48.8111C202.2 48.8111 202 48.6222 201.8 48.4333C201.5 47.8667 193.6 33.4167 196.9 24.9167C198.5 20.95 200.9 20.1 203.2 19.25C204.9 18.7778 206.4 17.8333 207.6 16.6056C208.1 16.0389 208.6 15.3778 209.1 14.7167C212.2 10.6556 216.2 5.65 222.6 4.04444C224.2 3.66666 225.9 3.47778 227.6 3.47778C236.4 3.47778 244.9 8.95556 249.4 14.3389C251 16.1333 253.1 17.55 255.4 18.4C257.8 19.4389 260.2 20.4778 262.3 23.5C266.4 29.3556 263.6 39.9333 260.9 44.2778L258.2 48.6222C258 48.9056 257.7 49 257.4 49C257.1 49 256.8 48.7167 256.8 48.4333C255.8 44.8444 252.4 35.0222 248.2 33.2278C247.6 32.9445 246.8 32.7556 246.1 32.7556C245 32.85 244 33.1333 243.1 33.6056C240.2 35.0222 236.9 35.7778 233.6 35.6833C232.7 35.6833 231.8 35.6833 230.9 35.5889C225.4 35.2111 220.2 33.3222 215.7 30.3C214 29.2611 212.8 28.5056 212 28.6944C210.6 29.0722 210.1 30.8667 209.5 33.4167C209 35.4 208.3 37.3833 207.4 39.2722C205.9 42.2944 204.5 45.3167 203.4 48.5278C203.1 48.6222 202.8 48.7167 202.5 48.8111ZM245.9 31.15C246.9 31.15 247.8 31.3389 248.7 31.8111C253.3 33.7 256.5 42.5778 257.7 46.3556L259.5 43.5222C262 39.65 264.6 29.6389 261 24.35C259.5 22.2722 257.3 20.6667 254.8 19.8167C252.2 18.8722 250 17.3611 248.3 15.3778C244.2 10.3722 236 5.08334 227.7 5.08334C226.1 5.08334 224.6 5.27223 223.1 5.65001C217.2 7.16112 213.5 11.8833 210.5 15.7556C210 16.4167 209.5 17.0778 209 17.6445C207.7 19.1556 206 20.1945 204 20.7611C201.8 21.5167 199.9 22.2722 198.5 25.5778C196 32 200.6 42.4833 202.5 46.3556C203.2 44.6556 204.4 41.7278 205.9 38.6111C206.8 36.8167 207.4 34.9278 207.9 33.0389C208.6 30.3 209.3 28.0333 211.4 27.2778C211.7 27.1833 211.9 27.1833 212.2 27.1833C213.5 27.1833 214.7 27.9389 216.4 29.0722C220.6 32 225.7 33.7 230.9 34.0778C231.8 34.1722 232.6 34.1722 233.5 34.1722C236.6 34.2667 239.6 33.6056 242.3 32.2833C243.4 31.5278 244.6 31.15 245.9 31.15Z"
        fill="#5C5C74" />
    <path
        d="M229.8 59.2944C229.5 59.2944 229.2 59.2944 228.9 59.2C227.7 59.0111 226.6 58.35 226 57.4055C225.8 57.0278 226 56.65 226.4 56.4611C226.7 56.2722 227.1 56.4611 227.3 56.7444C227.7 57.3111 228.3 57.6889 229 57.7833C229.9 58.0667 230.9 57.7833 231.6 57.1222C231.9 56.65 231.8 56.0833 231.5 55.7056C230.4 54.1 228.6 48.6222 229.1 46.8278C229.2 46.45 229.7 46.2611 230 46.45C230.3 46.5444 230.5 46.9222 230.5 47.2056C230.1 48.4333 231.6 53.3444 232.7 54.95C233.4 55.8 233.4 56.9333 232.8 57.8778C232.2 58.8222 231 59.3889 229.8 59.2944ZM229.8 70.4389C227.9 70.5333 226.1 69.8722 224.9 68.4556C224.7 68.0778 224.7 67.7 225.1 67.4167C225.5 67.2278 225.9 67.3222 226.2 67.6056C227.1 68.55 228.4 69.0222 229.8 68.9278C231.7 68.9278 233.5 68.2667 234.1 67.4167C234.3 67.0389 234.8 67.0389 235.2 67.2278C235.6 67.4167 235.6 67.8889 235.4 68.2667C234.3 69.7778 231.8 70.4389 229.8 70.4389Z"
        fill="#5C5C74" />
    <path
        d="M55.9 52.1167C55.9 55.5167 53.6 58.1611 50.7 58.1611C47.8 58.1611 45.5 55.4222 45.5 52.1167C45.5 48.8111 47.8 47.1111 50.7 47.1111C53.6 47.1111 55.9 48.7167 55.9 52.1167Z"
        fill="#FACAB8" />
    <path
        d="M50.7 58.9167C47.4 58.9167 44.7 55.8 44.7 52.0222C44.5 49.0944 46.8 46.45 50 46.2611C50.2 46.2611 50.5 46.2611 50.7 46.2611C53.8 46.0722 56.5 48.3389 56.7 51.3611C56.7 51.55 56.7 51.8333 56.7 52.0222C56.7 55.8944 54 58.9167 50.7 58.9167ZM50.7 47.8667C48.4 47.6778 46.5 49.2833 46.3 51.4556C46.3 51.6445 46.3 51.9278 46.3 52.1167C46.3 55.0444 48.3 57.4056 50.7 57.4056C53.1 57.4056 55.1 55.0444 55.1 52.1167C55 49.4722 53.4 47.8667 50.7 47.8667Z"
        fill="#5C5C74" />
    <path
        d="M69.8 86.2111C60.7 83.1889 56.9 74.5 53.5 62.3167C51.5 55.6111 50.5 48.6222 50.7 41.6333C50.7 20.3833 62.3 12.6389 80.8 12.6389C99.3 12.6389 111.7 17.0778 111.7 38.3278C111.7 70.1556 100.7 88.7611 80.8 88.7611"
        fill="#FBD7CE" />
    <path
        d="M80.8 89.5167C80.4 89.5167 80 89.1389 80 88.7611C80 88.3833 80.4 88.0056 80.8 88.0056C99.9 88.0056 110.9 69.8722 110.9 38.3278C110.9 17.6444 98.9 13.3944 80.8 13.3944C71.2 13.3944 64.2 15.4722 59.4 19.7222C54.2 24.35 51.5 31.7167 51.5 41.6333C51.3 48.5278 52.3 55.4222 54.3 62.1278C58.9 78.75 63.8 83.3778 70.1 85.4556C70.5 85.6445 70.8 86.0222 70.6 86.4C70.4 86.7778 70 87.0611 69.6 86.8722C60.4 83.85 56.3 75.2556 52.8 62.5056C50.8 55.7056 49.8 48.7167 50 41.6333C50 21.6111 60.1 11.7889 80.9 11.7889C97.4 11.7889 112.7 15 112.7 38.2333C112.5 70.8167 100.9 89.5167 80.8 89.5167Z"
        fill="#5C5C74" />
    <path
        d="M81.1 61.4667C80.8 61.4667 80.4 61.4667 80.1 61.3722C78.7 61.1833 77.6 60.4278 76.9 59.2944C76.7 58.9167 76.9 58.4445 77.3 58.2556C77.7 58.0667 78.1 58.2556 78.3 58.5389C78.7 59.2 79.5 59.6722 80.3 59.7667C81.7 59.9556 82.8 59.6722 83.3 59.0111C83.6 58.4445 83.6 57.7833 83.2 57.2167C82 55.3278 79.9 49 80.5 46.8278C80.6 46.45 81.1 46.1667 81.5 46.2611C81.9 46.3556 82.2 46.8278 82.1 47.2056C81.7 48.7167 83.4 54.5722 84.6 56.4611C85.3 57.5 85.4 58.8222 84.7 59.8611C83.9 60.9944 82.5 61.5611 81.1 61.4667ZM64.5 47.2056C64.3 47.2056 64.1 47.1111 63.9 47.0167C63.6 46.7333 63.6 46.1667 63.9 45.8833C64.9 44.8444 66.4 44.2778 67.9 44.3722C69.1 44.4667 70.1 45.0333 70.7 45.9778C71 46.3556 70.9 46.8278 70.5 47.0167C70.1 47.2056 69.6 47.2056 69.4 46.8278L69.3 46.7333C69 46.1667 68.4 45.8833 67.7 45.8833C66.7 45.7889 65.7 46.1667 65 46.9222C64.9 47.1111 64.7 47.2056 64.5 47.2056ZM97 47.2056C96.8 47.2056 96.6 47.1111 96.4 46.9222C95.7 46.1667 94.6 45.7889 93.5 45.8833C92.7 45.8833 91.9 46.2611 91.4 46.8278C91.1 47.2056 90.6 47.3 90.2 47.0167C89.8 46.7333 89.7 46.2611 90 45.8833C90.8 44.9389 92 44.2778 93.3 44.2778C94.8 44.1833 96.3 44.75 97.4 45.7889C97.7 46.0722 97.7 46.6389 97.4 46.9222C97.5 47.1111 97.3 47.2056 97 47.2056ZM80.4 71.2889C78.6 71.3833 76.8 70.6278 75.6 69.3056C75.4 68.9278 75.4 68.4556 75.8 68.2667C76.2 68.0778 76.7 68.0778 76.9 68.4556C77.5 69.3056 78.9 69.7778 80.6 69.6833C82.3 69.5889 84.1 68.9278 84.7 67.9833C84.9 67.6056 85.4 67.4167 85.8 67.6056C86.2 67.7944 86.4 68.2667 86.2 68.6445C86.2 68.6445 86.2 68.7389 86.1 68.7389C85.2 70.1556 83.1 71.1 80.6 71.1944C80.6 71.2889 80.5 71.2889 80.4 71.2889Z"
        fill="#5C5C74" />
    <path d="M108.9 59.8611C113.3 60.1445 116.3 56.1778 116.5 52.5889C116.7 49 113 47.6778 110 47.9611"
        fill="#FACAB8" />
    <path
        d="M109.4 60.6167H108.9C108.4 60.6167 108.1 60.2389 108.1 59.7667C108.1 59.2944 108.5 59.0111 109 59.0111C110.5 59.1056 112 58.6333 113.1 57.6889C114.7 56.3667 115.6 54.4778 115.8 52.4944C115.9 51.55 115.5 50.5111 114.8 49.85C113.6 48.8111 111.9 48.4333 110.3 48.7167C109.9 48.7167 109.5 48.4333 109.5 47.9611C109.5 47.5833 109.8 47.3 110.1 47.2056C112.2 46.9222 114.4 47.4889 116 48.8111C117.1 49.7556 117.7 51.1722 117.6 52.5889C117.4 54.95 116.3 57.2167 114.4 58.8222C113 59.9555 111.2 60.6167 109.4 60.6167Z"
        fill="#5C5C74" />
    <path
        d="M110.8 48.0556C114.8 37.4778 115.5 26.05 112.9 15.0944C112.1 11.7889 110.9 8.57778 109.2 5.65C103.5 6.87778 101.9 3.66665 86.5 1.68332C75.4 0.266653 70.3 3.57221 68.4 5.55555C68.4 5.55555 64.8 3.85554 57.5 6.87776C50.9 9.61665 45.2 16.7944 49.2 39.2722C50 45.1278 51.5 50.9833 53.6 56.5556C53.6 56.5556 52.1 38.7056 55.1 31.6222C55.2 31.2444 55.4 30.9611 55.6 30.6778L57.1 28.6C61.2 24.1611 68.8 23.5 71.7 26.1444C75.1 29.2611 80.9 28.8833 80.9 28.8833C80.9 28.8833 86.7 29.2611 90.1 26.1444C93.5 23.0278 103.7 24.5389 106.6 31.6222C109.5 38.7056 108.1 56.5556 108.1 56.5556C109.2 53.8167 110.1 50.8889 110.8 48.0556Z"
        fill="#4FC1EA" stroke="#5C5C74" stroke-width="2" stroke-miterlimit="10" />
</svg>